RecursiveSans-CasualHeavy.ufo
<glyph name="exclam" format="1">
  <advance width="350"/>
  <unicode hex="0021"/>
  <outline>
    <contour>
      <point x="250" y="321" type="line"/>
      <point x="278" y="384"/>
      <point x="300" y="459"/>
      <point x="300" y="566" type="curve"/>
      <point x="300" y="619" type="line" smooth="yes"/>
      <point x="300" y="682"/>
      <point x="217" y="710"/>
      <point x="135" y="710" type="curve" smooth="yes"/>
      <point x="95" y="710"/>
      <point x="68" y="707"/>
      <point x="35" y="700" type="curve"/>
      <point x="45" y="664"/>
      <point x="51" y="626"/>
      <point x="51" y="584" type="curve" smooth="yes"/>
      <point x="51" y="576" type="line"/>
      <point x="51" y="499"/>
      <point x="70" y="392"/>
      <point x="103" y="359" type="curve" smooth="yes"/>
      <point x="130" y="332"/>
      <point x="163" y="321"/>
      <point x="228" y="321" type="curve"/>
    </contour>
    <contour>
      <point x="305" y="-3" type="curve"/>
      <point x="305" y="128" type="line" smooth="yes"/>
      <point x="305" y="217"/>
      <point x="254" y="248"/>
      <point x="155" y="248" type="curve" smooth="yes"/>
      <point x="106" y="248"/>
      <point x="77" y="244"/>
      <point x="45" y="236" type="curve"/>
      <point x="45" y="105" type="line" smooth="yes"/>
      <point x="45" y="16"/>
      <point x="96" y="-15"/>
      <point x="195" y="-15" type="curve" smooth="yes"/>
      <point x="244" y="-15"/>
      <point x="273" y="-11"/>
    </contour>
  </outline>
</glyph>
<glyph name="quotesingle" format="1">
  <advance width="250"/>
  <unicode hex="0027"/>
  <outline>
    <contour>
      <point x="211" y="451" type="curve"/>
      <point x="228" y="610" type="line" smooth="yes"/>
      <point x="237" y="707"/>
      <point x="182" y="754"/>
      <point x="56" y="754" type="curve" smooth="yes"/>
      <point x="36" y="754"/>
      <point x="18" y="754"/>
      <point x="-4" y="750" type="curve"/>
      <point x="5" y="724"/>
      <point x="13" y="681"/>
      <point x="18" y="632" type="curve" smooth="yes"/>
      <point x="28" y="521" type="line" smooth="yes"/>
      <point x="32" y="463"/>
      <point x="59" y="441"/>
      <point x="123" y="441" type="curve" smooth="yes"/>
      <point x="158" y="441"/>
      <point x="189" y="444"/>
    </contour>
  </outline>
</glyph>
<glyph name="parenright" format="1">
  <advance width="400"/>
  <unicode hex="0029"/>
  <outline>
    <contour>
      <point x="237" y="-118" type="curve" smooth="yes"/>
      <point x="314" y="-41"/>
      <point x="370" y="101"/>
      <point x="370" y="270" type="curve" smooth="yes"/>
      <point x="370" y="285" type="line" smooth="yes"/>
      <point x="370" y="454"/>
      <point x="314" y="596"/>
      <point x="237" y="673" type="curve" smooth="yes"/>
      <point x="189" y="721"/>
      <point x="158" y="729"/>
      <point x="106" y="729" type="curve" smooth="yes"/>
      <point x="44" y="729"/>
      <point x="6" y="706"/>
      <point x="-24" y="676" type="curve"/>
      <point x="-24" y="672" type="line"/>
      <point x="86" y="567"/>
      <point x="140" y="436"/>
      <point x="140" y="285" type="curve" smooth="yes"/>
      <point x="140" y="270" type="line" smooth="yes"/>
      <point x="140" y="119"/>
      <point x="86" y="-12"/>
      <point x="-24" y="-117" type="curve"/>
      <point x="-24" y="-121" type="line"/>
      <point x="6" y="-151"/>
      <point x="44" y="-174"/>
      <point x="106" y="-174" type="curve" smooth="yes"/>
      <point x="158" y="-174"/>
      <point x="189" y="-166"/>
    </contour>
  </outline>
</glyph>
<glyph name="hyphen" format="1">
  <advance width="600"/>
  <unicode hex="002D"/>
  <outline>
    <contour>
      <point x="94" y="405" type="line"/>
      <point x="94" y="397"/>
      <point x="94" y="390"/>
      <point x="94" y="380" type="curve" smooth="yes"/>
      <point x="94" y="295"/>
      <point x="105" y="249"/>
      <point x="129" y="225" type="curve" smooth="yes"/>
      <point x="152" y="202"/>
      <point x="182" y="195"/>
      <point x="253" y="195" type="curve"/>
      <point x="514" y="195" type="line"/>
      <point x="521" y="227"/>
      <point x="526" y="262"/>
      <point x="526" y="291" type="curve" smooth="yes"/>
      <point x="526" y="383"/>
      <point x="501" y="405"/>
      <point x="422" y="405" type="curve"/>
    </contour>
  </outline>
</glyph>
<glyph name="zero" format="1">
  <advance width="600"/>
  <unicode hex="0030"/>
  <outline>
    <contour>
      <point x="304" y="720" type="curve" smooth="yes"/>
      <point x="138" y="720"/>
      <point x="27" y="567"/>
      <point x="27" y="339" type="curve" smooth="yes"/>
      <point x="27" y="316" type="line" smooth="yes"/>
      <point x="27" y="101"/>
      <point x="126" y="-20"/>
      <point x="296" y="-20" type="curve"/>
      <point x="362" y="-20"/>
      <point x="414" y="33"/>
      <point x="414" y="101" type="curve"/>
      <point x="268" y="100"/>
      <point x="252" y="124"/>
      <point x="252" y="340" type="curve" smooth="yes"/>
      <point x="252" y="356" type="line" smooth="yes"/>
      <point x="252" y="492"/>
      <point x="263" y="527"/>
      <point x="305" y="527" type="curve" smooth="yes"/>
      <point x="354" y="527"/>
      <point x="373" y="518"/>
      <point x="406" y="484" type="curve"/>
      <point x="458" y="560"/>
      <point x="389" y="720"/>
    </contour>
    <contour>
      <point x="296" y="-20" type="curve" smooth="yes"/>
      <point x="466" y="-20"/>
      <point x="573" y="102"/>
      <point x="573" y="321" type="curve" smooth="yes"/>
      <point x="573" y="344" type="line" smooth="yes"/>
      <point x="573" y="566"/>
      <point x="469" y="720"/>
      <point x="304" y="720" type="curve"/>
      <point x="238" y="720"/>
      <point x="186" y="667"/>
      <point x="186" y="600" type="curve"/>
      <point x="332" y="600"/>
      <point x="348" y="576"/>
      <point x="348" y="360" type="curve" smooth="yes"/>
      <point x="348" y="344" type="line" smooth="yes"/>
      <point x="348" y="209"/>
      <point x="337" y="173"/>
      <point x="295" y="173" type="curve" smooth="yes"/>
      <point x="246" y="173"/>
      <point x="227" y="182"/>
      <point x="194" y="216" type="curve"/>
      <point x="142" y="140"/>
      <point x="212" y="-20"/>
    </contour>
  </outline>
</glyph>
<glyph name="one" format="1">
  <advance width="600"/>
  <unicode hex="0031"/>
  <outline>
    <contour>
      <point x="448" y="77" type="curve"/>
      <point x="448" y="271"/>
      <point x="448" y="452"/>
      <point x="448" y="648" type="curve" smooth="yes"/>
      <point x="448" y="694"/>
      <point x="344" y="710"/>
      <point x="242" y="710" type="curve" smooth="yes"/>
      <point x="226" y="710" type="line"/>
      <point x="226" y="522"/>
      <point x="226" y="343"/>
      <point x="226" y="282" type="curve" smooth="yes"/>
      <point x="226" y="154"/>
      <point x="308" y="77"/>
    </contour>
    <contour>
      <point x="37" y="210" type="line"/>
      <point x="32" y="183"/>
      <point x="29" y="158"/>
      <point x="29" y="131" type="curve" smooth="yes"/>
      <point x="29" y="74"/>
      <point x="38" y="40"/>
      <point x="58" y="20" type="curve" smooth="yes"/>
      <point x="73" y="5"/>
      <point x="92" y="0"/>
      <point x="139" y="0" type="curve" smooth="yes"/>
      <point x="566" y="0" type="line"/>
      <point x="571" y="19"/>
      <point x="576" y="44"/>
      <point x="576" y="74" type="curve" smooth="yes"/>
      <point x="576" y="169"/>
      <point x="535" y="210"/>
      <point x="448" y="210" type="curve" smooth="yes"/>
    </contour>
    <contour>
      <point x="101" y="395" type="curve" smooth="yes"/>
      <point x="125" y="395"/>
      <point x="157" y="414"/>
      <point x="191" y="449" type="curve" smooth="yes"/>
      <point x="244" y="501"/>
      <point x="291" y="579"/>
      <point x="291" y="615" type="curve" smooth="yes"/>
      <point x="291" y="676"/>
      <point x="269" y="710"/>
      <point x="231" y="710" type="curve"/>
      <point x="215" y="710" type="line"/>
      <point x="209" y="702"/>
      <point x="203" y="695"/>
      <point x="190" y="681" type="curve"/>
      <point x="156" y="647"/>
      <point x="96" y="613"/>
      <point x="33" y="594" type="curve"/>
      <point x="33" y="564" type="line" smooth="yes"/>
      <point x="33" y="471"/>
      <point x="64" y="395"/>
    </contour>
  </outline>
</glyph>
<glyph name="two" format="1">
  <advance width="600"/>
  <unicode hex="0032"/>
  <outline>
    <contour>
      <point x="333" y="597" type="curve"/>
      <point x="358" y="553"/>
      <point x="365" y="530"/>
      <point x="365" y="507" type="curve" smooth="yes"/>
      <point x="365" y="472"/>
      <point x="339" y="445"/>
      <point x="241" y="410" type="curve" smooth="yes"/>
      <point x="98" y="359"/>
      <point x="41" y="246"/>
      <point x="41" y="162" type="curve" smooth="yes"/>
      <point x="41" y="127"/>
      <point x="92" y="117"/>
      <point x="200" y="117" type="curve"/>
      <point x="200" y="201"/>
      <point x="224" y="241"/>
      <point x="323" y="271" type="curve" smooth="yes"/>
      <point x="512" y="328"/>
      <point x="560" y="413"/>
      <point x="560" y="512" type="curve" smooth="yes"/>
      <point x="560" y="517" type="line" smooth="yes"/>
      <point x="560" y="594"/>
      <point x="469" y="624"/>
    </contour>
    <contour>
      <point x="560" y="0" type="line"/>
      <point x="567" y="28"/>
      <point x="572" y="65"/>
      <point x="572" y="103" type="curve" smooth="yes"/>
      <point x="572" y="190"/>
      <point x="546" y="210"/>
      <point x="462" y="210" type="curve" smooth="yes"/>
      <point x="446" y="210" type="line" smooth="yes"/>
      <point x="304" y="210"/>
      <point x="179" y="194"/>
      <point x="41" y="162" type="curve"/>
      <point x="41" y="159"/>
      <point x="41" y="156"/>
      <point x="41" y="152" type="curve" smooth="yes"/>
      <point x="41" y="87"/>
      <point x="87" y="0"/>
      <point x="123" y="0" type="curve" smooth="yes"/>
    </contour>
    <contour>
      <point x="312" y="720" type="curve" smooth="yes"/>
      <point x="226" y="720"/>
      <point x="136" y="701"/>
      <point x="103" y="668" type="curve" smooth="yes"/>
      <point x="73" y="638"/>
      <point x="68" y="603"/>
      <point x="68" y="550" type="curve" smooth="yes"/>
      <point x="68" y="511"/>
      <point x="71" y="487"/>
      <point x="82" y="460" type="curve"/>
      <point x="85" y="460" type="line"/>
      <point x="149" y="490"/>
      <point x="216" y="505"/>
      <point x="283" y="505" type="curve" smooth="yes"/>
      <point x="398" y="505"/>
      <point x="463" y="485"/>
      <point x="463" y="455" type="curve" smooth="yes"/>
      <point x="463" y="436"/>
      <point x="461" y="429"/>
      <point x="457" y="409" type="curve"/>
      <point x="518" y="409"/>
      <point x="560" y="462"/>
      <point x="560" y="517" type="curve" smooth="yes"/>
      <point x="560" y="654"/>
      <point x="481" y="720"/>
    </contour>
  </outline>
</glyph>
<glyph name="three" format="1">
  <advance width="600"/>
  <unicode hex="0033"/>
  <outline>
    <contour>
      <point x="263" y="496" type="curve" smooth="yes"/>
      <point x="354" y="496"/>
      <point x="395" y="479"/>
      <point x="395" y="453" type="curve" smooth="yes"/>
      <point x="395" y="440"/>
      <point x="394" y="433"/>
      <point x="393" y="427" type="curve"/>
      <point x="488" y="433"/>
      <point x="560" y="489"/>
      <point x="560" y="536" type="curve" smooth="yes"/>
      <point x="560" y="545" type="line" smooth="yes"/>
      <point x="560" y="645"/>
      <point x="475" y="721"/>
      <point x="290" y="721" type="curve" smooth="yes"/>
      <point x="210" y="721"/>
      <point x="142" y="710"/>
      <point x="106" y="674" type="curve" smooth="yes"/>
      <point x="73" y="641"/>
      <point x="61" y="598"/>
      <point x="61" y="527" type="curve" smooth="yes"/>
      <point x="61" y="490"/>
      <point x="64" y="469"/>
      <point x="70" y="450" type="curve"/>
      <point x="74" y="450" type="line"/>
      <point x="142" y="488"/>
      <point x="194" y="496"/>
    </contour>
    <contour>
      <point x="230" y="332" type="curve" smooth="yes"/>
      <point x="472" y="332"/>
      <point x="560" y="417"/>
      <point x="560" y="536" type="curve" smooth="yes"/>
      <point x="560" y="598"/>
      <point x="472" y="620"/>
      <point x="389" y="618" type="curve"/>
      <point x="395" y="607"/>
      <point x="399" y="581"/>
      <point x="399" y="543" type="curve" smooth="yes"/>
      <point x="399" y="445"/>
      <point x="323" y="405"/>
      <point x="169" y="405" type="curve"/>
      <point x="164" y="388"/>
      <point x="162" y="378"/>
      <point x="162" y="350" type="curve" smooth="yes"/>
      <point x="162" y="338"/>
      <point x="181" y="332"/>
    </contour>
    <contour>
      <point x="214" y="272" type="curve" smooth="yes"/>
      <point x="364" y="272"/>
      <point x="435" y="237"/>
      <point x="435" y="176" type="curve" smooth="yes"/>
      <point x="435" y="165"/>
      <point x="435" y="153"/>
      <point x="425" y="130" type="curve"/>
      <point x="513" y="132"/>
      <point x="570" y="161"/>
      <point x="570" y="189" type="curve" smooth="yes"/>
      <point x="570" y="305"/>
      <point x="415" y="374"/>
      <point x="169" y="374" type="curve"/>
      <point x="166" y="369"/>
      <point x="162" y="360"/>
      <point x="162" y="350" type="curve" smooth="yes"/>
      <point x="162" y="292"/>
      <point x="177" y="272"/>
    </contour>
    <contour>
      <point x="263" y="205" type="curve" smooth="yes"/>
      <point x="184" y="205"/>
      <point x="127" y="215"/>
      <point x="50" y="256" type="curve"/>
      <point x="46" y="256" type="line"/>
      <point x="38" y="236"/>
      <point x="33" y="212"/>
      <point x="33" y="171" type="curve" smooth="yes"/>
      <point x="33" y="101"/>
      <point x="44" y="57"/>
      <point x="74" y="27" type="curve" smooth="yes"/>
      <point x="108" y="-7"/>
      <point x="197" y="-20"/>
      <point x="300" y="-20" type="curve" smooth="yes"/>
      <point x="509" y="-20"/>
      <point x="570" y="68"/>
      <point x="570" y="178" type="curve" smooth="yes"/>
      <point x="570" y="189" type="line" smooth="yes"/>
      <point x="570" y="234"/>
      <point x="515" y="290"/>
      <point x="420" y="292" type="curve"/>
      <point x="423" y="281"/>
      <point x="425" y="272"/>
      <point x="425" y="260" type="curve" smooth="yes"/>
      <point x="425" y="216"/>
      <point x="370" y="205"/>
    </contour>
  </outline>
</glyph>
<glyph name="seven" format="1">
  <advance width="600"/>
  <unicode hex="0037"/>
  <outline>
    <contour>
      <point x="258" y="475" type="line" smooth="yes"/>
      <point x="319" y="475"/>
      <point x="476" y="491"/>
      <point x="576" y="518" type="curve"/>
      <point x="576" y="522" type="line"/>
      <point x="576" y="616"/>
      <point x="541" y="700"/>
      <point x="497" y="700" type="curve"/>
      <point x="100" y="700" type="line"/>
      <point x="100" y="661" type="line" smooth="yes"/>
      <point x="100" y="551"/>
      <point x="124" y="475"/>
      <point x="179" y="475" type="curve" smooth="yes"/>
    </contour>
    <contour>
      <point x="384" y="-20" type="line"/>
      <point x="384" y="167"/>
      <point x="576" y="426"/>
      <point x="576" y="518" type="curve" smooth="yes"/>
      <point x="576" y="532"/>
      <point x="512" y="540"/>
      <point x="387" y="540" type="curve"/>
      <point x="387" y="441"/>
      <point x="163" y="227"/>
      <point x="163" y="66" type="curve" smooth="yes"/>
      <point x="163" y="-1"/>
      <point x="234" y="-20"/>
      <point x="369" y="-20" type="curve" smooth="yes"/>
    </contour>
    <contour>
      <point x="231" y="418" type="curve"/>
      <point x="231" y="494"/>
      <point x="243" y="591"/>
      <point x="243" y="643" type="curve"/>
      <point x="243" y="688"/>
      <point x="150" y="720"/>
      <point x="62" y="720" type="curve" smooth="yes"/>
      <point x="59" y="720" type="line"/>
      <point x="35" y="640"/>
      <point x="25" y="573"/>
      <point x="25" y="491" type="curve"/>
      <point x="25" y="411"/>
      <point x="63" y="406"/>
      <point x="149" y="406" type="curve" smooth="yes"/>
      <point x="182" y="406"/>
      <point x="207" y="410"/>
    </contour>
  </outline>
</glyph>
<glyph name="colon" format="1">
  <advance width="300"/>
  <unicode hex="003A"/>
  <outline>
    <contour>
      <point x="280" y="308" type="curve"/>
      <point x="280" y="439" type="line" smooth="yes"/>
      <point x="280" y="528"/>
      <point x="229" y="559"/>
      <point x="130" y="559" type="curve" smooth="yes"/>
      <point x="81" y="559"/>
      <point x="52" y="555"/>
      <point x="20" y="547" type="curve"/>
      <point x="20" y="416" type="line" smooth="yes"/>
      <point x="20" y="327"/>
      <point x="71" y="296"/>
      <point x="170" y="296" type="curve" smooth="yes"/>
      <point x="219" y="296"/>
      <point x="248" y="300"/>
    </contour>
    <contour>
      <point x="280" y="0" type="curve"/>
      <point x="280" y="131" type="line" smooth="yes"/>
      <point x="280" y="220"/>
      <point x="229" y="251"/>
      <point x="130" y="251" type="curve" smooth="yes"/>
      <point x="81" y="251"/>
      <point x="52" y="247"/>
      <point x="20" y="239" type="curve"/>
      <point x="20" y="108" type="line" smooth="yes"/>
      <point x="20" y="19"/>
      <point x="71" y="-12"/>
      <point x="170" y="-12" type="curve" smooth="yes"/>
      <point x="219" y="-12"/>
      <point x="248" y="-8"/>
    </contour>
  </outline>
</glyph>
<glyph name="semicolon" format="1">
  <advance width="350"/>
  <unicode hex="003B"/>
  <outline>
    <contour>
      <point x="300" y="305" type="curve"/>
      <point x="300" y="436" type="line" smooth="yes"/>
      <point x="300" y="525"/>
      <point x="249" y="556"/>
      <point x="150" y="556" type="curve" smooth="yes"/>
      <point x="101" y="556"/>
      <point x="72" y="552"/>
      <point x="40" y="544" type="curve"/>
      <point x="40" y="413" type="line" smooth="yes"/>
      <point x="40" y="324"/>
      <point x="91" y="293"/>
      <point x="190" y="293" type="curve" smooth="yes"/>
      <point x="239" y="293"/>
      <point x="268" y="297"/>
    </contour>
    <contour>
      <point x="146" y="-206" type="curve" smooth="yes"/>
      <point x="186" y="-206"/>
      <point x="205" y="-200"/>
      <point x="230" y="-175" type="curve"/>
      <point x="282" y="-123"/>
      <point x="337" y="-11"/>
      <point x="337" y="72" type="curve"/>
      <point x="337" y="146"/>
      <point x="296" y="177"/>
      <point x="164" y="177" type="curve" smooth="yes"/>
      <point x="133" y="177"/>
      <point x="112" y="175"/>
      <point x="70" y="170" type="curve"/>
      <point x="70" y="52"/>
      <point x="52" y="-70"/>
      <point x="3" y="-156" type="curve"/>
      <point x="45" y="-191"/>
      <point x="89" y="-206"/>
    </contour>
  </outline>
</glyph>
<glyph name="greater" format="1">
  <advance width="600"/>
  <unicode hex="003E"/>
  <outline>
    <contour>
      <point x="60" y="166" type="curve"/>
      <point x="60" y="135" type="line"/>
      <point x="60" y="81"/>
      <point x="96" y="-16"/>
      <point x="152" y="-16" type="curve" smooth="yes"/>
      <point x="165" y="-16"/>
      <point x="189" y="-10"/>
      <point x="225" y="8" type="curve" smooth="yes"/>
      <point x="338" y="62"/>
      <point x="486" y="185"/>
      <point x="533" y="265" type="curve"/>
      <point x="533" y="282" type="line"/>
      <point x="533" y="340"/>
      <point x="483" y="346"/>
      <point x="342" y="356" type="curve"/>
      <point x="305" y="283"/>
      <point x="204" y="192"/>
    </contour>
    <contour>
      <point x="76" y="620" type="curve"/>
      <point x="69" y="599"/>
      <point x="67" y="577"/>
      <point x="67" y="543" type="curve" smooth="yes"/>
      <point x="67" y="464"/>
      <point x="82" y="408"/>
      <point x="118" y="396" type="curve" smooth="yes"/>
      <point x="235" y="353"/>
      <point x="340" y="281"/>
      <point x="394" y="197" type="curve" smooth="yes"/>
      <point x="401" y="188"/>
      <point x="402" y="179"/>
      <point x="402" y="176" type="curve" smooth="yes"/>
      <point x="402" y="168"/>
      <point x="402" y="166"/>
      <point x="402" y="162" type="curve"/>
      <point x="471" y="181"/>
      <point x="533" y="237"/>
      <point x="533" y="279" type="curve" smooth="yes"/>
      <point x="533" y="287" type="line" smooth="yes"/>
      <point x="533" y="322"/>
      <point x="532" y="340"/>
      <point x="476" y="396" type="curve" smooth="yes"/>
      <point x="394" y="482"/>
      <point x="249" y="575"/>
    </contour>
  </outline>
</glyph>
<glyph name="at" format="1">
  <advance width="600"/>
  <unicode hex="0040"/>
  <outline>
    <contour>
      <point x="442" y="530" type="curve" smooth="yes"/>
      <point x="429" y="544"/>
      <point x="419" y="552"/>
      <point x="380" y="552" type="curve" smooth="yes"/>
      <point x="368" y="552"/>
      <point x="347" y="548"/>
      <point x="319" y="520" type="curve" smooth="yes"/>
      <point x="288" y="489"/>
      <point x="285" y="410"/>
      <point x="306" y="367" type="curve"/>
      <point x="348" y="390"/>
      <point x="361" y="400"/>
      <point x="395" y="400" type="curve" smooth="yes"/>
      <point x="405" y="400"/>
      <point x="428" y="398"/>
      <point x="447" y="382" type="curve"/>
      <point x="468" y="434"/>
      <point x="466" y="507"/>
    </contour>
    <contour>
      <point x="495" y="256" type="curve"/>
      <point x="464" y="211"/>
      <point x="429" y="171"/>
      <point x="401" y="171" type="curve" smooth="yes"/>
      <point x="391" y="171"/>
      <point x="389" y="199"/>
      <point x="389" y="241" type="curve" smooth="yes"/>
      <point x="389" y="250" type="line" smooth="yes"/>
      <point x="389" y="413"/>
      <point x="396" y="456"/>
      <point x="425" y="513" type="curve"/>
      <point x="391" y="541"/>
      <point x="349" y="550"/>
      <point x="319" y="520" type="curve" smooth="yes"/>
      <point x="275" y="476"/>
      <point x="246" y="375"/>
      <point x="246" y="221" type="curve" smooth="yes"/>
      <point x="246" y="210" type="line" smooth="yes"/>
      <point x="246" y="74"/>
      <point x="287" y="7"/>
      <point x="357" y="7" type="curve" smooth="yes"/>
      <point x="419" y="7"/>
      <point x="449" y="32"/>
      <point x="484" y="89" type="curve" smooth="yes"/>
      <point x="508" y="122"/>
      <point x="517" y="187"/>
    </contour>
    <contour>
      <point x="566" y="12" type="line"/>
      <point x="562" y="54"/>
      <point x="560" y="102"/>
      <point x="560" y="124" type="curve"/>
      <point x="560" y="516" type="line" smooth="yes"/>
      <point x="560" y="672"/>
      <point x="483" y="760"/>
      <point x="340" y="760" type="curve" smooth="yes"/>
      <point x="292" y="760"/>
      <point x="299" y="695"/>
      <point x="299" y="666" type="curve"/>
      <point x="365" y="679"/>
      <point x="380" y="629"/>
      <point x="380" y="573" type="curve" smooth="yes"/>
      <point x="380" y="163" type="line" smooth="yes"/>
      <point x="380" y="90"/>
      <point x="446" y="12"/>
      <point x="545" y="12" type="curve" smooth="yes"/>
    </contour>
    <contour>
      <point x="42" y="226" type="curve" smooth="yes"/>
      <point x="42" y="209" type="line" smooth="yes"/>
      <point x="42" y="2"/>
      <point x="84" y="-83"/>
      <point x="134" y="-134" type="curve" smooth="yes"/>
      <point x="171" y="-170"/>
      <point x="232" y="-165"/>
      <point x="283" y="-112" type="curve"/>
      <point x="182" y="-22"/>
      <point x="174" y="47"/>
      <point x="174" y="213" type="curve" smooth="yes"/>
      <point x="174" y="224" type="line" smooth="yes"/>
      <point x="174" y="416"/>
      <point x="232" y="629"/>
      <point x="358" y="629" type="curve" smooth="yes"/>
      <point x="416" y="629"/>
      <point x="416" y="592"/>
      <point x="413" y="549" type="curve"/>
      <point x="459" y="570"/>
      <point x="480" y="604"/>
      <point x="480" y="643" type="curve" smooth="yes"/>
      <point x="480" y="725"/>
      <point x="434" y="760"/>
      <point x="340" y="760" type="curve" smooth="yes"/>
      <point x="158" y="760"/>
      <point x="42" y="527"/>
    </contour>
    <contour>
      <point x="321" y="-200" type="curve" smooth="yes"/>
      <point x="393" y="-200"/>
      <point x="434" y="-192"/>
      <point x="453" y="-173" type="curve" smooth="yes"/>
      <point x="475" y="-152"/>
      <point x="478" y="-108"/>
      <point x="478" y="-49" type="curve" smooth="yes"/>
      <point x="478" y="-31" type="line"/>
      <point x="474" y="-31" type="line"/>
      <point x="431" y="-51"/>
      <point x="394" y="-69"/>
      <point x="328" y="-69" type="curve" smooth="yes"/>
      <point x="250" y="-69"/>
      <point x="202" y="-33"/>
      <point x="144" y="26" type="curve"/>
      <point x="102" y="-8"/>
      <point x="87" y="-87"/>
      <point x="134" y="-134" type="curve"/>
      <point x="176" y="-176"/>
      <point x="242" y="-200"/>
    </contour>
  </outline>
</glyph>
<glyph name="D" format="1">
  <advance width="650"/>
  <unicode hex="0044"/>
  <outline>
    <contour>
      <point x="260" y="30" type="curve"/>
      <point x="260" y="442" type="line" smooth="yes"/>
      <point x="260" y="545"/>
      <point x="176" y="607"/>
      <point x="35" y="607" type="curve"/>
      <point x="35" y="95" type="line" smooth="yes"/>
      <point x="35" y="59"/>
      <point x="134" y="30"/>
    </contour>
    <contour>
      <point x="17" y="690" type="curve"/>
      <point x="10" y="665"/>
      <point x="5" y="630"/>
      <point x="5" y="580" type="curve"/>
      <point x="5" y="520"/>
      <point x="11" y="495"/>
      <point x="20" y="486" type="curve" smooth="yes"/>
      <point x="25" y="481"/>
      <point x="27" y="480"/>
      <point x="35" y="480" type="curve" smooth="yes"/>
      <point x="49" y="480"/>
      <point x="71" y="484"/>
      <point x="112" y="489" type="curve" smooth="yes"/>
      <point x="159" y="496"/>
      <point x="210" y="500"/>
      <point x="290" y="500" type="curve"/>
      <point x="385" y="500"/>
      <point x="421" y="494"/>
      <point x="473" y="469" type="curve"/>
      <point x="537" y="560"/>
      <point x="556" y="710"/>
      <point x="322" y="710" type="curve" smooth="yes"/>
      <point x="213" y="710"/>
      <point x="105" y="705"/>
    </contour>
    <contour>
      <point x="630" y="409" type="curve" smooth="yes"/>
      <point x="630" y="418" type="line" smooth="yes"/>
      <point x="630" y="557"/>
      <point x="560" y="710"/>
      <point x="322" y="710" type="curve" smooth="yes"/>
      <point x="290" y="710"/>
      <point x="257" y="695"/>
      <point x="248" y="604" type="curve"/>
      <point x="385" y="586"/>
      <point x="400" y="516"/>
      <point x="400" y="423" type="curve" smooth="yes"/>
      <point x="400" y="412" type="line" smooth="yes"/>
      <point x="400" y="262"/>
      <point x="344" y="195"/>
      <point x="281" y="195" type="curve" smooth="yes"/>
      <point x="216" y="195"/>
      <point x="151" y="204"/>
      <point x="94" y="218" type="curve"/>
      <point x="61" y="185"/>
      <point x="35" y="141"/>
      <point x="35" y="95" type="curve" smooth="yes"/>
      <point x="35" y="32"/>
      <point x="132" y="-10"/>
      <point x="244" y="-10" type="curve" smooth="yes"/>
      <point x="257" y="-10" type="line" smooth="yes"/>
      <point x="463" y="-10"/>
      <point x="630" y="129"/>
    </contour>
    <contour>
      <point x="317" y="711" type="move" name="top"/>
    </contour>
  </outline>
</glyph>
<glyph name="E" format="1">
  <advance width="550"/>
  <unicode hex="0045"/>
  <outline>
    <contour>
      <point x="11" y="700" type="line"/>
      <point x="7" y="672"/>
      <point x="5" y="643"/>
      <point x="5" y="615" type="curve" smooth="yes"/>
      <point x="5" y="550"/>
      <point x="9" y="517"/>
      <point x="18" y="508" type="curve" smooth="yes"/>
      <point x="25" y="501"/>
      <point x="28" y="500"/>
      <point x="35" y="500" type="curve" smooth="yes"/>
      <point x="524" y="500" type="line"/>
      <point x="529" y="528"/>
      <point x="530" y="542"/>
      <point x="530" y="565" type="curve" smooth="yes"/>
      <point x="530" y="614"/>
      <point x="518" y="656"/>
      <point x="498" y="676" type="curve" smooth="yes"/>
      <point x="479" y="695"/>
      <point x="466" y="700"/>
      <point x="435" y="700" type="curve" smooth="yes"/>
    </contour>
    <contour>
      <point x="260" y="135" type="curve"/>
      <point x="260" y="442" type="line" smooth="yes"/>
      <point x="260" y="535"/>
      <point x="161" y="607"/>
      <point x="35" y="607" type="curve"/>
      <point x="35" y="190" type="line"/>
      <point x="35" y="150"/>
      <point x="98" y="135"/>
    </contour>
    <contour>
      <point x="35" y="200" type="line"/>
      <point x="35" y="175" type="line" smooth="yes"/>
      <point x="35" y="89"/>
      <point x="81" y="0"/>
      <point x="125" y="0" type="curve" smooth="yes"/>
      <point x="521" y="0" type="line"/>
      <point x="527" y="21"/>
      <point x="530" y="43"/>
      <point x="530" y="65" type="curve" smooth="yes"/>
      <point x="530" y="155"/>
      <point x="500" y="200"/>
      <point x="440" y="200" type="curve" smooth="yes"/>
    </contour>
    <contour>
      <point x="149" y="415" type="line"/>
      <point x="149" y="314"/>
      <point x="166" y="265"/>
      <point x="200" y="265" type="curve" smooth="yes"/>
      <point x="441" y="265" type="line"/>
      <point x="447" y="281"/>
      <point x="450" y="302"/>
      <point x="450" y="320" type="curve" smooth="yes"/>
      <point x="450" y="352"/>
      <point x="441" y="378"/>
      <point x="425" y="394" type="curve" smooth="yes"/>
      <point x="408" y="411"/>
      <point x="398" y="415"/>
      <point x="369" y="415" type="curve" smooth="yes"/>
    </contour>
    <contour>
      <point x="267" y="711" type="move" name="top"/>
    </contour>
    <contour>
      <point x="522" y="0" type="move" name="ogonek"/>
    </contour>
    <contour>
      <point x="267" y="-1" type="move" name="bottom"/>
    </contour>
  </outline>
</glyph>
<glyph name="F" format="1">
  <advance width="550"/>
  <unicode hex="0046"/>
  <outline>
    <contour>
      <point x="288" y="-6" type="curve"/>
      <point x="282" y="31"/>
      <point x="280" y="65"/>
      <point x="280" y="96" type="curve" smooth="yes"/>
      <point x="280" y="432" type="line"/>
      <point x="280" y="548"/>
      <point x="182" y="597"/>
      <point x="55" y="597" type="curve"/>
      <point x="55" y="66" type="line" smooth="yes"/>
      <point x="55" y="17"/>
      <point x="122" y="-6"/>
      <point x="273" y="-6" type="curve" smooth="yes"/>
      <point x="278" y="-6"/>
      <point x="283" y="-6"/>
    </contour>
    <contour>
      <point x="11" y="700" type="line"/>
      <point x="7" y="672"/>
      <point x="5" y="643"/>
      <point x="5" y="615" type="curve" smooth="yes"/>
      <point x="5" y="557"/>
      <point x="8" y="508"/>
      <point x="18" y="498" type="curve" smooth="yes"/>
      <point x="24" y="492"/>
      <point x="27" y="490"/>
      <point x="35" y="490" type="curve"/>
      <point x="526" y="490" type="line"/>
      <point x="529" y="507"/>
      <point x="530" y="517"/>
      <point x="530" y="535" type="curve" smooth="yes"/>
      <point x="530" y="590"/>
      <point x="513" y="651"/>
      <point x="480" y="684" type="curve" smooth="yes"/>
      <point x="467" y="697"/>
      <point x="459" y="700"/>
      <point x="441" y="700" type="curve"/>
    </contour>
    <contour>
      <point x="149" y="375" type="line"/>
      <point x="149" y="217"/>
      <point x="154" y="175"/>
      <point x="200" y="175" type="curve"/>
      <point x="494" y="175" type="line"/>
      <point x="498" y="195"/>
      <point x="500" y="220"/>
      <point x="500" y="240" type="curve"/>
      <point x="500" y="272"/>
      <point x="492" y="327"/>
      <point x="460" y="359" type="curve" smooth="yes"/>
      <point x="447" y="372"/>
      <point x="439" y="375"/>
      <point x="419" y="375" type="curve"/>
    </contour>
  </outline>
</glyph>
<glyph name="I" format="1">
  <advance width="500"/>
  <unicode hex="0049"/>
  <outline>
    <contour>
      <point x="363" y="103" type="curve"/>
      <point x="363" y="432" type="line" smooth="yes"/>
      <point x="363" y="548"/>
      <point x="264" y="597"/>
      <point x="137" y="597" type="curve"/>
      <point x="137" y="275" type="line" smooth="yes"/>
      <point x="137" y="155"/>
      <point x="234" y="103"/>
    </contour>
    <contour>
      <point x="38" y="700" type="line"/>
      <point x="34" y="677"/>
      <point x="31" y="649"/>
      <point x="31" y="622" type="curve"/>
      <point x="31" y="588"/>
      <point x="38" y="535"/>
      <point x="59" y="514" type="curve" smooth="yes"/>
      <point x="76" y="497"/>
      <point x="91" y="490"/>
      <point x="139" y="490" type="curve" smooth="yes"/>
      <point x="459" y="490" type="line"/>
      <point x="465" y="509"/>
      <point x="469" y="539"/>
      <point x="469" y="568" type="curve" smooth="yes"/>
      <point x="469" y="641"/>
      <point x="461" y="700"/>
      <point x="407" y="700" type="curve" smooth="yes"/>
    </contour>
    <contour>
      <point x="38" y="210" type="line"/>
      <point x="34" y="187"/>
      <point x="31" y="159"/>
      <point x="31" y="132" type="curve"/>
      <point x="31" y="98"/>
      <point x="38" y="45"/>
      <point x="59" y="24" type="curve" smooth="yes"/>
      <point x="76" y="7"/>
      <point x="91" y="0"/>
      <point x="139" y="0" type="curve" smooth="yes"/>
      <point x="459" y="0" type="line"/>
      <point x="465" y="19"/>
      <point x="469" y="49"/>
      <point x="469" y="78" type="curve" smooth="yes"/>
      <point x="469" y="151"/>
      <point x="461" y="210"/>
      <point x="407" y="210" type="curve" smooth="yes"/>
    </contour>
    <contour>
      <point x="250" y="711" type="move" name="top"/>
    </contour>
    <contour>
      <point x="460" y="0" type="move" name="ogonek"/>
    </contour>
    <contour>
      <point x="250" y="-1" type="move" name="bottom"/>
    </contour>
  </outline>
</glyph>
<glyph name="J" format="1">
  <advance width="500"/>
  <unicode hex="004A"/>
  <outline>
    <contour>
      <point x="35" y="700" type="line"/>
      <point x="31" y="677"/>
      <point x="28" y="649"/>
      <point x="28" y="622" type="curve" smooth="yes"/>
      <point x="28" y="588"/>
      <point x="35" y="535"/>
      <point x="56" y="514" type="curve" smooth="yes"/>
      <point x="73" y="497"/>
      <point x="88" y="490"/>
      <point x="136" y="490" type="curve" smooth="yes"/>
      <point x="336" y="490" type="line"/>
      <point x="336" y="631"/>
      <point x="320" y="700"/>
      <point x="254" y="700" type="curve"/>
    </contour>
    <contour>
      <point x="464" y="220" type="curve" smooth="yes"/>
      <point x="464" y="629" type="line" smooth="yes"/>
      <point x="464" y="680"/>
      <point x="416" y="700"/>
      <point x="295" y="700" type="curve" smooth="yes"/>
      <point x="231" y="700" type="line"/>
      <point x="231" y="240" type="line" smooth="yes"/>
      <point x="231" y="139"/>
      <point x="221" y="95"/>
      <point x="181" y="27" type="curve"/>
      <point x="278" y="-12"/>
      <point x="464" y="66"/>
    </contour>
    <contour>
      <point x="210" y="195" type="curve" smooth="yes"/>
      <point x="131" y="195"/>
      <point x="96" y="205"/>
      <point x="31" y="234" type="curve"/>
      <point x="27" y="234" type="line"/>
      <point x="22" y="207"/>
      <point x="18" y="179"/>
      <point x="18" y="143" type="curve"/>
      <point x="18" y="66"/>
      <point x="29" y="42"/>
      <point x="52" y="19" type="curve" smooth="yes"/>
      <point x="82" y="-11"/>
      <point x="121" y="-20"/>
      <point x="220" y="-20" type="curve" smooth="yes"/>
      <point x="230" y="-20" type="line" smooth="yes"/>
      <point x="354" y="-20"/>
      <point x="464" y="106"/>
      <point x="464" y="220" type="curve"/>
      <point x="464" y="256"/>
      <point x="459" y="302"/>
      <point x="344" y="318" type="curve"/>
      <point x="344" y="250"/>
      <point x="303" y="195"/>
    </contour>
    <contour>
      <point x="251" y="711" type="move" name="top"/>
    </contour>
  </outline>
</glyph>
<glyph name="K" format="1">
  <advance width="600"/>
  <unicode hex="004B"/>
  <outline>
    <contour>
      <point x="23" y="700" type="curve"/>
      <point x="31" y="662"/>
      <point x="35" y="617"/>
      <point x="35" y="560" type="curve" smooth="yes"/>
      <point x="35" y="76" type="line" smooth="yes"/>
      <point x="35" y="9"/>
      <point x="62" y="-7"/>
      <point x="175" y="-7" type="curve" smooth="yes"/>
      <point x="205" y="-7"/>
      <point x="234" y="-5"/>
      <point x="260" y="0" type="curve"/>
      <point x="260" y="594" type="line" smooth="yes"/>
      <point x="260" y="641"/>
      <point x="253" y="668"/>
      <point x="237" y="684" type="curve" smooth="yes"/>
      <point x="218" y="703"/>
      <point x="186" y="710"/>
      <point x="120" y="710" type="curve" smooth="yes"/>
      <point x="86" y="710"/>
      <point x="54" y="707"/>
    </contour>
    <contour>
      <point x="377" y="710" type="curve"/>
      <point x="353" y="710" type="line"/>
      <point x="330" y="455"/>
      <point x="226" y="285"/>
      <point x="69" y="217" type="curve"/>
      <point x="69" y="170"/>
      <point x="139" y="140"/>
      <point x="191" y="149" type="curve"/>
      <point x="301" y="167"/>
      <point x="469" y="309"/>
      <point x="538" y="483" type="curve" smooth="yes"/>
      <point x="572" y="566"/>
      <point x="578" y="601"/>
      <point x="578" y="642" type="curve" smooth="yes"/>
      <point x="578" y="689"/>
      <point x="501" y="710"/>
    </contour>
    <contour>
      <point x="427" y="364" type="line"/>
      <point x="271" y="308"/>
      <point x="252" y="256"/>
      <point x="281" y="203" type="curve" smooth="yes"/>
      <point x="346" y="82" type="line" smooth="yes"/>
      <point x="384" y="12"/>
      <point x="427" y="-20"/>
      <point x="482" y="-20" type="curve" smooth="yes"/>
      <point x="486" y="-20" type="line" smooth="yes"/>
      <point x="550" y="-20"/>
      <point x="582" y="37"/>
      <point x="582" y="122" type="curve" smooth="yes"/>
      <point x="582" y="154"/>
      <point x="580" y="177"/>
      <point x="574" y="210" type="curve"/>
      <point x="570" y="210" type="line"/>
      <point x="561" y="204"/>
      <point x="554" y="200"/>
      <point x="543" y="200" type="curve" smooth="yes"/>
      <point x="525" y="200"/>
      <point x="511" y="206"/>
      <point x="502" y="222" type="curve" smooth="yes"/>
    </contour>
    <contour>
      <point x="302" y="-1" type="move" name="bottom"/>
    </contour>
  </outline>
</glyph>
<glyph name="M" format="1">
  <advance width="800"/>
  <unicode hex="004D"/>
  <outline>
    <contour>
      <point x="241" y="-2" type="curve"/>
      <point x="234" y="67"/>
      <point x="231" y="135"/>
      <point x="231" y="203" type="curve" smooth="yes"/>
      <point x="231" y="345"/>
      <point x="247" y="485"/>
      <point x="275" y="629" type="curve" smooth="yes"/>
      <point x="280" y="654"/>
      <point x="273" y="677"/>
      <point x="262" y="688" type="curve" smooth="yes"/>
      <point x="242" y="708"/>
      <point x="200" y="710"/>
      <point x="124" y="710" type="curve" smooth="yes"/>
      <point x="99" y="710"/>
      <point x="80" y="708"/>
      <point x="57" y="703" type="curve"/>
      <point x="66" y="667"/>
      <point x="69" y="633"/>
      <point x="64" y="593" type="curve" smooth="yes"/>
      <point x="44" y="414"/>
      <point x="24" y="234"/>
      <point x="24" y="57" type="curve" smooth="yes"/>
      <point x="24" y="41"/>
      <point x="29" y="28"/>
      <point x="39" y="18" type="curve" smooth="yes"/>
      <point x="58" y="-1"/>
      <point x="94" y="-10"/>
      <point x="147" y="-10" type="curve" smooth="yes"/>
      <point x="180" y="-10"/>
      <point x="212" y="-7"/>
    </contour>
    <contour>
      <point x="785" y="-3" type="curve"/>
      <point x="776" y="33"/>
      <point x="772" y="70"/>
      <point x="772" y="110" type="curve" smooth="yes"/>
      <point x="772" y="300"/>
      <point x="756" y="450"/>
      <point x="724" y="643" type="curve"/>
      <point x="722" y="655"/>
      <point x="715" y="667"/>
      <point x="707" y="675" type="curve" smooth="yes"/>
      <point x="679" y="703"/>
      <point x="615" y="710"/>
      <point x="529" y="710" type="curve" smooth="yes"/>
      <point x="520" y="710" type="line"/>
      <point x="524" y="691"/>
      <point x="527" y="671"/>
      <point x="530" y="651" type="curve"/>
      <point x="556" y="469"/>
      <point x="568" y="360"/>
      <point x="568" y="240" type="curve" smooth="yes"/>
      <point x="568" y="185"/>
      <point x="566" y="128"/>
      <point x="561" y="60" type="curve" smooth="yes"/>
      <point x="560" y="35"/>
      <point x="565" y="23"/>
      <point x="576" y="12" type="curve" smooth="yes"/>
      <point x="596" y="-8"/>
      <point x="644" y="-10"/>
      <point x="718" y="-10" type="curve" smooth="yes"/>
      <point x="743" y="-10"/>
      <point x="762" y="-8"/>
    </contour>
    <contour>
      <point x="343" y="659" type="curve" smooth="yes"/>
      <point x="338" y="698"/>
      <point x="261" y="710"/>
      <point x="130" y="710" type="curve"/>
      <point x="124" y="710" type="line"/>
      <point x="182" y="685"/>
      <point x="217" y="634"/>
      <point x="220" y="598" type="curve" smooth="yes"/>
      <point x="247" y="303"/>
      <point x="315" y="153"/>
      <point x="342" y="126" type="curve"/>
      <point x="363" y="105"/>
      <point x="372" y="100"/>
      <point x="399" y="100" type="curve" smooth="yes"/>
      <point x="423" y="100"/>
      <point x="458" y="172"/>
      <point x="458" y="280" type="curve"/>
      <point x="398" y="359"/>
      <point x="365" y="469"/>
    </contour>
    <contour>
      <point x="471" y="704" type="curve"/>
      <point x="444" y="502"/>
      <point x="407" y="364"/>
      <point x="358" y="314" type="curve"/>
      <point x="310" y="265"/>
      <point x="357" y="100"/>
      <point x="399" y="100" type="curve"/>
      <point x="443" y="100" type="line"/>
      <point x="524" y="217"/>
      <point x="592" y="534"/>
      <point x="592" y="657" type="curve" smooth="yes"/>
      <point x="592" y="686"/>
      <point x="578" y="710"/>
      <point x="520" y="710" type="curve" smooth="yes"/>
      <point x="501" y="710"/>
      <point x="493" y="708"/>
    </contour>
  </outline>
</glyph>
<glyph name="O" format="1">
  <advance width="650"/>
  <unicode hex="004F"/>
  <outline>
    <contour>
      <point x="327" y="720" type="curve" smooth="yes"/>
      <point x="131" y="720"/>
      <point x="20" y="581"/>
      <point x="20" y="360" type="curve" smooth="yes"/>
      <point x="20" y="340" type="line" smooth="yes"/>
      <point x="20" y="104"/>
      <point x="111" y="-20"/>
      <point x="323" y="-20" type="curve" smooth="yes"/>
      <point x="356" y="-20"/>
      <point x="380" y="50"/>
      <point x="380" y="146" type="curve"/>
      <point x="284" y="146"/>
      <point x="248" y="181"/>
      <point x="248" y="347" type="curve" smooth="yes"/>
      <point x="248" y="360" type="line" smooth="yes"/>
      <point x="248" y="462"/>
      <point x="277" y="510"/>
      <point x="333" y="510" type="curve" smooth="yes"/>
      <point x="389" y="510"/>
      <point x="418" y="499"/>
      <point x="457" y="462" type="curve"/>
      <point x="529" y="586"/>
      <point x="443" y="720"/>
    </contour>
    <contour>
      <point x="323" y="-20" type="curve" smooth="yes"/>
      <point x="519" y="-20"/>
      <point x="630" y="120"/>
      <point x="630" y="340" type="curve" smooth="yes"/>
      <point x="630" y="360" type="line" smooth="yes"/>
      <point x="630" y="597"/>
      <point x="539" y="720"/>
      <point x="327" y="720" type="curve" smooth="yes"/>
      <point x="294" y="720"/>
      <point x="270" y="650"/>
      <point x="270" y="554" type="curve"/>
      <point x="366" y="554"/>
      <point x="402" y="524"/>
      <point x="402" y="373" type="curve" smooth="yes"/>
      <point x="402" y="360" type="line" smooth="yes"/>
      <point x="402" y="244"/>
      <point x="374" y="190"/>
      <point x="317" y="190" type="curve" smooth="yes"/>
      <point x="261" y="190"/>
      <point x="232" y="201"/>
      <point x="193" y="238" type="curve"/>
      <point x="138" y="143"/>
      <point x="200" y="-20"/>
    </contour>
    <contour>
      <point x="325" y="711" type="move" name="top"/>
    </contour>
    <contour>
      <point x="452" y="9" type="move" name="ogonek"/>
    </contour>
    <contour>
      <point x="325" y="-1" type="move" name="bottom"/>
    </contour>
  </outline>
</glyph>
<glyph name="Q" format="1">
  <advance width="650"/>
  <unicode hex="0051"/>
  <outline>
    <contour>
      <point x="327" y="720" type="curve" smooth="yes"/>
      <point x="131" y="720"/>
      <point x="20" y="581"/>
      <point x="20" y="360" type="curve" smooth="yes"/>
      <point x="20" y="340" type="line" smooth="yes"/>
      <point x="20" y="104"/>
      <point x="111" y="-20"/>
      <point x="323" y="-20" type="curve" smooth="yes"/>
      <point x="356" y="-20"/>
      <point x="380" y="50"/>
      <point x="380" y="146" type="curve"/>
      <point x="284" y="146"/>
      <point x="248" y="181"/>
      <point x="248" y="347" type="curve" smooth="yes"/>
      <point x="248" y="360" type="line" smooth="yes"/>
      <point x="248" y="462"/>
      <point x="277" y="510"/>
      <point x="333" y="510" type="curve" smooth="yes"/>
      <point x="389" y="510"/>
      <point x="418" y="499"/>
      <point x="457" y="462" type="curve"/>
      <point x="529" y="586"/>
      <point x="443" y="720"/>
    </contour>
    <contour>
      <point x="323" y="-20" type="curve" smooth="yes"/>
      <point x="519" y="-20"/>
      <point x="630" y="120"/>
      <point x="630" y="340" type="curve" smooth="yes"/>
      <point x="630" y="360" type="line" smooth="yes"/>
      <point x="630" y="597"/>
      <point x="539" y="720"/>
      <point x="327" y="720" type="curve" smooth="yes"/>
      <point x="294" y="720"/>
      <point x="270" y="650"/>
      <point x="270" y="554" type="curve"/>
      <point x="366" y="554"/>
      <point x="402" y="524"/>
      <point x="402" y="373" type="curve" smooth="yes"/>
      <point x="402" y="360" type="line" smooth="yes"/>
      <point x="402" y="244"/>
      <point x="374" y="190"/>
      <point x="317" y="190" type="curve" smooth="yes"/>
      <point x="261" y="190"/>
      <point x="232" y="201"/>
      <point x="193" y="238" type="curve"/>
      <point x="138" y="143"/>
      <point x="200" y="-20"/>
    </contour>
    <contour>
      <point x="477" y="148" type="line"/>
      <point x="349" y="53"/>
      <point x="338" y="41"/>
      <point x="349" y="15" type="curve" smooth="yes"/>
      <point x="405" y="-116" type="line" smooth="yes"/>
      <point x="435" y="-186"/>
      <point x="480" y="-220"/>
      <point x="535" y="-220" type="curve" smooth="yes"/>
      <point x="539" y="-220" type="line" smooth="yes"/>
      <point x="597" y="-220"/>
      <point x="633" y="-182"/>
      <point x="633" y="-87" type="curve" smooth="yes"/>
      <point x="633" y="-45"/>
      <point x="631" y="-18"/>
      <point x="624" y="13" type="curve"/>
      <point x="620" y="13" type="line"/>
      <point x="610" y="5"/>
      <point x="599" y="0"/>
      <point x="585" y="0" type="curve" smooth="yes"/>
      <point x="569" y="0"/>
      <point x="558" y="6"/>
      <point x="551" y="19" type="curve" smooth="yes"/>
    </contour>
  </outline>
</glyph>
<glyph name="V" format="1">
  <advance width="650"/>
  <unicode hex="0056"/>
  <outline>
    <contour>
      <point x="44" y="710" type="curve"/>
      <point x="20" y="710" type="line"/>
      <point x="32" y="320"/>
      <point x="74" y="152"/>
      <point x="189" y="37" type="curve"/>
      <point x="221" y="5"/>
      <point x="264" y="-10"/>
      <point x="326" y="-10" type="curve"/>
      <point x="372" y="-10"/>
      <point x="428" y="36"/>
      <point x="445" y="88" type="curve"/>
      <point x="438" y="88"/>
      <point x="435" y="88"/>
      <point x="428" y="88" type="curve" smooth="yes"/>
      <point x="418" y="88"/>
      <point x="411" y="90"/>
      <point x="403" y="97" type="curve"/>
      <point x="297" y="180"/>
      <point x="264" y="297"/>
      <point x="250" y="643" type="curve"/>
      <point x="248" y="684"/>
      <point x="168" y="710"/>
    </contour>
    <contour>
      <point x="432" y="710" type="curve"/>
      <point x="408" y="710" type="line"/>
      <point x="400" y="334"/>
      <point x="372" y="220"/>
      <point x="265" y="131" type="curve"/>
      <point x="228" y="100"/>
      <point x="276" y="-10"/>
      <point x="326" y="-10" type="curve"/>
      <point x="415" y="-10" type="line"/>
      <point x="560" y="112"/>
      <point x="622" y="298"/>
      <point x="630" y="636" type="curve"/>
      <point x="631" y="672"/>
      <point x="530" y="710"/>
    </contour>
  </outline>
</glyph>
<glyph name="W" format="1">
  <advance width="900"/>
  <unicode hex="0057"/>
  <outline>
    <contour>
      <point x="28" y="701" type="curve"/>
      <point x="28" y="307"/>
      <point x="73" y="136"/>
      <point x="197" y="12" type="curve"/>
      <point x="216" y="-7"/>
      <point x="253" y="-10"/>
      <point x="285" y="-10" type="curve"/>
      <point x="288" y="-10" type="line" smooth="yes"/>
      <point x="312" y="-10"/>
      <point x="355" y="83"/>
      <point x="355" y="119" type="curve"/>
      <point x="264" y="204"/>
      <point x="245" y="377"/>
      <point x="245" y="656" type="curve"/>
      <point x="245" y="665"/>
      <point x="243" y="669"/>
      <point x="236" y="678" type="curve" smooth="yes"/>
      <point x="216" y="702"/>
      <point x="169" y="710"/>
      <point x="96" y="710" type="curve"/>
      <point x="73" y="710"/>
      <point x="53" y="707"/>
    </contour>
    <contour>
      <point x="658" y="701" type="curve"/>
      <point x="658" y="316"/>
      <point x="626" y="197"/>
      <point x="552" y="122" type="curve"/>
      <point x="554" y="70"/>
      <point x="576" y="-10"/>
      <point x="626" y="-10" type="curve"/>
      <point x="686" y="-10" type="line"/>
      <point x="829" y="134"/>
      <point x="872" y="321"/>
      <point x="872" y="646" type="curve" smooth="yes"/>
      <point x="872" y="662"/>
      <point x="869" y="668"/>
      <point x="863" y="674" type="curve" smooth="yes"/>
      <point x="836" y="701"/>
      <point x="792" y="710"/>
      <point x="744" y="710" type="curve"/>
      <point x="716" y="710"/>
      <point x="687" y="708"/>
    </contour>
    <contour>
      <point x="397" y="630" type="curve"/>
      <point x="353" y="630" type="line"/>
      <point x="353" y="341"/>
      <point x="329" y="203"/>
      <point x="221" y="55" type="curve"/>
      <point x="222" y="18"/>
      <point x="243" y="-10"/>
      <point x="285" y="-10" type="curve"/>
      <point x="330" y="-10" type="line"/>
      <point x="418" y="70"/>
      <point x="491" y="323"/>
      <point x="491" y="580" type="curve" smooth="yes"/>
      <point x="491" y="613"/>
      <point x="431" y="630"/>
    </contour>
    <contour>
      <point x="395" y="630" type="curve"/>
      <point x="390" y="630" type="line"/>
      <point x="390" y="347"/>
      <point x="495" y="73"/>
      <point x="550" y="14" type="curve" smooth="yes"/>
      <point x="568" y="-5"/>
      <point x="595" y="-10"/>
      <point x="621" y="-10" type="curve"/>
      <point x="631" y="-10" type="line"/>
      <point x="668" y="-10"/>
      <point x="685" y="24"/>
      <point x="685" y="50" type="curve"/>
      <point x="585" y="168"/>
      <point x="550" y="354"/>
      <point x="550" y="570" type="curve" smooth="yes"/>
      <point x="550" y="600"/>
      <point x="493" y="630"/>
    </contour>
    <contour>
      <point x="450" y="711" type="move" name="top"/>
    </contour>
  </outline>
</glyph>
<glyph name="X" format="1">
  <advance width="650"/>
  <unicode hex="0058"/>
  <outline>
    <contour>
      <point x="570" y="-10" type="curve" smooth="yes"/>
      <point x="599" y="-10"/>
      <point x="619" y="-7"/>
      <point x="639" y="0" type="curve"/>
      <point x="566" y="85"/>
      <point x="479" y="205"/>
      <point x="406" y="334" type="curve" smooth="yes"/>
      <point x="396" y="353"/>
      <point x="373" y="373"/>
      <point x="363" y="390" type="curve" smooth="yes"/>
      <point x="309" y="484"/>
      <point x="283" y="549"/>
      <point x="257" y="646" type="curve" smooth="yes"/>
      <point x="246" y="688"/>
      <point x="189" y="710"/>
      <point x="31" y="710" type="curve" smooth="yes"/>
      <point x="7" y="710" type="line"/>
      <point x="46" y="573"/>
      <point x="120" y="421"/>
      <point x="218" y="278" type="curve" smooth="yes"/>
      <point x="230" y="259"/>
      <point x="253" y="232"/>
      <point x="264" y="214" type="curve" smooth="yes"/>
      <point x="313" y="135"/>
      <point x="356" y="79"/>
      <point x="401" y="34" type="curve" smooth="yes"/>
      <point x="435" y="2"/>
      <point x="485" y="-10"/>
    </contour>
    <contour>
      <point x="456" y="710" type="curve" smooth="yes"/>
      <point x="432" y="710" type="line"/>
      <point x="419" y="552"/>
      <point x="377" y="444"/>
      <point x="320" y="376" type="curve"/>
      <point x="274" y="321"/>
      <point x="334" y="275"/>
      <point x="436" y="245" type="curve"/>
      <point x="552" y="385"/>
      <point x="591" y="474"/>
      <point x="634" y="639" type="curve"/>
      <point x="638" y="655"/>
      <point x="637" y="666"/>
      <point x="626" y="677" type="curve" smooth="yes"/>
      <point x="600" y="703"/>
      <point x="545" y="710"/>
    </contour>
    <contour>
      <point x="183" y="-10" type="curve"/>
      <point x="207" y="-10" type="line"/>
      <point x="233" y="93"/>
      <point x="273" y="176"/>
      <point x="331" y="237" type="curve"/>
      <point x="373" y="283"/>
      <point x="342" y="358"/>
      <point x="235" y="393" type="curve"/>
      <point x="120" y="287"/>
      <point x="56" y="183"/>
      <point x="14" y="62" type="curve" smooth="yes"/>
      <point x="9" y="45"/>
      <point x="10" y="34"/>
      <point x="23" y="21" type="curve" smooth="yes"/>
      <point x="47" y="-3"/>
      <point x="118" y="-10"/>
    </contour>
  </outline>
</glyph>
<glyph name="bracketright" format="1">
  <advance width="600"/>
  <unicode hex="005D"/>
  <outline>
    <contour>
      <point x="444" y="-35" type="curve" smooth="yes"/>
      <point x="444" y="552" type="line" smooth="yes"/>
      <point x="444" y="634"/>
      <point x="317" y="649"/>
      <point x="220" y="649" type="curve"/>
      <point x="220" y="-72" type="line" smooth="yes"/>
      <point x="220" y="-159"/>
      <point x="247" y="-161"/>
      <point x="349" y="-161" type="curve" smooth="yes"/>
      <point x="392" y="-161"/>
      <point x="422" y="-158"/>
      <point x="461" y="-151" type="curve"/>
      <point x="450" y="-114"/>
      <point x="444" y="-77"/>
    </contour>
    <contour>
      <point x="83" y="51" type="line"/>
      <point x="76" y="22"/>
      <point x="74" y="5"/>
      <point x="74" y="-26" type="curve" smooth="yes"/>
      <point x="74" y="-82"/>
      <point x="87" y="-125"/>
      <point x="105" y="-143" type="curve" smooth="yes"/>
      <point x="119" y="-157"/>
      <point x="131" y="-161"/>
      <point x="158" y="-161" type="curve" smooth="yes"/>
      <point x="349" y="-161" type="line"/>
      <point x="349" y="-10"/>
      <point x="280" y="51"/>
      <point x="92" y="51" type="curve"/>
    </contour>
    <contour>
      <point x="80" y="760" type="line"/>
      <point x="73" y="737"/>
      <point x="70" y="707"/>
      <point x="70" y="672" type="curve" smooth="yes"/>
      <point x="70" y="582"/>
      <point x="94" y="547"/>
      <point x="156" y="547" type="curve" smooth="yes"/>
      <point x="444" y="547" type="line"/>
      <point x="444" y="581" type="line" smooth="yes"/>
      <point x="444" y="660"/>
      <point x="373" y="760"/>
      <point x="318" y="760" type="curve" smooth="yes"/>
    </contour>
  </outline>
</glyph>
<glyph name="c" format="1">
  <advance width="500"/>
  <unicode hex="0063"/>
  <outline>
    <contour>
      <point x="318" y="564" type="curve" smooth="yes"/>
      <point x="124" y="564"/>
      <point x="15" y="446"/>
      <point x="15" y="269" type="curve" smooth="yes"/>
      <point x="15" y="259" type="line" smooth="yes"/>
      <point x="15" y="93"/>
      <point x="113" y="-14"/>
      <point x="285" y="-14" type="curve" smooth="yes"/>
      <point x="302" y="-14"/>
      <point x="360" y="-2"/>
      <point x="363" y="58" type="curve"/>
      <point x="244" y="115"/>
      <point x="227" y="179"/>
      <point x="227" y="258" type="curve" smooth="yes"/>
      <point x="227" y="266" type="line" smooth="yes"/>
      <point x="227" y="341"/>
      <point x="256" y="378"/>
      <point x="322" y="378" type="curve" smooth="yes"/>
      <point x="373" y="378"/>
      <point x="411" y="368"/>
      <point x="468" y="332" type="curve"/>
      <point x="472" y="332" type="line"/>
      <point x="482" y="360"/>
      <point x="486" y="392"/>
      <point x="486" y="419" type="curve"/>
      <point x="486" y="471"/>
      <point x="476" y="505"/>
      <point x="454" y="527" type="curve" smooth="yes"/>
      <point x="426" y="555"/>
      <point x="387" y="564"/>
    </contour>
    <contour>
      <point x="285" y="-14" type="curve" smooth="yes"/>
      <point x="371" y="-14"/>
      <point x="424" y="-2"/>
      <point x="450" y="24" type="curve" smooth="yes"/>
      <point x="474" y="48"/>
      <point x="485" y="82"/>
      <point x="485" y="135" type="curve"/>
      <point x="485" y="162"/>
      <point x="481" y="193"/>
      <point x="474" y="221" type="curve"/>
      <point x="470" y="221" type="line"/>
      <point x="411" y="189"/>
      <point x="373" y="180"/>
      <point x="306" y="180" type="curve" smooth="yes"/>
      <point x="235" y="180"/>
      <point x="177" y="200"/>
      <point x="96" y="251" type="curve"/>
      <point x="24" y="132"/>
      <point x="128" y="-14"/>
    </contour>
    <contour>
      <point x="280" y="561" type="move" name="top"/>
    </contour>
    <contour>
      <point x="280" y="-1" type="move" name="bottom"/>
    </contour>
  </outline>
</glyph>
<glyph name="f" format="1">
  <advance width="400"/>
  <unicode hex="0066"/>
  <outline>
    <contour>
      <point x="299" y="0" type="curve"/>
      <point x="290" y="42"/>
      <point x="287" y="90"/>
      <point x="287" y="140" type="curve" smooth="yes"/>
      <point x="287" y="500" type="line" smooth="yes"/>
      <point x="265" y="538"/>
      <point x="258" y="577"/>
      <point x="258" y="622" type="curve" smooth="yes"/>
      <point x="258" y="652"/>
      <point x="269" y="682"/>
      <point x="312" y="708" type="curve"/>
      <point x="312" y="749"/>
      <point x="299" y="770"/>
      <point x="277" y="770" type="curve" smooth="yes"/>
      <point x="155" y="770"/>
      <point x="67" y="659"/>
      <point x="67" y="552" type="curve" smooth="yes"/>
      <point x="67" y="51" type="line" smooth="yes"/>
      <point x="67" y="9"/>
      <point x="102" y="-10"/>
      <point x="202" y="-10" type="curve" smooth="yes"/>
      <point x="230" y="-10"/>
      <point x="262" y="-8"/>
    </contour>
    <contour>
      <point x="135" y="542" type="curve"/>
      <point x="175" y="560"/>
      <point x="231" y="570"/>
      <point x="267" y="570" type="curve" smooth="yes"/>
      <point x="312" y="570"/>
      <point x="336" y="566"/>
      <point x="374" y="553" type="curve"/>
      <point x="378" y="553" type="line"/>
      <point x="384" y="584"/>
      <point x="385" y="604"/>
      <point x="385" y="637" type="curve"/>
      <point x="385" y="695"/>
      <point x="374" y="728"/>
      <point x="354" y="748" type="curve" smooth="yes"/>
      <point x="339" y="763"/>
      <point x="320" y="770"/>
      <point x="277" y="770" type="curve" smooth="yes"/>
      <point x="197" y="770"/>
      <point x="92" y="662"/>
    </contour>
    <contour>
      <point x="0" y="500" type="curve"/>
      <point x="0" y="494"/>
      <point x="0" y="488"/>
      <point x="0" y="481" type="curve" smooth="yes"/>
      <point x="0" y="404"/>
      <point x="3" y="356"/>
      <point x="27" y="332" type="curve" smooth="yes"/>
      <point x="49" y="310"/>
      <point x="69" y="300"/>
      <point x="136" y="300" type="curve" smooth="yes"/>
      <point x="318" y="300"/>
      <point x="233" y="300"/>
      <point x="383" y="300" type="curve"/>
      <point x="388" y="320"/>
      <point x="390" y="346"/>
      <point x="390" y="373" type="curve" smooth="yes"/>
      <point x="390" y="470"/>
      <point x="373" y="500"/>
      <point x="317" y="500" type="curve" smooth="yes"/>
      <point x="246" y="500"/>
      <point x="174" y="500"/>
    </contour>
  </outline>
</glyph>
<glyph name="g" format="1">
  <advance width="600"/>
  <unicode hex="0067"/>
  <outline>
    <contour>
      <point x="300" y="406" type="curve" smooth="yes"/>
      <point x="436" y="406"/>
      <point x="504" y="374"/>
      <point x="550" y="374" type="curve" smooth="yes"/>
      <point x="579" y="374"/>
      <point x="590" y="424"/>
      <point x="590" y="477" type="curve" smooth="yes"/>
      <point x="590" y="506"/>
      <point x="588" y="524"/>
      <point x="583" y="550" type="curve"/>
      <point x="517" y="562"/>
      <point x="428" y="570"/>
      <point x="338" y="570" type="curve" smooth="yes"/>
      <point x="144" y="570"/>
      <point x="27" y="489"/>
      <point x="27" y="359" type="curve" smooth="yes"/>
      <point x="27" y="353" type="line" smooth="yes"/>
      <point x="27" y="233"/>
      <point x="136" y="155"/>
      <point x="301" y="155" type="curve"/>
      <point x="343" y="155"/>
      <point x="369" y="174"/>
      <point x="369" y="222" type="curve"/>
      <point x="268" y="246"/>
      <point x="227" y="293"/>
      <point x="227" y="351" type="curve" smooth="yes"/>
      <point x="227" y="357" type="line" smooth="yes"/>
      <point x="227" y="391"/>
      <point x="245" y="406"/>
    </contour>
    <contour>
      <point x="273" y="309" type="curve" smooth="yes"/>
      <point x="230" y="309"/>
      <point x="203" y="320"/>
      <point x="165" y="343" type="curve"/>
      <point x="95" y="250"/>
      <point x="190" y="155"/>
      <point x="301" y="155" type="curve" smooth="yes"/>
      <point x="431" y="155"/>
      <point x="524" y="206"/>
      <point x="524" y="290" type="curve" smooth="yes"/>
      <point x="524" y="300" type="line" smooth="yes"/>
      <point x="524" y="370"/>
      <point x="419" y="438"/>
      <point x="328" y="438" type="curve" smooth="yes"/>
      <point x="306" y="438"/>
      <point x="290" y="434"/>
      <point x="290" y="423" type="curve"/>
      <point x="327" y="414"/>
      <point x="342" y="394"/>
      <point x="342" y="366" type="curve" smooth="yes"/>
      <point x="342" y="360" type="line" smooth="yes"/>
      <point x="342" y="325"/>
      <point x="325" y="309"/>
    </contour>
    <contour>
      <point x="106" y="69" type="curve" smooth="yes"/>
      <point x="106" y="65" type="line" smooth="yes"/>
      <point x="106" y="-5"/>
      <point x="167" y="-55"/>
      <point x="249" y="-55" type="curve" smooth="yes"/>
      <point x="351" y="-55" type="line" smooth="yes"/>
      <point x="365" y="-55"/>
      <point x="374" y="-61"/>
      <point x="374" y="-75" type="curve" smooth="yes"/>
      <point x="374" y="-78" type="line" smooth="yes"/>
      <point x="374" y="-132"/>
      <point x="326" y="-181"/>
      <point x="184" y="-181" type="curve"/>
      <point x="184" y="-236"/>
      <point x="221" y="-250"/>
      <point x="247" y="-250" type="curve" smooth="yes"/>
      <point x="422" y="-250"/>
      <point x="585" y="-201"/>
      <point x="585" y="-39" type="curve" smooth="yes"/>
      <point x="585" y="-35" type="line" smooth="yes"/>
      <point x="585" y="46"/>
      <point x="509" y="102"/>
      <point x="407" y="102" type="curve" smooth="yes"/>
      <point x="311" y="102" type="line" smooth="yes"/>
      <point x="275" y="102"/>
      <point x="268" y="118"/>
      <point x="268" y="137" type="curve" smooth="yes"/>
      <point x="268" y="140" type="line" smooth="yes"/>
      <point x="268" y="156"/>
      <point x="273" y="165"/>
      <point x="291" y="180" type="curve"/>
      <point x="274" y="189"/>
      <point x="255" y="188"/>
      <point x="239" y="188" type="curve" smooth="yes"/>
      <point x="177" y="188"/>
      <point x="106" y="138"/>
    </contour>
    <contour>
      <point x="497" y="-54" type="curve"/>
      <point x="424" y="-105"/>
      <point x="374" y="-120"/>
      <point x="292" y="-120" type="curve" smooth="yes"/>
      <point x="279" y="-120" type="line" smooth="yes"/>
      <point x="240" y="-120"/>
      <point x="226" y="-110"/>
      <point x="226" y="-85" type="curve" smooth="yes"/>
      <point x="226" y="-79" type="line" smooth="yes"/>
      <point x="226" y="-55"/>
      <point x="237" y="-38"/>
      <point x="262" y="-21" type="curve"/>
      <point x="262" y="-6"/>
      <point x="225" y="4"/>
      <point x="185" y="4" type="curve" smooth="yes"/>
      <point x="77" y="4"/>
      <point x="15" y="-42"/>
      <point x="15" y="-108" type="curve" smooth="yes"/>
      <point x="15" y="-116" type="line" smooth="yes"/>
      <point x="15" y="-195"/>
      <point x="107" y="-250"/>
      <point x="235" y="-250" type="curve" smooth="yes"/>
      <point x="247" y="-250" type="line" smooth="yes"/>
      <point x="466" y="-250"/>
      <point x="520" y="-103"/>
    </contour>
  </outline>
</glyph>
<glyph name="i" format="1">
  <advance width="350"/>
  <unicode hex="0069"/>
  <outline>
    <contour>
      <point x="31" y="556" type="curve"/>
      <point x="22" y="528"/>
      <point x="20" y="503"/>
      <point x="20" y="469" type="curve" smooth="yes"/>
      <point x="20" y="389"/>
      <point x="42" y="328"/>
      <point x="63" y="328" type="curve" smooth="yes"/>
      <point x="86" y="328"/>
      <point x="96" y="336"/>
      <point x="138" y="336" type="curve"/>
      <point x="138" y="420"/>
      <point x="134" y="560"/>
      <point x="80" y="560" type="curve" smooth="yes"/>
      <point x="64" y="560"/>
      <point x="49" y="559"/>
    </contour>
    <contour>
      <point x="316" y="-5" type="curve"/>
      <point x="307" y="40"/>
      <point x="304" y="90"/>
      <point x="304" y="140" type="curve" smooth="yes"/>
      <point x="304" y="485" type="line" smooth="yes"/>
      <point x="304" y="539"/>
      <point x="245" y="560"/>
      <point x="92" y="560" type="curve" smooth="yes"/>
      <point x="80" y="560" type="line"/>
      <point x="80" y="51" type="line" smooth="yes"/>
      <point x="80" y="9"/>
      <point x="116" y="-10"/>
      <point x="220" y="-10" type="curve" smooth="yes"/>
      <point x="248" y="-10"/>
      <point x="280" y="-9"/>
    </contour>
    <contour>
      <point x="312" y="622" type="curve"/>
      <point x="312" y="718" type="line" smooth="yes"/>
      <point x="312" y="778"/>
      <point x="258" y="787"/>
      <point x="187" y="787" type="curve" smooth="yes"/>
      <point x="152" y="787"/>
      <point x="107" y="783"/>
      <point x="69" y="777" type="curve"/>
      <point x="69" y="681" type="line" smooth="yes"/>
      <point x="69" y="621"/>
      <point x="123" y="612"/>
      <point x="194" y="612" type="curve" smooth="yes"/>
      <point x="229" y="612"/>
      <point x="274" y="616"/>
    </contour>
    <contour>
      <point x="317" y="-5" type="move" name="ogonek"/>
    </contour>
    <contour>
      <point x="198" y="-1" type="move" name="bottom"/>
    </contour>
  </outline>
</glyph>
<glyph name="j" format="1">
  <advance width="350"/>
  <unicode hex="006A"/>
  <outline>
    <contour>
      <point x="31" y="556" type="curve"/>
      <point x="22" y="528"/>
      <point x="20" y="503"/>
      <point x="20" y="469" type="curve" smooth="yes"/>
      <point x="20" y="389"/>
      <point x="42" y="328"/>
      <point x="63" y="328" type="curve" smooth="yes"/>
      <point x="86" y="328"/>
      <point x="96" y="336"/>
      <point x="138" y="336" type="curve"/>
      <point x="138" y="420"/>
      <point x="134" y="560"/>
      <point x="80" y="560" type="curve" smooth="yes"/>
      <point x="64" y="560"/>
      <point x="49" y="559"/>
    </contour>
    <contour>
      <point x="300" y="-22" type="curve" smooth="yes"/>
      <point x="300" y="486" type="line" smooth="yes"/>
      <point x="300" y="504"/>
      <point x="295" y="517"/>
      <point x="286" y="526" type="curve" smooth="yes"/>
      <point x="260" y="552"/>
      <point x="154" y="560"/>
      <point x="84" y="560" type="curve" smooth="yes"/>
      <point x="80" y="560" type="line"/>
      <point x="80" y="40" type="line" smooth="yes"/>
      <point x="80" y="-36"/>
      <point x="73" y="-78"/>
      <point x="47" y="-141" type="curve"/>
      <point x="95" y="-243"/>
      <point x="300" y="-176"/>
    </contour>
    <contour>
      <point x="84" y="-35" type="curve" smooth="yes"/>
      <point x="52" y="-35"/>
      <point x="33" y="-27"/>
      <point x="7" y="-16" type="curve"/>
      <point x="3" y="-16" type="line"/>
      <point x="-3" y="-49"/>
      <point x="-7" y="-76"/>
      <point x="-7" y="-104" type="curve" smooth="yes"/>
      <point x="-7" y="-157"/>
      <point x="6" y="-206"/>
      <point x="25" y="-225" type="curve" smooth="yes"/>
      <point x="39" y="-239"/>
      <point x="62" y="-250"/>
      <point x="114" y="-250" type="curve" smooth="yes"/>
      <point x="197" y="-250"/>
      <point x="302" y="-155"/>
      <point x="300" y="-22" type="curve" smooth="yes"/>
      <point x="300" y="0"/>
      <point x="280" y="12"/>
      <point x="242" y="21" type="curve"/>
      <point x="191" y="-42"/>
      <point x="120" y="-35"/>
    </contour>
    <contour>
      <point x="307" y="622" type="curve"/>
      <point x="307" y="718" type="line" smooth="yes"/>
      <point x="307" y="778"/>
      <point x="253" y="787"/>
      <point x="182" y="787" type="curve" smooth="yes"/>
      <point x="147" y="787"/>
      <point x="102" y="783"/>
      <point x="64" y="777" type="curve"/>
      <point x="64" y="681" type="line" smooth="yes"/>
      <point x="64" y="621"/>
      <point x="118" y="612"/>
      <point x="189" y="612" type="curve" smooth="yes"/>
      <point x="224" y="612"/>
      <point x="269" y="616"/>
    </contour>
  </outline>
</glyph>
<glyph name="l" format="1">
  <advance width="300"/>
  <unicode hex="006C"/>
  <outline>
    <contour>
      <point x="24" y="610" type="curve"/>
      <point x="24" y="155" type="line" smooth="yes"/>
      <point x="24" y="68"/>
      <point x="209" y="-13"/>
      <point x="249" y="27" type="curve"/>
      <point x="249" y="83"/>
      <point x="249" y="138"/>
      <point x="249" y="194" type="curve" smooth="yes"/>
      <point x="249" y="644" type="line" smooth="yes"/>
      <point x="249" y="691"/>
      <point x="242" y="718"/>
      <point x="226" y="734" type="curve" smooth="yes"/>
      <point x="207" y="753"/>
      <point x="175" y="760"/>
      <point x="109" y="760" type="curve" smooth="yes"/>
      <point x="75" y="760"/>
      <point x="43" y="757"/>
      <point x="12" y="750" type="curve"/>
      <point x="20" y="712"/>
      <point x="24" y="667"/>
    </contour>
    <contour>
      <point x="293" y="222" type="curve"/>
      <point x="289" y="222" type="line"/>
      <point x="260" y="210"/>
      <point x="236" y="205"/>
      <point x="199" y="205" type="curve" smooth="yes"/>
      <point x="152" y="205"/>
      <point x="114" y="213"/>
      <point x="74" y="235" type="curve"/>
      <point x="50" y="224"/>
      <point x="24" y="194"/>
      <point x="24" y="155" type="curve" smooth="yes"/>
      <point x="24" y="63"/>
      <point x="121" y="-12"/>
      <point x="184" y="-12" type="curve" smooth="yes"/>
      <point x="187" y="-12" type="line" smooth="yes"/>
      <point x="238" y="-12"/>
      <point x="254" y="-5"/>
      <point x="269" y="10" type="curve" smooth="yes"/>
      <point x="289" y="30"/>
      <point x="301" y="85"/>
      <point x="301" y="144" type="curve" smooth="yes"/>
      <point x="301" y="169"/>
      <point x="299" y="193"/>
    </contour>
    <contour>
      <point x="306" y="711" type="move" name="caronslovak"/>
    </contour>
    <contour>
      <point x="131" y="740" type="move" name="top"/>
    </contour>
    <contour>
      <point x="306" y="400" type="move" name="dot"/>
    </contour>
    <contour>
      <point x="156" y="-1" type="move" name="bottom"/>
    </contour>
  </outline>
</glyph>
<glyph name="m" format="1">
  <advance width="850"/>
  <unicode hex="006D"/>
  <outline>
    <contour>
      <point x="255" y="0" type="curve"/>
      <point x="255" y="444" type="line" smooth="yes"/>
      <point x="255" y="491"/>
      <point x="248" y="518"/>
      <point x="232" y="534" type="curve" smooth="yes"/>
      <point x="213" y="553"/>
      <point x="183" y="560"/>
      <point x="120" y="560" type="curve" smooth="yes"/>
      <point x="86" y="560"/>
      <point x="54" y="557"/>
      <point x="23" y="550" type="curve"/>
      <point x="31" y="512"/>
      <point x="35" y="467"/>
      <point x="35" y="410" type="curve" smooth="yes"/>
      <point x="35" y="76" type="line" smooth="yes"/>
      <point x="35" y="9"/>
      <point x="61" y="-7"/>
      <point x="170" y="-7" type="curve" smooth="yes"/>
      <point x="200" y="-7"/>
      <point x="229" y="-5"/>
    </contour>
    <contour>
      <point x="402" y="564" type="curve" smooth="yes"/>
      <point x="328" y="564"/>
      <point x="251" y="486"/>
      <point x="227" y="403" type="curve" smooth="yes"/>
      <point x="216" y="366"/>
      <point x="216" y="326"/>
      <point x="244" y="275" type="curve"/>
      <point x="259" y="333"/>
      <point x="287" y="354"/>
      <point x="316" y="354" type="curve" smooth="yes"/>
      <point x="344" y="354"/>
      <point x="368" y="345"/>
      <point x="371" y="322" type="curve"/>
      <point x="519" y="322"/>
      <point x="536" y="356"/>
      <point x="536" y="376" type="curve" smooth="yes"/>
      <point x="536" y="462"/>
      <point x="472" y="564"/>
    </contour>
    <contour>
      <point x="536" y="0" type="curve"/>
      <point x="536" y="376" type="line"/>
      <point x="536" y="429"/>
      <point x="447" y="471"/>
      <point x="352" y="471" type="curve"/>
      <point x="318" y="308"/>
      <point x="308" y="209"/>
      <point x="308" y="91" type="curve" smooth="yes"/>
      <point x="308" y="87" type="line" smooth="yes"/>
      <point x="308" y="18"/>
      <point x="349" y="-5"/>
      <point x="451" y="-5" type="curve" smooth="yes"/>
      <point x="485" y="-5"/>
      <point x="516" y="-3"/>
    </contour>
    <contour>
      <point x="657" y="564" type="curve" smooth="yes"/>
      <point x="582" y="564"/>
      <point x="521" y="486"/>
      <point x="497" y="403" type="curve" smooth="yes"/>
      <point x="486" y="366"/>
      <point x="497" y="326"/>
      <point x="525" y="275" type="curve"/>
      <point x="540" y="333"/>
      <point x="564" y="354"/>
      <point x="595" y="354" type="curve" smooth="yes"/>
      <point x="623" y="354"/>
      <point x="635" y="345"/>
      <point x="638" y="322" type="curve"/>
      <point x="790" y="322"/>
      <point x="820" y="356"/>
      <point x="820" y="376" type="curve" smooth="yes"/>
      <point x="820" y="462"/>
      <point x="731" y="564"/>
    </contour>
    <contour>
      <point x="832" y="0" type="curve"/>
      <point x="824" y="42"/>
      <point x="820" y="89"/>
      <point x="820" y="145" type="curve" smooth="yes"/>
      <point x="820" y="376" type="line"/>
      <point x="820" y="429"/>
      <point x="729" y="471"/>
      <point x="631" y="471" type="curve"/>
      <point x="597" y="308"/>
      <point x="587" y="209"/>
      <point x="587" y="91" type="curve" smooth="yes"/>
      <point x="587" y="87" type="line" smooth="yes"/>
      <point x="587" y="18"/>
      <point x="627" y="-5"/>
      <point x="725" y="-5" type="curve" smooth="yes"/>
      <point x="763" y="-5"/>
      <point x="797" y="-3"/>
    </contour>
  </outline>
</glyph>
<glyph name="n" format="1">
  <advance width="600"/>
  <unicode hex="006E"/>
  <outline>
    <contour>
      <point x="255" y="0" type="curve"/>
      <point x="255" y="444" type="line" smooth="yes"/>
      <point x="255" y="491"/>
      <point x="248" y="518"/>
      <point x="232" y="534" type="curve" smooth="yes"/>
      <point x="213" y="553"/>
      <point x="183" y="560"/>
      <point x="120" y="560" type="curve" smooth="yes"/>
      <point x="86" y="560"/>
      <point x="54" y="557"/>
      <point x="23" y="550" type="curve"/>
      <point x="31" y="512"/>
      <point x="35" y="467"/>
      <point x="35" y="410" type="curve" smooth="yes"/>
      <point x="35" y="76" type="line" smooth="yes"/>
      <point x="35" y="9"/>
      <point x="61" y="-7"/>
      <point x="170" y="-7" type="curve" smooth="yes"/>
      <point x="200" y="-7"/>
      <point x="229" y="-5"/>
    </contour>
    <contour>
      <point x="402" y="564" type="curve" smooth="yes"/>
      <point x="328" y="564"/>
      <point x="251" y="486"/>
      <point x="227" y="403" type="curve" smooth="yes"/>
      <point x="216" y="366"/>
      <point x="221" y="326"/>
      <point x="249" y="275" type="curve"/>
      <point x="264" y="333"/>
      <point x="298" y="354"/>
      <point x="328" y="354" type="curve" smooth="yes"/>
      <point x="356" y="354"/>
      <point x="380" y="345"/>
      <point x="383" y="322" type="curve"/>
      <point x="535" y="322"/>
      <point x="565" y="356"/>
      <point x="565" y="376" type="curve" smooth="yes"/>
      <point x="565" y="462"/>
      <point x="484" y="564"/>
    </contour>
    <contour>
      <point x="577" y="-5" type="curve"/>
      <point x="569" y="37"/>
      <point x="565" y="84"/>
      <point x="565" y="140" type="curve" smooth="yes"/>
      <point x="565" y="376" type="line"/>
      <point x="565" y="429"/>
      <point x="474" y="471"/>
      <point x="376" y="471" type="curve"/>
      <point x="342" y="308"/>
      <point x="332" y="204"/>
      <point x="332" y="86" type="curve" smooth="yes"/>
      <point x="332" y="82" type="line" smooth="yes"/>
      <point x="332" y="13"/>
      <point x="373" y="-10"/>
      <point x="475" y="-10" type="curve" smooth="yes"/>
      <point x="511" y="-10"/>
      <point x="544" y="-8"/>
    </contour>
    <contour>
      <point x="110" y="711" type="move" name="caronslovak"/>
    </contour>
    <contour>
      <point x="300" y="561" type="move" name="top"/>
    </contour>
    <contour>
      <point x="300" y="-1" type="move" name="bottom"/>
    </contour>
  </outline>
</glyph>
<glyph name="o" format="1">
  <advance width="600"/>
  <unicode hex="006F"/>
  <outline>
    <contour>
      <point x="299" y="562" type="curve" smooth="yes"/>
      <point x="127" y="562"/>
      <point x="27" y="452"/>
      <point x="27" y="264" type="curve" smooth="yes"/>
      <point x="27" y="250" type="line" smooth="yes"/>
      <point x="27" y="79"/>
      <point x="136" y="-12"/>
      <point x="301" y="-12" type="curve" smooth="yes"/>
      <point x="349" y="-12"/>
      <point x="351" y="122"/>
      <point x="351" y="159" type="curve"/>
      <point x="265" y="159"/>
      <point x="250" y="173"/>
      <point x="250" y="250" type="curve" smooth="yes"/>
      <point x="250" y="263" type="line" smooth="yes"/>
      <point x="250" y="343"/>
      <point x="266" y="374"/>
      <point x="301" y="374" type="curve" smooth="yes"/>
      <point x="333" y="374"/>
      <point x="346" y="370"/>
      <point x="383" y="345" type="curve"/>
      <point x="497" y="413"/>
      <point x="401" y="562"/>
    </contour>
    <contour>
      <point x="301" y="-12" type="curve" smooth="yes"/>
      <point x="473" y="-12"/>
      <point x="573" y="84"/>
      <point x="573" y="250" type="curve" smooth="yes"/>
      <point x="573" y="264" type="line" smooth="yes"/>
      <point x="573" y="459"/>
      <point x="464" y="562"/>
      <point x="299" y="562" type="curve" smooth="yes"/>
      <point x="251" y="562"/>
      <point x="249" y="428"/>
      <point x="249" y="391" type="curve"/>
      <point x="335" y="391"/>
      <point x="350" y="371"/>
      <point x="350" y="264" type="curve" smooth="yes"/>
      <point x="350" y="251" type="line" smooth="yes"/>
      <point x="350" y="197"/>
      <point x="334" y="176"/>
      <point x="299" y="176" type="curve" smooth="yes"/>
      <point x="267" y="176"/>
      <point x="254" y="180"/>
      <point x="217" y="205" type="curve"/>
      <point x="103" y="137"/>
      <point x="199" y="-12"/>
    </contour>
    <contour>
      <point x="300" y="561" type="move" name="top"/>
    </contour>
    <contour>
      <point x="417" y="9" type="move" name="ogonek"/>
    </contour>
    <contour>
      <point x="300" y="-1" type="move" name="bottom"/>
    </contour>
  </outline>
</glyph>
<glyph name="s" format="1">
  <advance width="550"/>
  <unicode hex="0073"/>
  <outline>
    <contour>
      <point x="326" y="570" type="curve" smooth="yes"/>
      <point x="315" y="570" type="line" smooth="yes"/>
      <point x="135" y="570"/>
      <point x="40" y="510"/>
      <point x="40" y="397" type="curve" smooth="yes"/>
      <point x="40" y="322"/>
      <point x="133" y="272"/>
      <point x="265" y="272" type="curve"/>
      <point x="250" y="299"/>
      <point x="245" y="331"/>
      <point x="245" y="349" type="curve" smooth="yes"/>
      <point x="245" y="363"/>
      <point x="252" y="372"/>
      <point x="304" y="372" type="curve" smooth="yes"/>
      <point x="406" y="372"/>
      <point x="466" y="354"/>
      <point x="500" y="336" type="curve"/>
      <point x="504" y="336" type="line"/>
      <point x="508" y="357"/>
      <point x="510" y="379"/>
      <point x="510" y="398" type="curve"/>
      <point x="510" y="471"/>
      <point x="503" y="504"/>
      <point x="474" y="533" type="curve" smooth="yes"/>
      <point x="452" y="555"/>
      <point x="412" y="570"/>
    </contour>
    <contour>
      <point x="378" y="314" type="curve" smooth="yes"/>
      <point x="300" y="324" type="line" smooth="yes"/>
      <point x="256" y="330"/>
      <point x="245" y="338"/>
      <point x="245" y="349" type="curve" smooth="yes"/>
      <point x="245" y="385"/>
      <point x="250" y="415"/>
      <point x="266" y="443" type="curve"/>
      <point x="80" y="442"/>
      <point x="40" y="426"/>
      <point x="40" y="397" type="curve"/>
      <point x="40" y="301"/>
      <point x="80" y="257"/>
      <point x="207" y="238" type="curve" smooth="yes"/>
      <point x="280" y="227" type="line" smooth="yes"/>
      <point x="319" y="221"/>
      <point x="328" y="211"/>
      <point x="328" y="201" type="curve" smooth="yes"/>
      <point x="328" y="175"/>
      <point x="319" y="154"/>
      <point x="294" y="126" type="curve"/>
      <point x="471" y="126"/>
      <point x="530" y="137"/>
      <point x="530" y="157" type="curve" smooth="yes"/>
      <point x="530" y="247"/>
      <point x="487" y="300"/>
    </contour>
    <contour>
      <point x="254" y="180" type="curve" smooth="yes"/>
      <point x="147" y="180"/>
      <point x="102" y="192"/>
      <point x="35" y="221" type="curve"/>
      <point x="31" y="221" type="line"/>
      <point x="23" y="195"/>
      <point x="20" y="171"/>
      <point x="20" y="138" type="curve" smooth="yes"/>
      <point x="20" y="84"/>
      <point x="29" y="51"/>
      <point x="51" y="29" type="curve" smooth="yes"/>
      <point x="74" y="6"/>
      <point x="118" y="-20"/>
      <point x="255" y="-20" type="curve" smooth="yes"/>
      <point x="267" y="-20" type="line" smooth="yes"/>
      <point x="476" y="-20"/>
      <point x="530" y="56"/>
      <point x="530" y="157" type="curve" smooth="yes"/>
      <point x="530" y="184"/>
      <point x="489" y="227"/>
      <point x="383" y="227" type="curve"/>
      <point x="388" y="217"/>
      <point x="390" y="209"/>
      <point x="390" y="201" type="curve" smooth="yes"/>
      <point x="390" y="188"/>
      <point x="347" y="180"/>
    </contour>
    <contour>
      <point x="275" y="561" type="move" name="top"/>
    </contour>
    <contour>
      <point x="275" y="-1" type="move" name="bottom"/>
    </contour>
  </outline>
</glyph>
<glyph name="t" format="1">
  <advance width="500"/>
  <unicode hex="0074"/>
  <outline>
    <contour>
      <point x="100" y="702" type="curve"/>
      <point x="100" y="215" type="line" smooth="yes"/>
      <point x="100" y="103"/>
      <point x="196" y="61"/>
      <point x="362" y="137" type="curve"/>
      <point x="334" y="161"/>
      <point x="325" y="191"/>
      <point x="325" y="246" type="curve" smooth="yes"/>
      <point x="325" y="626" type="line" smooth="yes"/>
      <point x="325" y="693"/>
      <point x="309" y="709"/>
      <point x="187" y="709" type="curve" smooth="yes"/>
      <point x="157" y="709"/>
      <point x="126" y="707"/>
    </contour>
    <contour>
      <point x="473" y="224" type="curve"/>
      <point x="469" y="224" type="line"/>
      <point x="428" y="206"/>
      <point x="393" y="200"/>
      <point x="338" y="200" type="curve" smooth="yes"/>
      <point x="290" y="200"/>
      <point x="210" y="215"/>
      <point x="170" y="248" type="curve"/>
      <point x="133" y="256"/>
      <point x="100" y="244"/>
      <point x="100" y="215" type="curve" smooth="yes"/>
      <point x="100" y="70"/>
      <point x="211" y="-10"/>
      <point x="320" y="-10" type="curve" smooth="yes"/>
      <point x="330" y="-10" type="line" smooth="yes"/>
      <point x="399" y="-10"/>
      <point x="429" y="-1"/>
      <point x="449" y="19" type="curve" smooth="yes"/>
      <point x="467" y="37"/>
      <point x="481" y="87"/>
      <point x="481" y="151" type="curve" smooth="yes"/>
      <point x="481" y="176"/>
      <point x="479" y="195"/>
    </contour>
    <contour>
      <point x="10" y="550" type="line"/>
      <point x="10" y="544"/>
      <point x="10" y="538"/>
      <point x="10" y="531" type="curve" smooth="yes"/>
      <point x="10" y="454"/>
      <point x="13" y="406"/>
      <point x="37" y="382" type="curve" smooth="yes"/>
      <point x="62" y="357"/>
      <point x="95" y="340"/>
      <point x="186" y="340" type="curve"/>
      <point x="475" y="340" type="line"/>
      <point x="480" y="360"/>
      <point x="482" y="396"/>
      <point x="482" y="423" type="curve" smooth="yes"/>
      <point x="482" y="520"/>
      <point x="465" y="550"/>
      <point x="409" y="550" type="curve"/>
    </contour>
    <contour>
      <point x="431" y="711" type="move" name="caronslovak"/>
    </contour>
    <contour>
      <point x="291" y="-1" type="move" name="bottom"/>
    </contour>
  </outline>
</glyph>
<glyph name="v" format="1">
  <advance width="600"/>
  <unicode hex="0076"/>
  <outline>
    <contour>
      <point x="384" y="560" type="curve" smooth="yes"/>
      <point x="360" y="560" type="line"/>
      <point x="329" y="231"/>
      <point x="315" y="172"/>
      <point x="232" y="104" type="curve"/>
      <point x="203" y="80"/>
      <point x="239" y="-10"/>
      <point x="299" y="-10" type="curve"/>
      <point x="385" y="-10" type="line"/>
      <point x="487" y="76"/>
      <point x="555" y="270"/>
      <point x="575" y="486" type="curve"/>
      <point x="579" y="529"/>
      <point x="551" y="560"/>
    </contour>
    <contour>
      <point x="44" y="560" type="curve" smooth="yes"/>
      <point x="20" y="560" type="line"/>
      <point x="44" y="300"/>
      <point x="91" y="130"/>
      <point x="184" y="37" type="curve"/>
      <point x="224" y="-3"/>
      <point x="253" y="-10"/>
      <point x="288" y="-10" type="curve" smooth="yes"/>
      <point x="314" y="-10" type="line" smooth="yes"/>
      <point x="353" y="-10"/>
      <point x="398" y="18"/>
      <point x="414" y="67" type="curve"/>
      <point x="407" y="67"/>
      <point x="404" y="67"/>
      <point x="397" y="67" type="curve" smooth="yes"/>
      <point x="390" y="67"/>
      <point x="383" y="67"/>
      <point x="372" y="76" type="curve"/>
      <point x="305" y="129"/>
      <point x="280" y="222"/>
      <point x="250" y="492" type="curve"/>
      <point x="246" y="533"/>
      <point x="212" y="560"/>
    </contour>
  </outline>
</glyph>
<glyph name="w" format="1">
  <advance width="800"/>
  <unicode hex="0077"/>
  <outline>
    <contour>
      <point x="22" y="551" type="curve"/>
      <point x="22" y="243"/>
      <point x="66" y="115"/>
      <point x="164" y="17" type="curve"/>
      <point x="183" y="-2"/>
      <point x="211" y="-10"/>
      <point x="252" y="-10" type="curve"/>
      <point x="277" y="-10" type="line" smooth="yes"/>
      <point x="290" y="-10"/>
      <point x="316" y="88"/>
      <point x="316" y="126" type="curve"/>
      <point x="261" y="193"/>
      <point x="228" y="313"/>
      <point x="228" y="506" type="curve"/>
      <point x="228" y="515"/>
      <point x="226" y="519"/>
      <point x="219" y="528" type="curve" smooth="yes"/>
      <point x="200" y="551"/>
      <point x="156" y="560"/>
      <point x="88" y="560" type="curve"/>
      <point x="66" y="560"/>
      <point x="46" y="557"/>
    </contour>
    <contour>
      <point x="301" y="550" type="curve"/>
      <point x="301" y="308"/>
      <point x="275" y="172"/>
      <point x="190" y="55" type="curve"/>
      <point x="191" y="18"/>
      <point x="211" y="-10"/>
      <point x="265" y="-10" type="curve"/>
      <point x="297" y="-10" type="line"/>
      <point x="388" y="71"/>
      <point x="429" y="261"/>
      <point x="429" y="517" type="curve"/>
      <point x="429" y="550"/>
      <point x="402" y="557"/>
      <point x="370" y="557" type="curve" smooth="yes"/>
      <point x="354" y="557"/>
      <point x="317" y="556"/>
    </contour>
    <contour>
      <point x="348" y="548" type="curve"/>
      <point x="348" y="265"/>
      <point x="431" y="64"/>
      <point x="478" y="14" type="curve"/>
      <point x="496" y="-5"/>
      <point x="523" y="-10"/>
      <point x="549" y="-10" type="curve"/>
      <point x="584" y="-10" type="line" smooth="yes"/>
      <point x="605" y="-10"/>
      <point x="613" y="12"/>
      <point x="613" y="50" type="curve"/>
      <point x="523" y="189"/>
      <point x="498" y="302"/>
      <point x="498" y="493" type="curve"/>
      <point x="498" y="527"/>
      <point x="461" y="557"/>
      <point x="370" y="557" type="curve" smooth="yes"/>
      <point x="359" y="557"/>
      <point x="349" y="554"/>
    </contour>
    <contour>
      <point x="572" y="551" type="curve"/>
      <point x="572" y="277"/>
      <point x="533" y="201"/>
      <point x="480" y="122" type="curve"/>
      <point x="482" y="70"/>
      <point x="504" y="-10"/>
      <point x="568" y="-10" type="curve"/>
      <point x="614" y="-10" type="line"/>
      <point x="727" y="104"/>
      <point x="776" y="245"/>
      <point x="776" y="496" type="curve"/>
      <point x="776" y="512"/>
      <point x="773" y="518"/>
      <point x="767" y="524" type="curve" smooth="yes"/>
      <point x="741" y="550"/>
      <point x="702" y="560"/>
      <point x="658" y="560" type="curve"/>
      <point x="630" y="560"/>
      <point x="601" y="558"/>
    </contour>
    <contour>
      <point x="399" y="561" type="move" name="top"/>
    </contour>
  </outline>
</glyph>
<glyph name="braceleft" format="1">
  <advance width="500"/>
  <unicode hex="007B"/>
  <outline>
    <contour>
      <point x="392" y="557" type="curve" smooth="yes"/>
      <point x="428" y="557"/>
      <point x="461" y="553"/>
      <point x="478" y="549" type="curve"/>
      <point x="482" y="549" type="line"/>
      <point x="488" y="572"/>
      <point x="490" y="590"/>
      <point x="490" y="623" type="curve"/>
      <point x="490" y="708"/>
      <point x="452" y="770"/>
      <point x="400" y="770" type="curve" smooth="yes"/>
      <point x="397" y="770" type="line" smooth="yes"/>
      <point x="251" y="770"/>
      <point x="155" y="708"/>
      <point x="155" y="633" type="curve" smooth="yes"/>
      <point x="155" y="631" type="line" smooth="yes"/>
      <point x="155" y="583"/>
      <point x="214" y="547"/>
      <point x="282" y="540" type="curve"/>
      <point x="326" y="551"/>
      <point x="363" y="557"/>
    </contour>
    <contour>
      <point x="386" y="416" type="curve" smooth="yes"/>
      <point x="386" y="505"/>
      <point x="327" y="566"/>
      <point x="327" y="609" type="curve" smooth="yes"/>
      <point x="327" y="629"/>
      <point x="332" y="645"/>
      <point x="339" y="665" type="curve"/>
      <point x="239" y="698"/>
      <point x="155" y="682"/>
      <point x="155" y="631" type="curve" smooth="yes"/>
      <point x="155" y="629" type="line" smooth="yes"/>
      <point x="155" y="594"/>
      <point x="188" y="528"/>
      <point x="188" y="473" type="curve" smooth="yes"/>
      <point x="188" y="423"/>
      <point x="152" y="396"/>
      <point x="55" y="396" type="curve" smooth="yes"/>
      <point x="20" y="396" type="line"/>
      <point x="20" y="366" type="line" smooth="yes"/>
      <point x="20" y="317"/>
      <point x="60" y="275"/>
      <point x="105" y="275" type="curve" smooth="yes"/>
      <point x="113" y="275" type="line" smooth="yes"/>
      <point x="302" y="275"/>
      <point x="386" y="342"/>
    </contour>
    <contour>
      <point x="386" y="184" type="curve" smooth="yes"/>
      <point x="386" y="258"/>
      <point x="302" y="325"/>
      <point x="113" y="325" type="curve" smooth="yes"/>
      <point x="82" y="325"/>
      <point x="51" y="325"/>
      <point x="20" y="385" type="curve"/>
      <point x="20" y="350" type="line" smooth="yes"/>
      <point x="20" y="276"/>
      <point x="47" y="204"/>
      <point x="95" y="204" type="curve" smooth="yes"/>
      <point x="99" y="204" type="line" smooth="yes"/>
      <point x="164" y="204"/>
      <point x="188" y="176"/>
      <point x="188" y="127" type="curve" smooth="yes"/>
      <point x="188" y="71"/>
      <point x="155" y="4"/>
      <point x="155" y="-31" type="curve" smooth="yes"/>
      <point x="155" y="-33" type="line" smooth="yes"/>
      <point x="155" y="-81"/>
      <point x="240" y="-98"/>
      <point x="339" y="-65" type="curve"/>
      <point x="332" y="-45"/>
      <point x="327" y="-29"/>
      <point x="327" y="-9" type="curve" smooth="yes"/>
      <point x="327" y="34"/>
      <point x="386" y="95"/>
    </contour>
    <contour>
      <point x="388" y="41" type="curve" smooth="yes"/>
      <point x="346" y="41"/>
      <point x="315" y="51"/>
      <point x="264" y="76" type="curve"/>
      <point x="192" y="33"/>
      <point x="155" y="-1"/>
      <point x="155" y="-31" type="curve" smooth="yes"/>
      <point x="155" y="-33" type="line" smooth="yes"/>
      <point x="155" y="-104"/>
      <point x="201" y="-172"/>
      <point x="380" y="-172" type="curve" smooth="yes"/>
      <point x="385" y="-172" type="line" smooth="yes"/>
      <point x="452" y="-172"/>
      <point x="489" y="-90"/>
      <point x="489" y="47" type="curve"/>
      <point x="489" y="55" type="line"/>
      <point x="485" y="55" type="line"/>
      <point x="452" y="46"/>
      <point x="423" y="41"/>
    </contour>
  </outline>
</glyph>
<glyph name="bar" format="1">
  <advance width="300"/>
  <unicode hex="007C"/>
  <outline>
    <contour>
      <point x="19" y="757" type="curve"/>
      <point x="30" y="720"/>
      <point x="36" y="682"/>
      <point x="36" y="640" type="curve" smooth="yes"/>
      <point x="36" y="-72" type="line" smooth="yes"/>
      <point x="36" y="-134"/>
      <point x="91" y="-166"/>
      <point x="210" y="-166" type="curve" smooth="yes"/>
      <point x="236" y="-166"/>
      <point x="253" y="-165"/>
      <point x="264" y="-162" type="curve"/>
      <point x="264" y="690" type="line" smooth="yes"/>
      <point x="264" y="717"/>
      <point x="259" y="725"/>
      <point x="249" y="736" type="curve" smooth="yes"/>
      <point x="226" y="758"/>
      <point x="190" y="766"/>
      <point x="117" y="766" type="curve" smooth="yes"/>
      <point x="80" y="766"/>
      <point x="52" y="764"/>
    </contour>
  </outline>
</glyph>
<glyph name="braceright" format="1">
  <advance width="500"/>
  <unicode hex="007D"/>
  <outline>
    <contour>
      <point x="108" y="41" type="curve" smooth="yes"/>
      <point x="72" y="41"/>
      <point x="39" y="45"/>
      <point x="22" y="49" type="curve"/>
      <point x="18" y="49" type="line"/>
      <point x="12" y="26"/>
      <point x="10" y="8"/>
      <point x="10" y="-25" type="curve"/>
      <point x="10" y="-110"/>
      <point x="48" y="-172"/>
      <point x="100" y="-172" type="curve" smooth="yes"/>
      <point x="103" y="-172" type="line" smooth="yes"/>
      <point x="249" y="-172"/>
      <point x="345" y="-110"/>
      <point x="345" y="-35" type="curve" smooth="yes"/>
      <point x="345" y="-33" type="line" smooth="yes"/>
      <point x="345" y="15"/>
      <point x="286" y="51"/>
      <point x="218" y="58" type="curve"/>
      <point x="174" y="47"/>
      <point x="137" y="41"/>
    </contour>
    <contour>
      <point x="114" y="182" type="curve" smooth="yes"/>
      <point x="114" y="93"/>
      <point x="173" y="32"/>
      <point x="173" y="-11" type="curve" smooth="yes"/>
      <point x="173" y="-31"/>
      <point x="168" y="-47"/>
      <point x="161" y="-67" type="curve"/>
      <point x="261" y="-100"/>
      <point x="345" y="-84"/>
      <point x="345" y="-33" type="curve" smooth="yes"/>
      <point x="345" y="-31" type="line" smooth="yes"/>
      <point x="345" y="4"/>
      <point x="312" y="70"/>
      <point x="312" y="125" type="curve" smooth="yes"/>
      <point x="312" y="175"/>
      <point x="348" y="202"/>
      <point x="445" y="202" type="curve" smooth="yes"/>
      <point x="480" y="202" type="line"/>
      <point x="480" y="232" type="line" smooth="yes"/>
      <point x="480" y="281"/>
      <point x="440" y="323"/>
      <point x="395" y="323" type="curve" smooth="yes"/>
      <point x="387" y="323" type="line" smooth="yes"/>
      <point x="198" y="323"/>
      <point x="114" y="256"/>
    </contour>
    <contour>
      <point x="114" y="414" type="curve" smooth="yes"/>
      <point x="114" y="340"/>
      <point x="198" y="273"/>
      <point x="387" y="273" type="curve" smooth="yes"/>
      <point x="418" y="273"/>
      <point x="449" y="273"/>
      <point x="480" y="213" type="curve"/>
      <point x="480" y="248" type="line" smooth="yes"/>
      <point x="480" y="322"/>
      <point x="453" y="394"/>
      <point x="405" y="394" type="curve" smooth="yes"/>
      <point x="401" y="394" type="line" smooth="yes"/>
      <point x="336" y="394"/>
      <point x="312" y="422"/>
      <point x="312" y="471" type="curve" smooth="yes"/>
      <point x="312" y="527"/>
      <point x="345" y="594"/>
      <point x="345" y="629" type="curve" smooth="yes"/>
      <point x="345" y="631" type="line" smooth="yes"/>
      <point x="345" y="679"/>
      <point x="260" y="696"/>
      <point x="161" y="663" type="curve"/>
      <point x="168" y="643"/>
      <point x="173" y="627"/>
      <point x="173" y="607" type="curve" smooth="yes"/>
      <point x="173" y="564"/>
      <point x="114" y="503"/>
    </contour>
    <contour>
      <point x="112" y="557" type="curve" smooth="yes"/>
      <point x="154" y="557"/>
      <point x="185" y="547"/>
      <point x="236" y="522" type="curve"/>
      <point x="308" y="565"/>
      <point x="345" y="599"/>
      <point x="345" y="629" type="curve" smooth="yes"/>
      <point x="345" y="631" type="line" smooth="yes"/>
      <point x="345" y="702"/>
      <point x="299" y="770"/>
      <point x="120" y="770" type="curve" smooth="yes"/>
      <point x="115" y="770" type="line" smooth="yes"/>
      <point x="48" y="770"/>
      <point x="11" y="688"/>
      <point x="11" y="551" type="curve"/>
      <point x="11" y="543" type="line"/>
      <point x="15" y="543" type="line"/>
      <point x="48" y="552"/>
      <point x="77" y="557"/>
    </contour>
  </outline>
</glyph>
<glyph name="exclamdown" format="1">
  <advance width="350"/>
  <unicode hex="00A1"/>
  <outline>
    <contour>
      <point x="100" y="228" type="line"/>
      <point x="72" y="165"/>
      <point x="50" y="90"/>
      <point x="50" y="-17" type="curve"/>
      <point x="50" y="-70" type="line" smooth="yes"/>
      <point x="50" y="-133"/>
      <point x="133" y="-161"/>
      <point x="215" y="-161" type="curve" smooth="yes"/>
      <point x="255" y="-161"/>
      <point x="282" y="-158"/>
      <point x="315" y="-151" type="curve"/>
      <point x="305" y="-115"/>
      <point x="299" y="-77"/>
      <point x="299" y="-35" type="curve" smooth="yes"/>
      <point x="299" y="-27" type="line"/>
      <point x="299" y="50"/>
      <point x="280" y="157"/>
      <point x="247" y="190" type="curve" smooth="yes"/>
      <point x="220" y="217"/>
      <point x="187" y="228"/>
      <point x="122" y="228" type="curve"/>
    </contour>
    <contour>
      <point x="45" y="552" type="curve"/>
      <point x="45" y="421" type="line" smooth="yes"/>
      <point x="45" y="332"/>
      <point x="96" y="301"/>
      <point x="195" y="301" type="curve" smooth="yes"/>
      <point x="244" y="301"/>
      <point x="273" y="305"/>
      <point x="305" y="313" type="curve"/>
      <point x="305" y="444" type="line" smooth="yes"/>
      <point x="305" y="533"/>
      <point x="254" y="564"/>
      <point x="155" y="564" type="curve" smooth="yes"/>
      <point x="106" y="564"/>
      <point x="77" y="560"/>
    </contour>
  </outline>
</glyph>
<glyph name="yen" format="1">
  <advance width="600"/>
  <unicode hex="00A5"/>
  <outline>
    <contour>
      <point x="5" y="430" type="line"/>
      <point x="5" y="424"/>
      <point x="5" y="418"/>
      <point x="5" y="411" type="curve" smooth="yes"/>
      <point x="5" y="352"/>
      <point x="13" y="318"/>
      <point x="31" y="300" type="curve" smooth="yes"/>
      <point x="46" y="285"/>
      <point x="66" y="280"/>
      <point x="112" y="280" type="curve"/>
      <point x="165" y="280" type="line"/>
      <point x="169" y="301"/>
      <point x="172" y="324"/>
      <point x="172" y="343" type="curve" smooth="yes"/>
      <point x="172" y="409"/>
      <point x="155" y="430"/>
      <point x="99" y="430" type="curve"/>
    </contour>
    <contour>
      <point x="393" y="430" type="line"/>
      <point x="393" y="424"/>
      <point x="393" y="418"/>
      <point x="393" y="411" type="curve" smooth="yes"/>
      <point x="393" y="318"/>
      <point x="426" y="280"/>
      <point x="465" y="280" type="curve"/>
      <point x="588" y="280" type="line"/>
      <point x="592" y="301"/>
      <point x="595" y="324"/>
      <point x="595" y="343" type="curve" smooth="yes"/>
      <point x="595" y="409"/>
      <point x="578" y="430"/>
      <point x="522" y="430" type="curve"/>
    </contour>
    <contour>
      <point x="585" y="75" type="line"/>
      <point x="585" y="81"/>
      <point x="585" y="87"/>
      <point x="585" y="94" type="curve" smooth="yes"/>
      <point x="585" y="153"/>
      <point x="577" y="187"/>
      <point x="559" y="205" type="curve" smooth="yes"/>
      <point x="544" y="220"/>
      <point x="524" y="225"/>
      <point x="478" y="225" type="curve"/>
      <point x="22" y="225" type="line"/>
      <point x="18" y="204"/>
      <point x="15" y="181"/>
      <point x="15" y="162" type="curve" smooth="yes"/>
      <point x="15" y="96"/>
      <point x="32" y="75"/>
      <point x="88" y="75" type="curve"/>
    </contour>
    <contour>
      <point x="18" y="710" type="line"/>
      <point x="40" y="470"/>
      <point x="86" y="306"/>
      <point x="165" y="227" type="curve"/>
      <point x="207" y="185"/>
      <point x="241" y="180"/>
      <point x="270" y="180" type="curve"/>
      <point x="340" y="180"/>
      <point x="391" y="227"/>
      <point x="391" y="302" type="curve"/>
      <point x="285" y="362"/>
      <point x="260" y="449"/>
      <point x="243" y="660" type="curve"/>
      <point x="240" y="696"/>
      <point x="148" y="710"/>
      <point x="42" y="710" type="curve" smooth="yes"/>
    </contour>
    <contour>
      <point x="363" y="710" type="line"/>
      <point x="351" y="479"/>
      <point x="326" y="400"/>
      <point x="257" y="344" type="curve"/>
      <point x="171" y="273"/>
      <point x="219" y="180"/>
      <point x="270" y="180" type="curve"/>
      <point x="390" y="180" type="line"/>
      <point x="478" y="255"/>
      <point x="563" y="438"/>
      <point x="577" y="636" type="curve"/>
      <point x="581" y="692"/>
      <point x="499" y="710"/>
      <point x="387" y="710" type="curve"/>
    </contour>
    <contour>
      <point x="426" y="0" type="curve"/>
      <point x="418" y="38"/>
      <point x="414" y="83"/>
      <point x="414" y="140" type="curve" smooth="yes"/>
      <point x="414" y="264" type="line" smooth="yes"/>
      <point x="414" y="349"/>
      <point x="339" y="350"/>
      <point x="188" y="350" type="curve"/>
      <point x="188" y="106" type="line" smooth="yes"/>
      <point x="188" y="59"/>
      <point x="195" y="32"/>
      <point x="211" y="16" type="curve" smooth="yes"/>
      <point x="230" y="-3"/>
      <point x="262" y="-10"/>
      <point x="328" y="-10" type="curve" smooth="yes"/>
      <point x="362" y="-10"/>
      <point x="395" y="-7"/>
    </contour>
  </outline>
</glyph>
<glyph name="macron" format="1">
  <advance width="600"/>
  <unicode hex="00AF"/>
  <outline>
    <contour>
      <point x="116" y="788" type="line"/>
      <point x="116" y="782"/>
      <point x="116" y="772"/>
      <point x="116" y="765" type="curve" smooth="yes"/>
      <point x="116" y="687"/>
      <point x="125" y="626"/>
      <point x="242" y="626" type="curve"/>
      <point x="489" y="626" type="line"/>
      <point x="492" y="640"/>
      <point x="496" y="670"/>
      <point x="496" y="706" type="curve" smooth="yes"/>
      <point x="496" y="769"/>
      <point x="479" y="788"/>
      <point x="423" y="788" type="curve"/>
    </contour>
  </outline>
</glyph>
<glyph name="onehalf" format="1">
  <advance width="600"/>
  <unicode hex="00BD"/>
  <outline>
    <contour>
      <point x="253" y="428" type="curve"/>
      <point x="253" y="510"/>
      <point x="253" y="595"/>
      <point x="253" y="674" type="curve" smooth="yes"/>
      <point x="253" y="701"/>
      <point x="199" y="710"/>
      <point x="116" y="710" type="curve" smooth="yes"/>
      <point x="113" y="710" type="line"/>
      <point x="113" y="643"/>
      <point x="113" y="572"/>
      <point x="113" y="507" type="curve" smooth="yes"/>
      <point x="113" y="444"/>
      <point x="172" y="428"/>
    </contour>
    <contour>
      <point x="20" y="487" type="line"/>
      <point x="17" y="479"/>
      <point x="15" y="461"/>
      <point x="15" y="449" type="curve" smooth="yes"/>
      <point x="15" y="390"/>
      <point x="33" y="366"/>
      <point x="92" y="366" type="curve" smooth="yes"/>
      <point x="304" y="366" type="line"/>
      <point x="307" y="378"/>
      <point x="309" y="395"/>
      <point x="309" y="411" type="curve" smooth="yes"/>
      <point x="309" y="469"/>
      <point x="297" y="487"/>
      <point x="257" y="487" type="curve" smooth="yes"/>
    </contour>
    <contour>
      <point x="58" y="531" type="curve" smooth="yes"/>
      <point x="107" y="531"/>
      <point x="170" y="629"/>
      <point x="170" y="660" type="curve" smooth="yes"/>
      <point x="170" y="685"/>
      <point x="171" y="710"/>
      <point x="114" y="710" type="curve"/>
      <point x="97" y="710" type="line"/>
      <point x="75" y="678"/>
      <point x="52" y="660"/>
      <point x="17" y="643" type="curve"/>
      <point x="17" y="634" type="line" smooth="yes"/>
      <point x="17" y="590"/>
      <point x="33" y="531"/>
    </contour>
    <contour>
      <point x="424" y="237" type="curve" smooth="yes"/>
      <point x="473" y="237"/>
      <point x="502" y="229"/>
      <point x="530" y="202" type="curve"/>
      <point x="571" y="217"/>
      <point x="581" y="232"/>
      <point x="581" y="244" type="curve" smooth="yes"/>
      <point x="581" y="295"/>
      <point x="554" y="342"/>
      <point x="435" y="342" type="curve" smooth="yes"/>
      <point x="377" y="342"/>
      <point x="336" y="332"/>
      <point x="318" y="314" type="curve" smooth="yes"/>
      <point x="302" y="298"/>
      <point x="298" y="278"/>
      <point x="298" y="253" type="curve" smooth="yes"/>
      <point x="298" y="233"/>
      <point x="301" y="214"/>
      <point x="305" y="201" type="curve"/>
      <point x="307" y="201" type="line"/>
      <point x="342" y="225"/>
      <point x="384" y="237"/>
    </contour>
    <contour>
      <point x="428" y="266" type="curve"/>
      <point x="440" y="252"/>
      <point x="441" y="244"/>
      <point x="441" y="233" type="curve" smooth="yes"/>
      <point x="441" y="223"/>
      <point x="436" y="214"/>
      <point x="384" y="198" type="curve" smooth="yes"/>
      <point x="295" y="174"/>
      <point x="280" y="118"/>
      <point x="280" y="64" type="curve" smooth="yes"/>
      <point x="280" y="44"/>
      <point x="345" y="46"/>
      <point x="404" y="46" type="curve"/>
      <point x="404" y="110"/>
      <point x="413" y="129"/>
      <point x="481" y="143" type="curve" smooth="yes"/>
      <point x="560" y="160"/>
      <point x="581" y="193"/>
      <point x="581" y="242" type="curve" smooth="yes"/>
      <point x="581" y="244" type="line" smooth="yes"/>
      <point x="581" y="258"/>
      <point x="534" y="276"/>
    </contour>
    <contour>
      <point x="582" y="0" type="line"/>
      <point x="585" y="16"/>
      <point x="587" y="35"/>
      <point x="587" y="52" type="curve" smooth="yes"/>
      <point x="587" y="103"/>
      <point x="572" y="119"/>
      <point x="525" y="119" type="curve" smooth="yes"/>
      <point x="521" y="119" type="line" smooth="yes"/>
      <point x="447" y="119"/>
      <point x="360" y="106"/>
      <point x="280" y="64" type="curve"/>
      <point x="280" y="63"/>
      <point x="280" y="62"/>
      <point x="280" y="61" type="curve" smooth="yes"/>
      <point x="280" y="34"/>
      <point x="302" y="0"/>
      <point x="322" y="0" type="curve" smooth="yes"/>
    </contour>
    <contour>
      <point x="332" y="397" type="curve"/>
      <point x="352" y="387"/>
      <point x="377" y="381"/>
      <point x="411" y="381" type="curve" smooth="yes"/>
      <point x="453" y="381"/>
      <point x="482" y="392"/>
      <point x="519" y="429" type="curve" smooth="yes"/>
      <point x="574" y="484"/>
      <point x="591" y="570"/>
      <point x="591" y="630" type="curve" smooth="yes"/>
      <point x="591" y="690"/>
      <point x="546" y="717"/>
      <point x="473" y="717" type="curve" smooth="yes"/>
      <point x="438" y="717"/>
      <point x="424" y="715"/>
      <point x="394" y="708" type="curve"/>
      <point x="394" y="593"/>
      <point x="375" y="484"/>
    </contour>
    <contour>
      <point x="268" y="303" type="curve"/>
      <point x="248" y="313"/>
      <point x="223" y="319"/>
      <point x="189" y="319" type="curve" smooth="yes"/>
      <point x="147" y="319"/>
      <point x="118" y="308"/>
      <point x="81" y="271" type="curve" smooth="yes"/>
      <point x="26" y="216"/>
      <point x="9" y="130"/>
      <point x="9" y="70" type="curve" smooth="yes"/>
      <point x="9" y="10"/>
      <point x="54" y="-17"/>
      <point x="127" y="-17" type="curve" smooth="yes"/>
      <point x="162" y="-17"/>
      <point x="176" y="-15"/>
      <point x="206" y="-8" type="curve"/>
      <point x="206" y="107"/>
      <point x="225" y="215"/>
    </contour>
  </outline>
</glyph>
<glyph name="questiondown" format="1">
  <advance width="600"/>
  <unicode hex="00BF"/>
  <outline>
    <contour>
      <point x="275" y="-171" type="curve" smooth="yes"/>
      <point x="406" y="-171"/>
      <point x="475" y="-155"/>
      <point x="508" y="-122" type="curve" smooth="yes"/>
      <point x="526" y="-104"/>
      <point x="536" y="-71"/>
      <point x="536" y="-26" type="curve" smooth="yes"/>
      <point x="536" y="8"/>
      <point x="533" y="28"/>
      <point x="524" y="57" type="curve"/>
      <point x="520" y="57" type="line"/>
      <point x="439" y="31"/>
      <point x="378" y="23"/>
      <point x="314" y="23" type="curve" smooth="yes"/>
      <point x="216" y="23"/>
      <point x="177" y="51"/>
      <point x="177" y="101" type="curve" smooth="yes"/>
      <point x="177" y="114"/>
      <point x="178" y="124"/>
      <point x="181" y="136" type="curve"/>
      <point x="97" y="136"/>
      <point x="48" y="103"/>
      <point x="48" y="43" type="curve" smooth="yes"/>
      <point x="48" y="-57"/>
      <point x="152" y="-171"/>
    </contour>
    <contour>
      <point x="283" y="-66" type="curve"/>
      <point x="264" y="-23"/>
      <point x="261" y="-6"/>
      <point x="261" y="19" type="curve" smooth="yes"/>
      <point x="261" y="31"/>
      <point x="257" y="47"/>
      <point x="309" y="81" type="curve" smooth="yes"/>
      <point x="332" y="97" type="line" smooth="yes"/>
      <point x="402" y="146"/>
      <point x="412" y="165"/>
      <point x="412" y="199" type="curve" smooth="yes"/>
      <point x="412" y="202" type="line" smooth="yes"/>
      <point x="412" y="254"/>
      <point x="351" y="288"/>
      <point x="240" y="288" type="curve" smooth="yes"/>
      <point x="230" y="288" type="line"/>
      <point x="230" y="286" type="line" smooth="yes"/>
      <point x="230" y="270"/>
      <point x="219" y="253"/>
      <point x="206" y="245" type="curve" smooth="yes"/>
      <point x="171" y="222" type="line" smooth="yes"/>
      <point x="79" y="162"/>
      <point x="48" y="102"/>
      <point x="48" y="46" type="curve" smooth="yes"/>
      <point x="48" y="43" type="line" smooth="yes"/>
      <point x="48" y="-43"/>
      <point x="170" y="-107"/>
    </contour>
    <contour>
      <point x="190" y="549" type="curve"/>
      <point x="190" y="468" type="line" smooth="yes"/>
      <point x="190" y="379"/>
      <point x="241" y="348"/>
      <point x="340" y="348" type="curve" smooth="yes"/>
      <point x="389" y="348"/>
      <point x="418" y="352"/>
      <point x="450" y="360" type="curve"/>
      <point x="450" y="441" type="line" smooth="yes"/>
      <point x="450" y="530"/>
      <point x="399" y="561"/>
      <point x="300" y="561" type="curve" smooth="yes"/>
      <point x="251" y="561"/>
      <point x="222" y="557"/>
    </contour>
  </outline>
</glyph>
<glyph name="Acircumflex" format="1">
  <advance width="600"/>
  <unicode hex="00C2"/>
  <outline>
    <contour>
      <point x="231" y="-1" type="curve"/>
      <point x="243" y="404"/>
      <point x="280" y="526"/>
      <point x="369" y="596" type="curve"/>
      <point x="405" y="624"/>
      <point x="358" y="710"/>
      <point x="199" y="710" type="curve"/>
      <point x="169" y="710" type="line"/>
      <point x="101" y="601"/>
      <point x="25" y="350"/>
      <point x="25" y="59" type="curve"/>
      <point x="25" y="11"/>
      <point x="89" y="-7"/>
      <point x="160" y="-7" type="curve" smooth="yes"/>
      <point x="189" y="-7"/>
      <point x="213" y="-5"/>
    </contour>
    <contour>
      <point x="583" y="-4" type="curve"/>
      <point x="575" y="248"/>
      <point x="552" y="435"/>
      <point x="498" y="563" type="curve"/>
      <point x="477" y="612"/>
      <point x="458" y="635"/>
      <point x="432" y="661" type="curve" smooth="yes"/>
      <point x="396" y="697"/>
      <point x="336" y="710"/>
      <point x="199" y="710" type="curve"/>
      <point x="189" y="710"/>
      <point x="170" y="652"/>
      <point x="170" y="613" type="curve"/>
      <point x="181" y="613"/>
      <point x="189" y="613"/>
      <point x="198" y="613" type="curve" smooth="yes"/>
      <point x="225" y="613"/>
      <point x="235" y="609"/>
      <point x="244" y="597" type="curve"/>
      <point x="328" y="494"/>
      <point x="345" y="412"/>
      <point x="370" y="70" type="curve"/>
      <point x="372" y="43"/>
      <point x="375" y="29"/>
      <point x="388" y="16" type="curve" smooth="yes"/>
      <point x="403" y="1"/>
      <point x="450" y="-10"/>
      <point x="516" y="-10" type="curve" smooth="yes"/>
      <point x="540" y="-10"/>
      <point x="562" y="-8"/>
    </contour>
    <contour>
      <point x="3" y="280" type="line"/>
      <point x="3" y="245" type="line" smooth="yes"/>
      <point x="3" y="185"/>
      <point x="13" y="136"/>
      <point x="41" y="108" type="curve" smooth="yes"/>
      <point x="47" y="102"/>
      <point x="50" y="100"/>
      <point x="58" y="100" type="curve"/>
      <point x="428" y="100" type="line"/>
      <point x="428" y="211"/>
      <point x="371" y="280"/>
      <point x="259" y="280" type="curve" smooth="yes"/>
    </contour>
    <contour>
      <point x="233" y="765" type="line"/>
      <point x="261" y="813"/>
      <point x="315" y="855"/>
      <point x="380" y="874" type="curve"/>
      <point x="380" y="926"/>
      <point x="330" y="954"/>
      <point x="285" y="954" type="curve"/>
      <point x="261" y="954" type="line"/>
      <point x="216" y="935"/>
      <point x="151" y="886"/>
      <point x="122" y="846" type="curve" smooth="yes"/>
      <point x="106" y="823"/>
      <point x="99" y="807"/>
      <point x="99" y="800" type="curve" smooth="yes"/>
      <point x="99" y="779"/>
      <point x="177" y="765"/>
      <point x="227" y="765" type="curve"/>
    </contour>
    <contour>
      <point x="515" y="779" type="curve"/>
      <point x="484" y="841"/>
      <point x="442" y="891"/>
      <point x="393" y="924" type="curve" smooth="yes"/>
      <point x="350" y="953"/>
      <point x="320" y="954"/>
      <point x="290" y="954" type="curve" smooth="yes"/>
      <point x="282" y="954" type="line"/>
      <point x="263" y="954"/>
      <point x="226" y="928"/>
      <point x="214" y="872" type="curve"/>
      <point x="289" y="851"/>
      <point x="318" y="827"/>
      <point x="350" y="787" type="curve" smooth="yes"/>
      <point x="362" y="770"/>
      <point x="378" y="761"/>
      <point x="411" y="761" type="curve" smooth="yes"/>
      <point x="445" y="761"/>
      <point x="490" y="769"/>
    </contour>
  </outline>
</glyph>
<glyph name="Atilde" format="1">
  <advance width="600"/>
  <unicode hex="00C3"/>
  <outline>
    <contour>
      <point x="231" y="-1" type="curve"/>
      <point x="243" y="404"/>
      <point x="280" y="526"/>
      <point x="369" y="596" type="curve"/>
      <point x="405" y="624"/>
      <point x="358" y="710"/>
      <point x="199" y="710" type="curve"/>
      <point x="169" y="710" type="line"/>
      <point x="101" y="601"/>
      <point x="25" y="350"/>
      <point x="25" y="59" type="curve"/>
      <point x="25" y="11"/>
      <point x="89" y="-7"/>
      <point x="160" y="-7" type="curve" smooth="yes"/>
      <point x="189" y="-7"/>
      <point x="213" y="-5"/>
    </contour>
    <contour>
      <point x="583" y="-4" type="curve"/>
      <point x="575" y="248"/>
      <point x="552" y="435"/>
      <point x="498" y="563" type="curve"/>
      <point x="477" y="612"/>
      <point x="458" y="635"/>
      <point x="432" y="661" type="curve" smooth="yes"/>
      <point x="396" y="697"/>
      <point x="336" y="710"/>
      <point x="199" y="710" type="curve"/>
      <point x="189" y="710"/>
      <point x="170" y="652"/>
      <point x="170" y="613" type="curve"/>
      <point x="181" y="613"/>
      <point x="189" y="613"/>
      <point x="198" y="613" type="curve" smooth="yes"/>
      <point x="225" y="613"/>
      <point x="235" y="609"/>
      <point x="244" y="597" type="curve"/>
      <point x="328" y="494"/>
      <point x="345" y="412"/>
      <point x="370" y="70" type="curve"/>
      <point x="372" y="43"/>
      <point x="375" y="29"/>
      <point x="388" y="16" type="curve" smooth="yes"/>
      <point x="403" y="1"/>
      <point x="450" y="-10"/>
      <point x="516" y="-10" type="curve" smooth="yes"/>
      <point x="540" y="-10"/>
      <point x="562" y="-8"/>
    </contour>
    <contour>
      <point x="3" y="280" type="line"/>
      <point x="3" y="245" type="line" smooth="yes"/>
      <point x="3" y="185"/>
      <point x="13" y="136"/>
      <point x="41" y="108" type="curve" smooth="yes"/>
      <point x="47" y="102"/>
      <point x="50" y="100"/>
      <point x="58" y="100" type="curve"/>
      <point x="428" y="100" type="line"/>
      <point x="428" y="211"/>
      <point x="371" y="280"/>
      <point x="259" y="280" type="curve" smooth="yes"/>
    </contour>
    <contour>
      <point x="396" y="922" type="curve" smooth="yes"/>
      <point x="326" y="922"/>
      <point x="261" y="974"/>
      <point x="190" y="974" type="curve" smooth="yes"/>
      <point x="164" y="974"/>
      <point x="142" y="967"/>
      <point x="125" y="950" type="curve" smooth="yes"/>
      <point x="105" y="930"/>
      <point x="93" y="896"/>
      <point x="93" y="843" type="curve" smooth="yes"/>
      <point x="93" y="811"/>
      <point x="97" y="786"/>
      <point x="105" y="764" type="curve"/>
      <point x="109" y="764" type="line"/>
      <point x="143" y="792"/>
      <point x="164" y="802"/>
      <point x="204" y="802" type="curve" smooth="yes"/>
      <point x="274" y="802"/>
      <point x="339" y="750"/>
      <point x="410" y="750" type="curve" smooth="yes"/>
      <point x="436" y="750"/>
      <point x="458" y="757"/>
      <point x="475" y="774" type="curve" smooth="yes"/>
      <point x="495" y="794"/>
      <point x="507" y="828"/>
      <point x="507" y="881" type="curve" smooth="yes"/>
      <point x="507" y="913"/>
      <point x="503" y="938"/>
      <point x="495" y="960" type="curve"/>
      <point x="491" y="960" type="line"/>
      <point x="457" y="932"/>
      <point x="436" y="922"/>
    </contour>
  </outline>
</glyph>
<glyph name="Aring" format="1">
  <advance width="600"/>
  <unicode hex="00C5"/>
  <outline>
    <contour>
      <point x="231" y="-1" type="curve"/>
      <point x="243" y="404"/>
      <point x="280" y="526"/>
      <point x="369" y="596" type="curve"/>
      <point x="405" y="624"/>
      <point x="358" y="710"/>
      <point x="199" y="710" type="curve"/>
      <point x="169" y="710" type="line"/>
      <point x="101" y="601"/>
      <point x="25" y="350"/>
      <point x="25" y="59" type="curve"/>
      <point x="25" y="11"/>
      <point x="89" y="-7"/>
      <point x="160" y="-7" type="curve" smooth="yes"/>
      <point x="189" y="-7"/>
      <point x="213" y="-5"/>
    </contour>
    <contour>
      <point x="583" y="-4" type="curve"/>
      <point x="575" y="248"/>
      <point x="552" y="435"/>
      <point x="498" y="563" type="curve"/>
      <point x="477" y="612"/>
      <point x="458" y="635"/>
      <point x="432" y="661" type="curve" smooth="yes"/>
      <point x="396" y="697"/>
      <point x="336" y="710"/>
      <point x="199" y="710" type="curve"/>
      <point x="189" y="710"/>
      <point x="170" y="652"/>
      <point x="170" y="613" type="curve"/>
      <point x="181" y="613"/>
      <point x="189" y="613"/>
      <point x="198" y="613" type="curve" smooth="yes"/>
      <point x="225" y="613"/>
      <point x="235" y="609"/>
      <point x="244" y="597" type="curve"/>
      <point x="328" y="494"/>
      <point x="345" y="412"/>
      <point x="370" y="70" type="curve"/>
      <point x="372" y="43"/>
      <point x="375" y="29"/>
      <point x="388" y="16" type="curve" smooth="yes"/>
      <point x="403" y="1"/>
      <point x="450" y="-10"/>
      <point x="516" y="-10" type="curve" smooth="yes"/>
      <point x="540" y="-10"/>
      <point x="562" y="-8"/>
    </contour>
    <contour>
      <point x="3" y="280" type="line"/>
      <point x="3" y="245" type="line" smooth="yes"/>
      <point x="3" y="185"/>
      <point x="13" y="136"/>
      <point x="41" y="108" type="curve" smooth="yes"/>
      <point x="47" y="102"/>
      <point x="50" y="100"/>
      <point x="58" y="100" type="curve"/>
      <point x="428" y="100" type="line"/>
      <point x="428" y="211"/>
      <point x="371" y="280"/>
      <point x="259" y="280" type="curve" smooth="yes"/>
    </contour>
    <contour>
      <point x="322" y="693" type="curve"/>
      <point x="269" y="693"/>
      <point x="236" y="718"/>
      <point x="236" y="758" type="curve" smooth="yes"/>
      <point x="236" y="765" type="line" smooth="yes"/>
      <point x="236" y="803"/>
      <point x="259" y="831"/>
      <point x="303" y="831" type="curve" smooth="yes"/>
      <point x="325" y="831"/>
      <point x="345" y="827"/>
      <point x="370" y="815" type="curve"/>
      <point x="386" y="857"/>
      <point x="360" y="923"/>
      <point x="303" y="923" type="curve"/>
      <point x="168" y="923"/>
      <point x="90" y="857"/>
      <point x="90" y="761" type="curve" smooth="yes"/>
      <point x="90" y="754" type="line" smooth="yes"/>
      <point x="90" y="677"/>
      <point x="151" y="627"/>
      <point x="297" y="627" type="curve"/>
      <point x="313" y="627"/>
      <point x="322" y="652"/>
    </contour>
    <contour>
      <point x="281" y="848" type="curve"/>
      <point x="331" y="848"/>
      <point x="367" y="813"/>
      <point x="367" y="767" type="curve" smooth="yes"/>
      <point x="367" y="760" type="line" smooth="yes"/>
      <point x="367" y="735"/>
      <point x="350" y="720"/>
      <point x="297" y="720" type="curve" smooth="yes"/>
      <point x="272" y="720"/>
      <point x="244" y="724"/>
      <point x="226" y="736" type="curve"/>
      <point x="203" y="695"/>
      <point x="230" y="627"/>
      <point x="297" y="627" type="curve"/>
      <point x="448" y="627"/>
      <point x="510" y="682"/>
      <point x="510" y="760" type="curve" smooth="yes"/>
      <point x="510" y="767" type="line" smooth="yes"/>
      <point x="510" y="861"/>
      <point x="434" y="923"/>
      <point x="303" y="923" type="curve"/>
      <point x="287" y="923"/>
      <point x="281" y="907"/>
    </contour>
  </outline>
</glyph>
<glyph name="AE" format="1">
  <advance width="800"/>
  <unicode hex="00C6"/>
  <outline>
    <contour>
      <point x="183" y="-2" type="curve"/>
      <point x="197" y="361"/>
      <point x="269" y="524"/>
      <point x="367" y="619" type="curve" smooth="yes"/>
      <point x="393" y="643"/>
      <point x="389" y="700"/>
      <point x="310" y="700" type="curve"/>
      <point x="210" y="700" type="line"/>
      <point x="73" y="536"/>
      <point x="13" y="338"/>
      <point x="13" y="57" type="curve" smooth="yes"/>
      <point x="13" y="8"/>
      <point x="59" y="-10"/>
      <point x="119" y="-10" type="curve" smooth="yes"/>
      <point x="147" y="-10"/>
      <point x="161" y="-9"/>
    </contour>
    <contour>
      <point x="525" y="8" type="curve"/>
      <point x="525" y="302"/>
      <point x="512" y="456"/>
      <point x="471" y="613" type="curve" smooth="yes"/>
      <point x="451" y="679"/>
      <point x="407" y="700"/>
      <point x="309" y="700" type="curve"/>
      <point x="283" y="700"/>
      <point x="259" y="608"/>
      <point x="259" y="520" type="curve"/>
      <point x="311" y="520" type="line"/>
      <point x="324" y="520"/>
      <point x="328" y="517"/>
      <point x="331" y="486" type="curve" smooth="yes"/>
      <point x="344" y="370"/>
      <point x="352" y="208"/>
      <point x="352" y="53" type="curve" smooth="yes"/>
      <point x="352" y="17"/>
      <point x="401" y="0"/>
      <point x="470" y="0" type="curve" smooth="yes"/>
      <point x="490" y="0"/>
      <point x="508" y="2"/>
    </contour>
    <contour>
      <point x="-5" y="310" type="line"/>
      <point x="-5" y="285" type="line"/>
      <point x="-5" y="201"/>
      <point x="10" y="160"/>
      <point x="41" y="160" type="curve"/>
      <point x="384" y="160" type="line"/>
      <point x="384" y="179" type="line"/>
      <point x="384" y="263"/>
      <point x="337" y="310"/>
      <point x="261" y="310" type="curve"/>
    </contour>
    <contour>
      <point x="295" y="700" type="line"/>
      <point x="295" y="675" type="line"/>
      <point x="295" y="571"/>
      <point x="349" y="520"/>
      <point x="372" y="520" type="curve" smooth="yes"/>
      <point x="774" y="520" type="line"/>
      <point x="779" y="548"/>
      <point x="780" y="562"/>
      <point x="780" y="585" type="curve" smooth="yes"/>
      <point x="780" y="625"/>
      <point x="772" y="659"/>
      <point x="755" y="676" type="curve" smooth="yes"/>
      <point x="736" y="695"/>
      <point x="721" y="700"/>
      <point x="689" y="700" type="curve"/>
    </contour>
    <contour>
      <point x="444" y="400" type="line"/>
      <point x="444" y="384" type="line"/>
      <point x="444" y="291"/>
      <point x="456" y="250"/>
      <point x="489" y="250" type="curve" smooth="yes"/>
      <point x="752" y="250" type="line"/>
      <point x="756" y="267"/>
      <point x="757" y="288"/>
      <point x="757" y="312" type="curve" smooth="yes"/>
      <point x="757" y="359"/>
      <point x="742" y="400"/>
      <point x="696" y="400" type="curve"/>
    </contour>
    <contour>
      <point x="395" y="170" type="line"/>
      <point x="395" y="152" type="line" smooth="yes"/>
      <point x="395" y="63"/>
      <point x="414" y="0"/>
      <point x="470" y="0" type="curve" smooth="yes"/>
      <point x="781" y="0" type="line"/>
      <point x="785" y="15"/>
      <point x="787" y="35"/>
      <point x="787" y="58" type="curve" smooth="yes"/>
      <point x="787" y="138"/>
      <point x="769" y="170"/>
      <point x="725" y="170" type="curve" smooth="yes"/>
    </contour>
    <contour>
      <point x="341" y="711" type="move" name="top"/>
    </contour>
  </outline>
</glyph>
<glyph name="Eacute" format="1">
  <advance width="550"/>
  <unicode hex="00C9"/>
  <outline>
    <contour>
      <point x="11" y="700" type="line"/>
      <point x="7" y="672"/>
      <point x="5" y="643"/>
      <point x="5" y="615" type="curve" smooth="yes"/>
      <point x="5" y="550"/>
      <point x="9" y="517"/>
      <point x="18" y="508" type="curve" smooth="yes"/>
      <point x="25" y="501"/>
      <point x="28" y="500"/>
      <point x="35" y="500" type="curve" smooth="yes"/>
      <point x="524" y="500" type="line"/>
      <point x="529" y="528"/>
      <point x="530" y="542"/>
      <point x="530" y="565" type="curve" smooth="yes"/>
      <point x="530" y="614"/>
      <point x="518" y="656"/>
      <point x="498" y="676" type="curve" smooth="yes"/>
      <point x="479" y="695"/>
      <point x="466" y="700"/>
      <point x="435" y="700" type="curve" smooth="yes"/>
    </contour>
    <contour>
      <point x="260" y="135" type="curve"/>
      <point x="260" y="442" type="line" smooth="yes"/>
      <point x="260" y="535"/>
      <point x="161" y="607"/>
      <point x="35" y="607" type="curve"/>
      <point x="35" y="190" type="line"/>
      <point x="35" y="150"/>
      <point x="98" y="135"/>
    </contour>
    <contour>
      <point x="35" y="200" type="line"/>
      <point x="35" y="175" type="line" smooth="yes"/>
      <point x="35" y="89"/>
      <point x="81" y="0"/>
      <point x="125" y="0" type="curve" smooth="yes"/>
      <point x="521" y="0" type="line"/>
      <point x="527" y="21"/>
      <point x="530" y="43"/>
      <point x="530" y="65" type="curve" smooth="yes"/>
      <point x="530" y="155"/>
      <point x="500" y="200"/>
      <point x="440" y="200" type="curve" smooth="yes"/>
    </contour>
    <contour>
      <point x="149" y="415" type="line"/>
      <point x="149" y="314"/>
      <point x="166" y="265"/>
      <point x="200" y="265" type="curve" smooth="yes"/>
      <point x="441" y="265" type="line"/>
      <point x="447" y="281"/>
      <point x="450" y="302"/>
      <point x="450" y="320" type="curve" smooth="yes"/>
      <point x="450" y="352"/>
      <point x="441" y="378"/>
      <point x="425" y="394" type="curve" smooth="yes"/>
      <point x="408" y="411"/>
      <point x="398" y="415"/>
      <point x="369" y="415" type="curve" smooth="yes"/>
    </contour>
    <contour>
      <point x="283" y="761" type="curve" smooth="yes"/>
      <point x="315" y="761"/>
      <point x="341" y="767"/>
      <point x="356" y="775" type="curve" smooth="yes"/>
      <point x="405" y="801"/>
      <point x="434" y="826"/>
      <point x="458" y="886" type="curve" smooth="yes"/>
      <point x="464" y="901"/>
      <point x="460" y="919"/>
      <point x="439" y="926" type="curve" smooth="yes"/>
      <point x="392" y="942"/>
      <point x="331" y="944"/>
      <point x="285" y="944" type="curve"/>
      <point x="264" y="868"/>
      <point x="234" y="834"/>
      <point x="173" y="775" type="curve"/>
      <point x="205" y="764"/>
      <point x="254" y="761"/>
    </contour>
  </outline>
</glyph>
<glyph name="Ecircumflex" format="1">
  <advance width="550"/>
  <unicode hex="00CA"/>
  <outline>
    <contour>
      <point x="11" y="700" type="line"/>
      <point x="7" y="672"/>
      <point x="5" y="643"/>
      <point x="5" y="615" type="curve" smooth="yes"/>
      <point x="5" y="550"/>
      <point x="9" y="517"/>
      <point x="18" y="508" type="curve" smooth="yes"/>
      <point x="25" y="501"/>
      <point x="28" y="500"/>
      <point x="35" y="500" type="curve" smooth="yes"/>
      <point x="524" y="500" type="line"/>
      <point x="529" y="528"/>
      <point x="530" y="542"/>
      <point x="530" y="565" type="curve" smooth="yes"/>
      <point x="530" y="614"/>
      <point x="518" y="656"/>
      <point x="498" y="676" type="curve" smooth="yes"/>
      <point x="479" y="695"/>
      <point x="466" y="700"/>
      <point x="435" y="700" type="curve" smooth="yes"/>
    </contour>
    <contour>
      <point x="260" y="135" type="curve"/>
      <point x="260" y="442" type="line" smooth="yes"/>
      <point x="260" y="535"/>
      <point x="161" y="607"/>
      <point x="35" y="607" type="curve"/>
      <point x="35" y="190" type="line"/>
      <point x="35" y="150"/>
      <point x="98" y="135"/>
    </contour>
    <contour>
      <point x="35" y="200" type="line"/>
      <point x="35" y="175" type="line" smooth="yes"/>
      <point x="35" y="89"/>
      <point x="81" y="0"/>
      <point x="125" y="0" type="curve" smooth="yes"/>
      <point x="521" y="0" type="line"/>
      <point x="527" y="21"/>
      <point x="530" y="43"/>
      <point x="530" y="65" type="curve" smooth="yes"/>
      <point x="530" y="155"/>
      <point x="500" y="200"/>
      <point x="440" y="200" type="curve" smooth="yes"/>
    </contour>
    <contour>
      <point x="149" y="415" type="line"/>
      <point x="149" y="314"/>
      <point x="166" y="265"/>
      <point x="200" y="265" type="curve" smooth="yes"/>
      <point x="441" y="265" type="line"/>
      <point x="447" y="281"/>
      <point x="450" y="302"/>
      <point x="450" y="320" type="curve" smooth="yes"/>
      <point x="450" y="352"/>
      <point x="441" y="378"/>
      <point x="425" y="394" type="curve" smooth="yes"/>
      <point x="408" y="411"/>
      <point x="398" y="415"/>
      <point x="369" y="415" type="curve" smooth="yes"/>
    </contour>
    <contour>
      <point x="200" y="765" type="line"/>
      <point x="228" y="813"/>
      <point x="282" y="855"/>
      <point x="347" y="874" type="curve"/>
      <point x="347" y="926"/>
      <point x="297" y="954"/>
      <point x="252" y="954" type="curve"/>
      <point x="228" y="954" type="line"/>
      <point x="183" y="935"/>
      <point x="118" y="886"/>
      <point x="89" y="846" type="curve" smooth="yes"/>
      <point x="73" y="823"/>
      <point x="66" y="807"/>
      <point x="66" y="800" type="curve" smooth="yes"/>
      <point x="66" y="779"/>
      <point x="144" y="765"/>
      <point x="194" y="765" type="curve"/>
    </contour>
    <contour>
      <point x="482" y="779" type="curve"/>
      <point x="451" y="841"/>
      <point x="409" y="891"/>
      <point x="360" y="924" type="curve" smooth="yes"/>
      <point x="317" y="953"/>
      <point x="287" y="954"/>
      <point x="257" y="954" type="curve" smooth="yes"/>
      <point x="249" y="954" type="line"/>
      <point x="230" y="954"/>
      <point x="193" y="928"/>
      <point x="181" y="872" type="curve"/>
      <point x="256" y="851"/>
      <point x="285" y="827"/>
      <point x="317" y="787" type="curve" smooth="yes"/>
      <point x="329" y="770"/>
      <point x="345" y="761"/>
      <point x="378" y="761" type="curve" smooth="yes"/>
      <point x="412" y="761"/>
      <point x="457" y="769"/>
    </contour>
  </outline>
</glyph>
<glyph name="Igrave" format="1">
  <advance width="500"/>
  <unicode hex="00CC"/>
  <outline>
    <contour>
      <point x="363" y="103" type="curve"/>
      <point x="363" y="432" type="line" smooth="yes"/>
      <point x="363" y="548"/>
      <point x="264" y="597"/>
      <point x="137" y="597" type="curve"/>
      <point x="137" y="275" type="line" smooth="yes"/>
      <point x="137" y="155"/>
      <point x="234" y="103"/>
    </contour>
    <contour>
      <point x="38" y="700" type="line"/>
      <point x="34" y="677"/>
      <point x="31" y="649"/>
      <point x="31" y="622" type="curve"/>
      <point x="31" y="588"/>
      <point x="38" y="535"/>
      <point x="59" y="514" type="curve" smooth="yes"/>
      <point x="76" y="497"/>
      <point x="91" y="490"/>
      <point x="139" y="490" type="curve" smooth="yes"/>
      <point x="459" y="490" type="line"/>
      <point x="465" y="509"/>
      <point x="469" y="539"/>
      <point x="469" y="568" type="curve" smooth="yes"/>
      <point x="469" y="641"/>
      <point x="461" y="700"/>
      <point x="407" y="700" type="curve" smooth="yes"/>
    </contour>
    <contour>
      <point x="38" y="210" type="line"/>
      <point x="34" y="187"/>
      <point x="31" y="159"/>
      <point x="31" y="132" type="curve"/>
      <point x="31" y="98"/>
      <point x="38" y="45"/>
      <point x="59" y="24" type="curve" smooth="yes"/>
      <point x="76" y="7"/>
      <point x="91" y="0"/>
      <point x="139" y="0" type="curve" smooth="yes"/>
      <point x="459" y="0" type="line"/>
      <point x="465" y="19"/>
      <point x="469" y="49"/>
      <point x="469" y="78" type="curve" smooth="yes"/>
      <point x="469" y="151"/>
      <point x="461" y="210"/>
      <point x="407" y="210" type="curve" smooth="yes"/>
    </contour>
    <contour>
      <point x="344" y="775" type="curve"/>
      <point x="283" y="834"/>
      <point x="253" y="868"/>
      <point x="232" y="944" type="curve"/>
      <point x="186" y="944"/>
      <point x="125" y="942"/>
      <point x="78" y="926" type="curve" smooth="yes"/>
      <point x="57" y="919"/>
      <point x="53" y="901"/>
      <point x="59" y="886" type="curve" smooth="yes"/>
      <point x="83" y="826"/>
      <point x="112" y="801"/>
      <point x="161" y="775" type="curve" smooth="yes"/>
      <point x="176" y="767"/>
      <point x="202" y="761"/>
      <point x="234" y="761" type="curve" smooth="yes"/>
      <point x="263" y="761"/>
      <point x="312" y="764"/>
    </contour>
  </outline>
</glyph>
<glyph name="Iacute" format="1">
  <advance width="500"/>
  <unicode hex="00CD"/>
  <outline>
    <contour>
      <point x="363" y="103" type="curve"/>
      <point x="363" y="432" type="line" smooth="yes"/>
      <point x="363" y="548"/>
      <point x="264" y="597"/>
      <point x="137" y="597" type="curve"/>
      <point x="137" y="275" type="line" smooth="yes"/>
      <point x="137" y="155"/>
      <point x="234" y="103"/>
    </contour>
    <contour>
      <point x="38" y="700" type="line"/>
      <point x="34" y="677"/>
      <point x="31" y="649"/>
      <point x="31" y="622" type="curve"/>
      <point x="31" y="588"/>
      <point x="38" y="535"/>
      <point x="59" y="514" type="curve" smooth="yes"/>
      <point x="76" y="497"/>
      <point x="91" y="490"/>
      <point x="139" y="490" type="curve" smooth="yes"/>
      <point x="459" y="490" type="line"/>
      <point x="465" y="509"/>
      <point x="469" y="539"/>
      <point x="469" y="568" type="curve" smooth="yes"/>
      <point x="469" y="641"/>
      <point x="461" y="700"/>
      <point x="407" y="700" type="curve" smooth="yes"/>
    </contour>
    <contour>
      <point x="38" y="210" type="line"/>
      <point x="34" y="187"/>
      <point x="31" y="159"/>
      <point x="31" y="132" type="curve"/>
      <point x="31" y="98"/>
      <point x="38" y="45"/>
      <point x="59" y="24" type="curve" smooth="yes"/>
      <point x="76" y="7"/>
      <point x="91" y="0"/>
      <point x="139" y="0" type="curve" smooth="yes"/>
      <point x="459" y="0" type="line"/>
      <point x="465" y="19"/>
      <point x="469" y="49"/>
      <point x="469" y="78" type="curve" smooth="yes"/>
      <point x="469" y="151"/>
      <point x="461" y="210"/>
      <point x="407" y="210" type="curve" smooth="yes"/>
    </contour>
    <contour>
      <point x="266" y="761" type="curve" smooth="yes"/>
      <point x="298" y="761"/>
      <point x="324" y="767"/>
      <point x="339" y="775" type="curve" smooth="yes"/>
      <point x="388" y="801"/>
      <point x="417" y="826"/>
      <point x="441" y="886" type="curve" smooth="yes"/>
      <point x="447" y="901"/>
      <point x="443" y="919"/>
      <point x="422" y="926" type="curve" smooth="yes"/>
      <point x="375" y="942"/>
      <point x="314" y="944"/>
      <point x="268" y="944" type="curve"/>
      <point x="247" y="868"/>
      <point x="217" y="834"/>
      <point x="156" y="775" type="curve"/>
      <point x="188" y="764"/>
      <point x="237" y="761"/>
    </contour>
  </outline>
</glyph>
<glyph name="Icircumflex" format="1">
  <advance width="500"/>
  <unicode hex="00CE"/>
  <outline>
    <contour>
      <point x="363" y="103" type="curve"/>
      <point x="363" y="432" type="line" smooth="yes"/>
      <point x="363" y="548"/>
      <point x="264" y="597"/>
      <point x="137" y="597" type="curve"/>
      <point x="137" y="275" type="line" smooth="yes"/>
      <point x="137" y="155"/>
      <point x="234" y="103"/>
    </contour>
    <contour>
      <point x="38" y="700" type="line"/>
      <point x="34" y="677"/>
      <point x="31" y="649"/>
      <point x="31" y="622" type="curve"/>
      <point x="31" y="588"/>
      <point x="38" y="535"/>
      <point x="59" y="514" type="curve" smooth="yes"/>
      <point x="76" y="497"/>
      <point x="91" y="490"/>
      <point x="139" y="490" type="curve" smooth="yes"/>
      <point x="459" y="490" type="line"/>
      <point x="465" y="509"/>
      <point x="469" y="539"/>
      <point x="469" y="568" type="curve" smooth="yes"/>
      <point x="469" y="641"/>
      <point x="461" y="700"/>
      <point x="407" y="700" type="curve" smooth="yes"/>
    </contour>
    <contour>
      <point x="38" y="210" type="line"/>
      <point x="34" y="187"/>
      <point x="31" y="159"/>
      <point x="31" y="132" type="curve"/>
      <point x="31" y="98"/>
      <point x="38" y="45"/>
      <point x="59" y="24" type="curve" smooth="yes"/>
      <point x="76" y="7"/>
      <point x="91" y="0"/>
      <point x="139" y="0" type="curve" smooth="yes"/>
      <point x="459" y="0" type="line"/>
      <point x="465" y="19"/>
      <point x="469" y="49"/>
      <point x="469" y="78" type="curve" smooth="yes"/>
      <point x="469" y="151"/>
      <point x="461" y="210"/>
      <point x="407" y="210" type="curve" smooth="yes"/>
    </contour>
    <contour>
      <point x="183" y="765" type="line"/>
      <point x="211" y="813"/>
      <point x="265" y="855"/>
      <point x="330" y="874" type="curve"/>
      <point x="330" y="926"/>
      <point x="280" y="954"/>
      <point x="235" y="954" type="curve"/>
      <point x="211" y="954" type="line"/>
      <point x="166" y="935"/>
      <point x="101" y="886"/>
      <point x="72" y="846" type="curve" smooth="yes"/>
      <point x="56" y="823"/>
      <point x="49" y="807"/>
      <point x="49" y="800" type="curve" smooth="yes"/>
      <point x="49" y="779"/>
      <point x="127" y="765"/>
      <point x="177" y="765" type="curve"/>
    </contour>
    <contour>
      <point x="465" y="779" type="curve"/>
      <point x="434" y="841"/>
      <point x="392" y="891"/>
      <point x="343" y="924" type="curve" smooth="yes"/>
      <point x="300" y="953"/>
      <point x="270" y="954"/>
      <point x="240" y="954" type="curve" smooth="yes"/>
      <point x="232" y="954" type="line"/>
      <point x="213" y="954"/>
      <point x="176" y="928"/>
      <point x="164" y="872" type="curve"/>
      <point x="239" y="851"/>
      <point x="268" y="827"/>
      <point x="300" y="787" type="curve" smooth="yes"/>
      <point x="312" y="770"/>
      <point x="328" y="761"/>
      <point x="361" y="761" type="curve" smooth="yes"/>
      <point x="395" y="761"/>
      <point x="440" y="769"/>
    </contour>
  </outline>
</glyph>
<glyph name="Idieresis" format="1">
  <advance width="500"/>
  <unicode hex="00CF"/>
  <outline>
    <contour>
      <point x="363" y="103" type="curve"/>
      <point x="363" y="432" type="line" smooth="yes"/>
      <point x="363" y="548"/>
      <point x="264" y="597"/>
      <point x="137" y="597" type="curve"/>
      <point x="137" y="275" type="line" smooth="yes"/>
      <point x="137" y="155"/>
      <point x="234" y="103"/>
    </contour>
    <contour>
      <point x="38" y="700" type="line"/>
      <point x="34" y="677"/>
      <point x="31" y="649"/>
      <point x="31" y="622" type="curve"/>
      <point x="31" y="588"/>
      <point x="38" y="535"/>
      <point x="59" y="514" type="curve" smooth="yes"/>
      <point x="76" y="497"/>
      <point x="91" y="490"/>
      <point x="139" y="490" type="curve" smooth="yes"/>
      <point x="459" y="490" type="line"/>
      <point x="465" y="509"/>
      <point x="469" y="539"/>
      <point x="469" y="568" type="curve" smooth="yes"/>
      <point x="469" y="641"/>
      <point x="461" y="700"/>
      <point x="407" y="700" type="curve" smooth="yes"/>
    </contour>
    <contour>
      <point x="38" y="210" type="line"/>
      <point x="34" y="187"/>
      <point x="31" y="159"/>
      <point x="31" y="132" type="curve"/>
      <point x="31" y="98"/>
      <point x="38" y="45"/>
      <point x="59" y="24" type="curve" smooth="yes"/>
      <point x="76" y="7"/>
      <point x="91" y="0"/>
      <point x="139" y="0" type="curve" smooth="yes"/>
      <point x="459" y="0" type="line"/>
      <point x="465" y="19"/>
      <point x="469" y="49"/>
      <point x="469" y="78" type="curve" smooth="yes"/>
      <point x="469" y="151"/>
      <point x="461" y="210"/>
      <point x="407" y="210" type="curve" smooth="yes"/>
    </contour>
    <contour>
      <point x="218" y="789" type="curve"/>
      <point x="218" y="887" type="line" smooth="yes"/>
      <point x="218" y="931"/>
      <point x="169" y="936"/>
      <point x="126" y="936" type="curve" smooth="yes"/>
      <point x="108" y="936"/>
      <point x="83" y="935"/>
      <point x="62" y="933" type="curve"/>
      <point x="62" y="836" type="line" smooth="yes"/>
      <point x="62" y="792"/>
      <point x="111" y="785"/>
      <point x="153" y="785" type="curve" smooth="yes"/>
      <point x="172" y="785"/>
      <point x="197" y="785"/>
    </contour>
    <contour>
      <point x="438" y="789" type="curve"/>
      <point x="438" y="887" type="line" smooth="yes"/>
      <point x="438" y="931"/>
      <point x="389" y="936"/>
      <point x="346" y="936" type="curve" smooth="yes"/>
      <point x="328" y="936"/>
      <point x="303" y="935"/>
      <point x="282" y="933" type="curve"/>
      <point x="282" y="836" type="line" smooth="yes"/>
      <point x="282" y="792"/>
      <point x="331" y="785"/>
      <point x="373" y="785" type="curve" smooth="yes"/>
      <point x="392" y="785"/>
      <point x="417" y="785"/>
    </contour>
  </outline>
</glyph>
<glyph name="Ntilde" format="1">
  <advance width="700"/>
  <unicode hex="00D1"/>
  <outline>
    <contour>
      <point x="245" y="-2" type="curve"/>
      <point x="245" y="161" type="line"/>
      <point x="245" y="336"/>
      <point x="190" y="643"/>
      <point x="151" y="682" type="curve" smooth="yes"/>
      <point x="134" y="699"/>
      <point x="126" y="710"/>
      <point x="112" y="710" type="curve"/>
      <point x="89" y="710"/>
      <point x="54" y="707"/>
      <point x="23" y="700" type="curve"/>
      <point x="31" y="662"/>
      <point x="35" y="617"/>
      <point x="35" y="560" type="curve" smooth="yes"/>
      <point x="35" y="45" type="line"/>
      <point x="35" y="-2"/>
      <point x="112" y="-10"/>
      <point x="174" y="-10" type="curve"/>
      <point x="199" y="-10"/>
      <point x="221" y="-7"/>
    </contour>
    <contour>
      <point x="665" y="-10" type="line"/>
      <point x="665" y="641" type="line"/>
      <point x="665" y="690"/>
      <point x="583" y="710"/>
      <point x="480" y="710" type="curve"/>
      <point x="455" y="710" type="line"/>
      <point x="455" y="520" type="line"/>
      <point x="455" y="294"/>
      <point x="493" y="60"/>
      <point x="543" y="10" type="curve" smooth="yes"/>
      <point x="561" y="-8"/>
      <point x="570" y="-10"/>
      <point x="580" y="-10" type="curve"/>
    </contour>
    <contour>
      <point x="112" y="710" type="line"/>
      <point x="141" y="664"/>
      <point x="155" y="622"/>
      <point x="170" y="569" type="curve"/>
      <point x="226" y="376"/>
      <point x="327" y="152"/>
      <point x="444" y="35" type="curve"/>
      <point x="474" y="5"/>
      <point x="514" y="-10"/>
      <point x="580" y="-10" type="curve" smooth="yes"/>
      <point x="597" y="-10"/>
      <point x="602" y="-10"/>
      <point x="619" y="-10" type="curve"/>
      <point x="645" y="-10"/>
      <point x="661" y="39"/>
      <point x="650" y="95" type="curve"/>
      <point x="485" y="257"/>
      <point x="373" y="436"/>
      <point x="323" y="650" type="curve"/>
      <point x="313" y="690"/>
      <point x="212" y="710"/>
      <point x="122" y="710" type="curve"/>
    </contour>
    <contour>
      <point x="440" y="922" type="curve" smooth="yes"/>
      <point x="370" y="922"/>
      <point x="305" y="974"/>
      <point x="234" y="974" type="curve" smooth="yes"/>
      <point x="208" y="974"/>
      <point x="186" y="967"/>
      <point x="169" y="950" type="curve" smooth="yes"/>
      <point x="149" y="930"/>
      <point x="137" y="896"/>
      <point x="137" y="843" type="curve" smooth="yes"/>
      <point x="137" y="811"/>
      <point x="141" y="786"/>
      <point x="149" y="764" type="curve"/>
      <point x="153" y="764" type="line"/>
      <point x="187" y="792"/>
      <point x="208" y="802"/>
      <point x="248" y="802" type="curve" smooth="yes"/>
      <point x="318" y="802"/>
      <point x="383" y="750"/>
      <point x="454" y="750" type="curve" smooth="yes"/>
      <point x="480" y="750"/>
      <point x="502" y="757"/>
      <point x="519" y="774" type="curve" smooth="yes"/>
      <point x="539" y="794"/>
      <point x="551" y="828"/>
      <point x="551" y="881" type="curve" smooth="yes"/>
      <point x="551" y="913"/>
      <point x="547" y="938"/>
      <point x="539" y="960" type="curve"/>
      <point x="535" y="960" type="line"/>
      <point x="501" y="932"/>
      <point x="480" y="922"/>
    </contour>
  </outline>
</glyph>
<glyph name="Ograve" format="1">
  <advance width="650"/>
  <unicode hex="00D2"/>
  <outline>
    <contour>
      <point x="327" y="720" type="curve" smooth="yes"/>
      <point x="131" y="720"/>
      <point x="20" y="581"/>
      <point x="20" y="360" type="curve" smooth="yes"/>
      <point x="20" y="340" type="line" smooth="yes"/>
      <point x="20" y="104"/>
      <point x="111" y="-20"/>
      <point x="323" y="-20" type="curve" smooth="yes"/>
      <point x="356" y="-20"/>
      <point x="380" y="50"/>
      <point x="380" y="146" type="curve"/>
      <point x="284" y="146"/>
      <point x="248" y="181"/>
      <point x="248" y="347" type="curve" smooth="yes"/>
      <point x="248" y="360" type="line" smooth="yes"/>
      <point x="248" y="462"/>
      <point x="277" y="510"/>
      <point x="333" y="510" type="curve" smooth="yes"/>
      <point x="389" y="510"/>
      <point x="418" y="499"/>
      <point x="457" y="462" type="curve"/>
      <point x="529" y="586"/>
      <point x="443" y="720"/>
    </contour>
    <contour>
      <point x="323" y="-20" type="curve" smooth="yes"/>
      <point x="519" y="-20"/>
      <point x="630" y="120"/>
      <point x="630" y="340" type="curve" smooth="yes"/>
      <point x="630" y="360" type="line" smooth="yes"/>
      <point x="630" y="597"/>
      <point x="539" y="720"/>
      <point x="327" y="720" type="curve" smooth="yes"/>
      <point x="294" y="720"/>
      <point x="270" y="650"/>
      <point x="270" y="554" type="curve"/>
      <point x="366" y="554"/>
      <point x="402" y="524"/>
      <point x="402" y="373" type="curve" smooth="yes"/>
      <point x="402" y="360" type="line" smooth="yes"/>
      <point x="402" y="244"/>
      <point x="374" y="190"/>
      <point x="317" y="190" type="curve" smooth="yes"/>
      <point x="261" y="190"/>
      <point x="232" y="201"/>
      <point x="193" y="238" type="curve"/>
      <point x="138" y="143"/>
      <point x="200" y="-20"/>
    </contour>
    <contour>
      <point x="419" y="775" type="curve"/>
      <point x="358" y="834"/>
      <point x="328" y="868"/>
      <point x="307" y="944" type="curve"/>
      <point x="261" y="944"/>
      <point x="200" y="942"/>
      <point x="153" y="926" type="curve" smooth="yes"/>
      <point x="132" y="919"/>
      <point x="128" y="901"/>
      <point x="134" y="886" type="curve" smooth="yes"/>
      <point x="158" y="826"/>
      <point x="187" y="801"/>
      <point x="236" y="775" type="curve" smooth="yes"/>
      <point x="251" y="767"/>
      <point x="277" y="761"/>
      <point x="309" y="761" type="curve" smooth="yes"/>
      <point x="338" y="761"/>
      <point x="387" y="764"/>
    </contour>
  </outline>
</glyph>
<glyph name="Oacute" format="1">
  <advance width="650"/>
  <unicode hex="00D3"/>
  <outline>
    <contour>
      <point x="327" y="720" type="curve" smooth="yes"/>
      <point x="131" y="720"/>
      <point x="20" y="581"/>
      <point x="20" y="360" type="curve" smooth="yes"/>
      <point x="20" y="340" type="line" smooth="yes"/>
      <point x="20" y="104"/>
      <point x="111" y="-20"/>
      <point x="323" y="-20" type="curve" smooth="yes"/>
      <point x="356" y="-20"/>
      <point x="380" y="50"/>
      <point x="380" y="146" type="curve"/>
      <point x="284" y="146"/>
      <point x="248" y="181"/>
      <point x="248" y="347" type="curve" smooth="yes"/>
      <point x="248" y="360" type="line" smooth="yes"/>
      <point x="248" y="462"/>
      <point x="277" y="510"/>
      <point x="333" y="510" type="curve" smooth="yes"/>
      <point x="389" y="510"/>
      <point x="418" y="499"/>
      <point x="457" y="462" type="curve"/>
      <point x="529" y="586"/>
      <point x="443" y="720"/>
    </contour>
    <contour>
      <point x="323" y="-20" type="curve" smooth="yes"/>
      <point x="519" y="-20"/>
      <point x="630" y="120"/>
      <point x="630" y="340" type="curve" smooth="yes"/>
      <point x="630" y="360" type="line" smooth="yes"/>
      <point x="630" y="597"/>
      <point x="539" y="720"/>
      <point x="327" y="720" type="curve" smooth="yes"/>
      <point x="294" y="720"/>
      <point x="270" y="650"/>
      <point x="270" y="554" type="curve"/>
      <point x="366" y="554"/>
      <point x="402" y="524"/>
      <point x="402" y="373" type="curve" smooth="yes"/>
      <point x="402" y="360" type="line" smooth="yes"/>
      <point x="402" y="244"/>
      <point x="374" y="190"/>
      <point x="317" y="190" type="curve" smooth="yes"/>
      <point x="261" y="190"/>
      <point x="232" y="201"/>
      <point x="193" y="238" type="curve"/>
      <point x="138" y="143"/>
      <point x="200" y="-20"/>
    </contour>
    <contour>
      <point x="341" y="761" type="curve" smooth="yes"/>
      <point x="373" y="761"/>
      <point x="399" y="767"/>
      <point x="414" y="775" type="curve" smooth="yes"/>
      <point x="463" y="801"/>
      <point x="492" y="826"/>
      <point x="516" y="886" type="curve" smooth="yes"/>
      <point x="522" y="901"/>
      <point x="518" y="919"/>
      <point x="497" y="926" type="curve" smooth="yes"/>
      <point x="450" y="942"/>
      <point x="389" y="944"/>
      <point x="343" y="944" type="curve"/>
      <point x="322" y="868"/>
      <point x="292" y="834"/>
      <point x="231" y="775" type="curve"/>
      <point x="263" y="764"/>
      <point x="312" y="761"/>
    </contour>
  </outline>
</glyph>
<glyph name="Ocircumflex" format="1">
  <advance width="650"/>
  <unicode hex="00D4"/>
  <outline>
    <contour>
      <point x="327" y="720" type="curve" smooth="yes"/>
      <point x="131" y="720"/>
      <point x="20" y="581"/>
      <point x="20" y="360" type="curve" smooth="yes"/>
      <point x="20" y="340" type="line" smooth="yes"/>
      <point x="20" y="104"/>
      <point x="111" y="-20"/>
      <point x="323" y="-20" type="curve" smooth="yes"/>
      <point x="356" y="-20"/>
      <point x="380" y="50"/>
      <point x="380" y="146" type="curve"/>
      <point x="284" y="146"/>
      <point x="248" y="181"/>
      <point x="248" y="347" type="curve" smooth="yes"/>
      <point x="248" y="360" type="line" smooth="yes"/>
      <point x="248" y="462"/>
      <point x="277" y="510"/>
      <point x="333" y="510" type="curve" smooth="yes"/>
      <point x="389" y="510"/>
      <point x="418" y="499"/>
      <point x="457" y="462" type="curve"/>
      <point x="529" y="586"/>
      <point x="443" y="720"/>
    </contour>
    <contour>
      <point x="323" y="-20" type="curve" smooth="yes"/>
      <point x="519" y="-20"/>
      <point x="630" y="120"/>
      <point x="630" y="340" type="curve" smooth="yes"/>
      <point x="630" y="360" type="line" smooth="yes"/>
      <point x="630" y="597"/>
      <point x="539" y="720"/>
      <point x="327" y="720" type="curve" smooth="yes"/>
      <point x="294" y="720"/>
      <point x="270" y="650"/>
      <point x="270" y="554" type="curve"/>
      <point x="366" y="554"/>
      <point x="402" y="524"/>
      <point x="402" y="373" type="curve" smooth="yes"/>
      <point x="402" y="360" type="line" smooth="yes"/>
      <point x="402" y="244"/>
      <point x="374" y="190"/>
      <point x="317" y="190" type="curve" smooth="yes"/>
      <point x="261" y="190"/>
      <point x="232" y="201"/>
      <point x="193" y="238" type="curve"/>
      <point x="138" y="143"/>
      <point x="200" y="-20"/>
    </contour>
    <contour>
      <point x="258" y="765" type="line"/>
      <point x="286" y="813"/>
      <point x="340" y="855"/>
      <point x="405" y="874" type="curve"/>
      <point x="405" y="926"/>
      <point x="355" y="954"/>
      <point x="310" y="954" type="curve"/>
      <point x="286" y="954" type="line"/>
      <point x="241" y="935"/>
      <point x="176" y="886"/>
      <point x="147" y="846" type="curve" smooth="yes"/>
      <point x="131" y="823"/>
      <point x="124" y="807"/>
      <point x="124" y="800" type="curve" smooth="yes"/>
      <point x="124" y="779"/>
      <point x="202" y="765"/>
      <point x="252" y="765" type="curve"/>
    </contour>
    <contour>
      <point x="540" y="779" type="curve"/>
      <point x="509" y="841"/>
      <point x="467" y="891"/>
      <point x="418" y="924" type="curve" smooth="yes"/>
      <point x="375" y="953"/>
      <point x="345" y="954"/>
      <point x="315" y="954" type="curve" smooth="yes"/>
      <point x="307" y="954" type="line"/>
      <point x="288" y="954"/>
      <point x="251" y="928"/>
      <point x="239" y="872" type="curve"/>
      <point x="314" y="851"/>
      <point x="343" y="827"/>
      <point x="375" y="787" type="curve" smooth="yes"/>
      <point x="387" y="770"/>
      <point x="403" y="761"/>
      <point x="436" y="761" type="curve" smooth="yes"/>
      <point x="470" y="761"/>
      <point x="515" y="769"/>
    </contour>
  </outline>
</glyph>
<glyph name="Otilde" format="1">
  <advance width="650"/>
  <unicode hex="00D5"/>
  <outline>
    <contour>
      <point x="327" y="720" type="curve" smooth="yes"/>
      <point x="131" y="720"/>
      <point x="20" y="581"/>
      <point x="20" y="360" type="curve" smooth="yes"/>
      <point x="20" y="340" type="line" smooth="yes"/>
      <point x="20" y="104"/>
      <point x="111" y="-20"/>
      <point x="323" y="-20" type="curve" smooth="yes"/>
      <point x="356" y="-20"/>
      <point x="380" y="50"/>
      <point x="380" y="146" type="curve"/>
      <point x="284" y="146"/>
      <point x="248" y="181"/>
      <point x="248" y="347" type="curve" smooth="yes"/>
      <point x="248" y="360" type="line" smooth="yes"/>
      <point x="248" y="462"/>
      <point x="277" y="510"/>
      <point x="333" y="510" type="curve" smooth="yes"/>
      <point x="389" y="510"/>
      <point x="418" y="499"/>
      <point x="457" y="462" type="curve"/>
      <point x="529" y="586"/>
      <point x="443" y="720"/>
    </contour>
    <contour>
      <point x="323" y="-20" type="curve" smooth="yes"/>
      <point x="519" y="-20"/>
      <point x="630" y="120"/>
      <point x="630" y="340" type="curve" smooth="yes"/>
      <point x="630" y="360" type="line" smooth="yes"/>
      <point x="630" y="597"/>
      <point x="539" y="720"/>
      <point x="327" y="720" type="curve" smooth="yes"/>
      <point x="294" y="720"/>
      <point x="270" y="650"/>
      <point x="270" y="554" type="curve"/>
      <point x="366" y="554"/>
      <point x="402" y="524"/>
      <point x="402" y="373" type="curve" smooth="yes"/>
      <point x="402" y="360" type="line" smooth="yes"/>
      <point x="402" y="244"/>
      <point x="374" y="190"/>
      <point x="317" y="190" type="curve" smooth="yes"/>
      <point x="261" y="190"/>
      <point x="232" y="201"/>
      <point x="193" y="238" type="curve"/>
      <point x="138" y="143"/>
      <point x="200" y="-20"/>
    </contour>
    <contour>
      <point x="421" y="922" type="curve" smooth="yes"/>
      <point x="351" y="922"/>
      <point x="286" y="974"/>
      <point x="215" y="974" type="curve" smooth="yes"/>
      <point x="189" y="974"/>
      <point x="167" y="967"/>
      <point x="150" y="950" type="curve" smooth="yes"/>
      <point x="130" y="930"/>
      <point x="118" y="896"/>
      <point x="118" y="843" type="curve" smooth="yes"/>
      <point x="118" y="811"/>
      <point x="122" y="786"/>
      <point x="130" y="764" type="curve"/>
      <point x="134" y="764" type="line"/>
      <point x="168" y="792"/>
      <point x="189" y="802"/>
      <point x="229" y="802" type="curve" smooth="yes"/>
      <point x="299" y="802"/>
      <point x="364" y="750"/>
      <point x="435" y="750" type="curve" smooth="yes"/>
      <point x="461" y="750"/>
      <point x="483" y="757"/>
      <point x="500" y="774" type="curve" smooth="yes"/>
      <point x="520" y="794"/>
      <point x="532" y="828"/>
      <point x="532" y="881" type="curve" smooth="yes"/>
      <point x="532" y="913"/>
      <point x="528" y="938"/>
      <point x="520" y="960" type="curve"/>
      <point x="516" y="960" type="line"/>
      <point x="482" y="932"/>
      <point x="461" y="922"/>
    </contour>
  </outline>
</glyph>
<glyph name="Odieresis" format="1">
  <advance width="650"/>
  <unicode hex="00D6"/>
  <outline>
    <contour>
      <point x="327" y="720" type="curve" smooth="yes"/>
      <point x="131" y="720"/>
      <point x="20" y="581"/>
      <point x="20" y="360" type="curve" smooth="yes"/>
      <point x="20" y="340" type="line" smooth="yes"/>
      <point x="20" y="104"/>
      <point x="111" y="-20"/>
      <point x="323" y="-20" type="curve" smooth="yes"/>
      <point x="356" y="-20"/>
      <point x="380" y="50"/>
      <point x="380" y="146" type="curve"/>
      <point x="284" y="146"/>
      <point x="248" y="181"/>
      <point x="248" y="347" type="curve" smooth="yes"/>
      <point x="248" y="360" type="line" smooth="yes"/>
      <point x="248" y="462"/>
      <point x="277" y="510"/>
      <point x="333" y="510" type="curve" smooth="yes"/>
      <point x="389" y="510"/>
      <point x="418" y="499"/>
      <point x="457" y="462" type="curve"/>
      <point x="529" y="586"/>
      <point x="443" y="720"/>
    </contour>
    <contour>
      <point x="323" y="-20" type="curve" smooth="yes"/>
      <point x="519" y="-20"/>
      <point x="630" y="120"/>
      <point x="630" y="340" type="curve" smooth="yes"/>
      <point x="630" y="360" type="line" smooth="yes"/>
      <point x="630" y="597"/>
      <point x="539" y="720"/>
      <point x="327" y="720" type="curve" smooth="yes"/>
      <point x="294" y="720"/>
      <point x="270" y="650"/>
      <point x="270" y="554" type="curve"/>
      <point x="366" y="554"/>
      <point x="402" y="524"/>
      <point x="402" y="373" type="curve" smooth="yes"/>
      <point x="402" y="360" type="line" smooth="yes"/>
      <point x="402" y="244"/>
      <point x="374" y="190"/>
      <point x="317" y="190" type="curve" smooth="yes"/>
      <point x="261" y="190"/>
      <point x="232" y="201"/>
      <point x="193" y="238" type="curve"/>
      <point x="138" y="143"/>
      <point x="200" y="-20"/>
    </contour>
    <contour>
      <point x="293" y="789" type="curve"/>
      <point x="293" y="887" type="line" smooth="yes"/>
      <point x="293" y="931"/>
      <point x="244" y="936"/>
      <point x="201" y="936" type="curve" smooth="yes"/>
      <point x="183" y="936"/>
      <point x="158" y="935"/>
      <point x="137" y="933" type="curve"/>
      <point x="137" y="836" type="line" smooth="yes"/>
      <point x="137" y="792"/>
      <point x="186" y="785"/>
      <point x="228" y="785" type="curve" smooth="yes"/>
      <point x="247" y="785"/>
      <point x="272" y="785"/>
    </contour>
    <contour>
      <point x="513" y="789" type="curve"/>
      <point x="513" y="887" type="line" smooth="yes"/>
      <point x="513" y="931"/>
      <point x="464" y="936"/>
      <point x="421" y="936" type="curve" smooth="yes"/>
      <point x="403" y="936"/>
      <point x="378" y="935"/>
      <point x="357" y="933" type="curve"/>
      <point x="357" y="836" type="line" smooth="yes"/>
      <point x="357" y="792"/>
      <point x="406" y="785"/>
      <point x="448" y="785" type="curve" smooth="yes"/>
      <point x="467" y="785"/>
      <point x="492" y="785"/>
    </contour>
  </outline>
</glyph>
<glyph name="Ucircumflex" format="1">
  <advance width="650"/>
  <unicode hex="00DB"/>
  <outline>
    <contour>
      <point x="23" y="705" type="curve"/>
      <point x="31" y="663"/>
      <point x="35" y="616"/>
      <point x="35" y="560" type="curve" smooth="yes"/>
      <point x="35" y="174" type="line"/>
      <point x="35" y="121"/>
      <point x="136" y="79"/>
      <point x="212" y="79" type="curve"/>
      <point x="258" y="316"/>
      <point x="270" y="436"/>
      <point x="270" y="588" type="curve"/>
      <point x="270" y="599" type="line"/>
      <point x="270" y="679"/>
      <point x="221" y="710"/>
      <point x="125" y="710" type="curve"/>
      <point x="89" y="710"/>
      <point x="56" y="708"/>
    </contour>
    <contour>
      <point x="193" y="-14" type="curve" smooth="yes"/>
      <point x="260" y="-14"/>
      <point x="341" y="21"/>
      <point x="404" y="132" type="curve" smooth="yes"/>
      <point x="423" y="166"/>
      <point x="437" y="219"/>
      <point x="403" y="293" type="curve"/>
      <point x="378" y="223"/>
      <point x="330" y="196"/>
      <point x="268" y="196" type="curve" smooth="yes"/>
      <point x="243" y="196"/>
      <point x="224" y="208"/>
      <point x="216" y="228" type="curve"/>
      <point x="69" y="223"/>
      <point x="35" y="194"/>
      <point x="35" y="174" type="curve" smooth="yes"/>
      <point x="35" y="88"/>
      <point x="121" y="-14"/>
    </contour>
    <contour>
      <point x="627" y="0" type="curve"/>
      <point x="619" y="38"/>
      <point x="615" y="83"/>
      <point x="615" y="140" type="curve" smooth="yes"/>
      <point x="615" y="624" type="line" smooth="yes"/>
      <point x="615" y="691"/>
      <point x="588" y="707"/>
      <point x="475" y="707" type="curve" smooth="yes"/>
      <point x="445" y="707"/>
      <point x="416" y="705"/>
      <point x="390" y="700" type="curve"/>
      <point x="390" y="106" type="line" smooth="yes"/>
      <point x="390" y="59"/>
      <point x="397" y="32"/>
      <point x="413" y="16" type="curve" smooth="yes"/>
      <point x="432" y="-3"/>
      <point x="464" y="-10"/>
      <point x="530" y="-10" type="curve" smooth="yes"/>
      <point x="564" y="-10"/>
      <point x="596" y="-7"/>
    </contour>
    <contour>
      <point x="258" y="765" type="line"/>
      <point x="286" y="813"/>
      <point x="340" y="855"/>
      <point x="405" y="874" type="curve"/>
      <point x="405" y="926"/>
      <point x="355" y="954"/>
      <point x="310" y="954" type="curve"/>
      <point x="286" y="954" type="line"/>
      <point x="241" y="935"/>
      <point x="176" y="886"/>
      <point x="147" y="846" type="curve" smooth="yes"/>
      <point x="131" y="823"/>
      <point x="124" y="807"/>
      <point x="124" y="800" type="curve" smooth="yes"/>
      <point x="124" y="779"/>
      <point x="202" y="765"/>
      <point x="252" y="765" type="curve"/>
    </contour>
    <contour>
      <point x="540" y="779" type="curve"/>
      <point x="509" y="841"/>
      <point x="467" y="891"/>
      <point x="418" y="924" type="curve" smooth="yes"/>
      <point x="375" y="953"/>
      <point x="345" y="954"/>
      <point x="315" y="954" type="curve" smooth="yes"/>
      <point x="307" y="954" type="line"/>
      <point x="288" y="954"/>
      <point x="251" y="928"/>
      <point x="239" y="872" type="curve"/>
      <point x="314" y="851"/>
      <point x="343" y="827"/>
      <point x="375" y="787" type="curve" smooth="yes"/>
      <point x="387" y="770"/>
      <point x="403" y="761"/>
      <point x="436" y="761" type="curve" smooth="yes"/>
      <point x="470" y="761"/>
      <point x="515" y="769"/>
    </contour>
  </outline>
</glyph>
<glyph name="Yacute" format="1">
  <advance width="600"/>
  <unicode hex="00DD"/>
  <outline>
    <contour>
      <point x="18" y="710" type="line"/>
      <point x="40" y="470"/>
      <point x="86" y="306"/>
      <point x="165" y="227" type="curve"/>
      <point x="207" y="185"/>
      <point x="241" y="180"/>
      <point x="270" y="180" type="curve"/>
      <point x="340" y="180"/>
      <point x="391" y="227"/>
      <point x="391" y="302" type="curve"/>
      <point x="285" y="362"/>
      <point x="260" y="449"/>
      <point x="243" y="660" type="curve"/>
      <point x="240" y="696"/>
      <point x="148" y="710"/>
      <point x="42" y="710" type="curve" smooth="yes"/>
    </contour>
    <contour>
      <point x="363" y="710" type="line"/>
      <point x="351" y="479"/>
      <point x="326" y="400"/>
      <point x="257" y="344" type="curve"/>
      <point x="171" y="273"/>
      <point x="219" y="180"/>
      <point x="270" y="180" type="curve"/>
      <point x="390" y="180" type="line"/>
      <point x="478" y="255"/>
      <point x="563" y="438"/>
      <point x="577" y="636" type="curve"/>
      <point x="581" y="692"/>
      <point x="499" y="710"/>
      <point x="387" y="710" type="curve"/>
    </contour>
    <contour>
      <point x="426" y="0" type="curve"/>
      <point x="418" y="38"/>
      <point x="414" y="83"/>
      <point x="414" y="140" type="curve" smooth="yes"/>
      <point x="414" y="264" type="line" smooth="yes"/>
      <point x="414" y="349"/>
      <point x="339" y="350"/>
      <point x="188" y="350" type="curve"/>
      <point x="188" y="106" type="line" smooth="yes"/>
      <point x="188" y="59"/>
      <point x="195" y="32"/>
      <point x="211" y="16" type="curve" smooth="yes"/>
      <point x="230" y="-3"/>
      <point x="262" y="-10"/>
      <point x="328" y="-10" type="curve" smooth="yes"/>
      <point x="362" y="-10"/>
      <point x="395" y="-7"/>
    </contour>
    <contour>
      <point x="313" y="761" type="curve" smooth="yes"/>
      <point x="345" y="761"/>
      <point x="371" y="767"/>
      <point x="386" y="775" type="curve" smooth="yes"/>
      <point x="435" y="801"/>
      <point x="464" y="826"/>
      <point x="488" y="886" type="curve" smooth="yes"/>
      <point x="494" y="901"/>
      <point x="490" y="919"/>
      <point x="469" y="926" type="curve" smooth="yes"/>
      <point x="422" y="942"/>
      <point x="361" y="944"/>
      <point x="315" y="944" type="curve"/>
      <point x="294" y="868"/>
      <point x="264" y="834"/>
      <point x="203" y="775" type="curve"/>
      <point x="235" y="764"/>
      <point x="284" y="761"/>
    </contour>
  </outline>
</glyph>
<glyph name="Thorn" format="1">
  <advance width="600"/>
  <unicode hex="00DE"/>
  <outline>
    <contour>
      <point x="23" y="700" type="curve"/>
      <point x="31" y="662"/>
      <point x="35" y="617"/>
      <point x="35" y="560" type="curve" smooth="yes"/>
      <point x="35" y="76" type="line" smooth="yes"/>
      <point x="35" y="9"/>
      <point x="62" y="-7"/>
      <point x="175" y="-7" type="curve" smooth="yes"/>
      <point x="205" y="-7"/>
      <point x="234" y="-5"/>
      <point x="260" y="0" type="curve"/>
      <point x="260" y="594" type="line" smooth="yes"/>
      <point x="260" y="641"/>
      <point x="253" y="668"/>
      <point x="237" y="684" type="curve" smooth="yes"/>
      <point x="218" y="703"/>
      <point x="186" y="710"/>
      <point x="120" y="710" type="curve" smooth="yes"/>
      <point x="86" y="710"/>
      <point x="54" y="707"/>
    </contour>
    <contour>
      <point x="146" y="587" type="curve"/>
      <point x="139" y="562"/>
      <point x="134" y="527"/>
      <point x="134" y="477" type="curve"/>
      <point x="134" y="423"/>
      <point x="140" y="402"/>
      <point x="149" y="393" type="curve" smooth="yes"/>
      <point x="154" y="388"/>
      <point x="156" y="387"/>
      <point x="164" y="387" type="curve" smooth="yes"/>
      <point x="175" y="387"/>
      <point x="191" y="389"/>
      <point x="222" y="394" type="curve" smooth="yes"/>
      <point x="245" y="398"/>
      <point x="265" y="399"/>
      <point x="292" y="399" type="curve" smooth="yes"/>
      <point x="349" y="399"/>
      <point x="379" y="389"/>
      <point x="423" y="368" type="curve"/>
      <point x="476" y="442"/>
      <point x="406" y="599"/>
      <point x="342" y="599" type="curve" smooth="yes"/>
      <point x="272" y="599"/>
      <point x="214" y="596"/>
    </contour>
    <contour>
      <point x="580" y="368" type="curve" smooth="yes"/>
      <point x="580" y="377" type="line" smooth="yes"/>
      <point x="580" y="491"/>
      <point x="480" y="599"/>
      <point x="342" y="599" type="curve"/>
      <point x="316" y="599"/>
      <point x="267" y="576"/>
      <point x="267" y="509" type="curve"/>
      <point x="343" y="465"/>
      <point x="355" y="406"/>
      <point x="355" y="332" type="curve" smooth="yes"/>
      <point x="355" y="321" type="line" smooth="yes"/>
      <point x="355" y="278"/>
      <point x="333" y="259"/>
      <point x="298" y="259" type="curve" smooth="yes"/>
      <point x="268" y="259"/>
      <point x="248" y="265"/>
      <point x="221" y="282" type="curve"/>
      <point x="207" y="268"/>
      <point x="197" y="251"/>
      <point x="197" y="233" type="curve" smooth="yes"/>
      <point x="197" y="177"/>
      <point x="270" y="69"/>
      <point x="340" y="69" type="curve" smooth="yes"/>
      <point x="345" y="69" type="line" smooth="yes"/>
      <point x="486" y="69"/>
      <point x="580" y="169"/>
    </contour>
  </outline>
</glyph>
<glyph name="ae" format="1">
  <advance width="850"/>
  <unicode hex="00E6"/>
  <outline>
    <contour>
      <point x="224" y="561" type="curve" smooth="yes"/>
      <point x="140" y="561"/>
      <point x="90" y="548"/>
      <point x="62" y="520" type="curve" smooth="yes"/>
      <point x="37" y="495"/>
      <point x="30" y="460"/>
      <point x="30" y="417" type="curve" smooth="yes"/>
      <point x="30" y="393"/>
      <point x="32" y="373"/>
      <point x="40" y="352" type="curve"/>
      <point x="44" y="352" type="line"/>
      <point x="101" y="376"/>
      <point x="141" y="383"/>
      <point x="206" y="383" type="curve" smooth="yes"/>
      <point x="324" y="383"/>
      <point x="342" y="364"/>
      <point x="342" y="301" type="curve" smooth="yes"/>
      <point x="342" y="120" type="line"/>
      <point x="405" y="120"/>
      <point x="502" y="135"/>
      <point x="502" y="197" type="curve"/>
      <point x="502" y="291" type="line" smooth="yes"/>
      <point x="502" y="466"/>
      <point x="405" y="561"/>
    </contour>
    <contour>
      <point x="220" y="198" type="curve" smooth="yes"/>
      <point x="220" y="205" type="line" smooth="yes"/>
      <point x="220" y="231"/>
      <point x="224" y="248"/>
      <point x="240" y="273" type="curve"/>
      <point x="159" y="305"/>
      <point x="13" y="237"/>
      <point x="13" y="174" type="curve" smooth="yes"/>
      <point x="13" y="166" type="line" smooth="yes"/>
      <point x="13" y="47"/>
      <point x="76" y="-10"/>
      <point x="197" y="-10" type="curve" smooth="yes"/>
      <point x="309" y="-10"/>
      <point x="419" y="45"/>
      <point x="450" y="129" type="curve" smooth="yes"/>
      <point x="473" y="189"/>
      <point x="422" y="209"/>
      <point x="359" y="209" type="curve"/>
      <point x="337" y="176"/>
      <point x="302" y="161"/>
      <point x="267" y="161" type="curve" smooth="yes"/>
      <point x="261" y="161" type="line" smooth="yes"/>
      <point x="232" y="161"/>
      <point x="220" y="175"/>
    </contour>
    <contour>
      <point x="366" y="298" type="curve" smooth="yes"/>
      <point x="323" y="318"/>
      <point x="284" y="332"/>
      <point x="190" y="332" type="curve" smooth="yes"/>
      <point x="93" y="332"/>
      <point x="13" y="254"/>
      <point x="13" y="174" type="curve" smooth="yes"/>
      <point x="13" y="144"/>
      <point x="31" y="123"/>
      <point x="62" y="123" type="curve"/>
      <point x="109" y="213"/>
      <point x="185" y="235"/>
      <point x="275" y="235" type="curve" smooth="yes"/>
      <point x="313" y="235"/>
      <point x="340" y="231"/>
      <point x="389" y="217" type="curve"/>
      <point x="389" y="249"/>
      <point x="391" y="288"/>
    </contour>
    <contour>
      <point x="645" y="219" type="line" smooth="yes"/>
      <point x="765" y="219"/>
      <point x="836" y="263"/>
      <point x="836" y="359" type="curve" smooth="yes"/>
      <point x="836" y="372" type="line" smooth="yes"/>
      <point x="836" y="489"/>
      <point x="736" y="562"/>
      <point x="628" y="562" type="curve" smooth="yes"/>
      <point x="587" y="562"/>
      <point x="573" y="538"/>
      <point x="573" y="416" type="curve"/>
      <point x="632" y="416"/>
      <point x="644" y="391"/>
      <point x="644" y="363" type="curve" smooth="yes"/>
      <point x="644" y="354" type="line" smooth="yes"/>
      <point x="644" y="329"/>
      <point x="628" y="319"/>
      <point x="593" y="319" type="curve" smooth="yes"/>
      <point x="542" y="319"/>
      <point x="530" y="325"/>
      <point x="476" y="344" type="curve"/>
      <point x="468" y="288"/>
      <point x="477" y="274"/>
      <point x="493" y="258" type="curve" smooth="yes"/>
      <point x="517" y="234"/>
      <point x="580" y="219"/>
      <point x="635" y="219" type="curve" smooth="yes"/>
    </contour>
    <contour>
      <point x="604" y="386" type="curve" smooth="yes"/>
      <point x="646" y="386"/>
      <point x="673" y="377"/>
      <point x="709" y="349" type="curve"/>
      <point x="781" y="487"/>
      <point x="733" y="562"/>
      <point x="628" y="562" type="curve"/>
      <point x="459" y="562"/>
      <point x="369" y="444"/>
      <point x="369" y="246" type="curve" smooth="yes"/>
      <point x="369" y="222" type="line" smooth="yes"/>
      <point x="369" y="99"/>
      <point x="472" y="-12"/>
      <point x="617" y="-12" type="curve" smooth="yes"/>
      <point x="635" y="-12"/>
      <point x="645" y="15"/>
      <point x="645" y="112" type="curve"/>
      <point x="578" y="123"/>
      <point x="530" y="169"/>
      <point x="530" y="240" type="curve" smooth="yes"/>
      <point x="530" y="309" type="line" smooth="yes"/>
      <point x="530" y="366"/>
      <point x="550" y="386"/>
    </contour>
    <contour>
      <point x="789" y="25" type="curve" smooth="yes"/>
      <point x="815" y="45"/>
      <point x="829" y="75"/>
      <point x="829" y="123" type="curve" smooth="yes"/>
      <point x="829" y="157"/>
      <point x="823" y="184"/>
      <point x="816" y="206" type="curve"/>
      <point x="812" y="206" type="line"/>
      <point x="756" y="172"/>
      <point x="710" y="161"/>
      <point x="636" y="161" type="curve" smooth="yes"/>
      <point x="574" y="161"/>
      <point x="543" y="172"/>
      <point x="498" y="207" type="curve"/>
      <point x="456" y="40"/>
      <point x="518" y="-12"/>
      <point x="617" y="-12" type="curve" smooth="yes"/>
      <point x="700" y="-12"/>
      <point x="751" y="-5"/>
    </contour>
    <contour>
      <point x="425" y="561" type="move" name="top"/>
    </contour>
  </outline>
</glyph>
<glyph name="ccedilla" format="1">
  <advance width="500"/>
  <unicode hex="00E7"/>
  <outline>
    <contour>
      <point x="318" y="564" type="curve" smooth="yes"/>
      <point x="124" y="564"/>
      <point x="15" y="446"/>
      <point x="15" y="269" type="curve" smooth="yes"/>
      <point x="15" y="259" type="line" smooth="yes"/>
      <point x="15" y="93"/>
      <point x="113" y="-14"/>
      <point x="285" y="-14" type="curve" smooth="yes"/>
      <point x="302" y="-14"/>
      <point x="360" y="-2"/>
      <point x="363" y="58" type="curve"/>
      <point x="244" y="115"/>
      <point x="227" y="179"/>
      <point x="227" y="258" type="curve" smooth="yes"/>
      <point x="227" y="266" type="line" smooth="yes"/>
      <point x="227" y="341"/>
      <point x="256" y="378"/>
      <point x="322" y="378" type="curve" smooth="yes"/>
      <point x="373" y="378"/>
      <point x="411" y="368"/>
      <point x="468" y="332" type="curve"/>
      <point x="472" y="332" type="line"/>
      <point x="482" y="360"/>
      <point x="486" y="392"/>
      <point x="486" y="419" type="curve"/>
      <point x="486" y="471"/>
      <point x="476" y="505"/>
      <point x="454" y="527" type="curve" smooth="yes"/>
      <point x="426" y="555"/>
      <point x="387" y="564"/>
    </contour>
    <contour>
      <point x="285" y="-14" type="curve" smooth="yes"/>
      <point x="371" y="-14"/>
      <point x="424" y="-2"/>
      <point x="450" y="24" type="curve" smooth="yes"/>
      <point x="474" y="48"/>
      <point x="485" y="82"/>
      <point x="485" y="135" type="curve"/>
      <point x="485" y="162"/>
      <point x="481" y="193"/>
      <point x="474" y="221" type="curve"/>
      <point x="470" y="221" type="line"/>
      <point x="411" y="189"/>
      <point x="373" y="180"/>
      <point x="306" y="180" type="curve" smooth="yes"/>
      <point x="235" y="180"/>
      <point x="177" y="200"/>
      <point x="96" y="251" type="curve"/>
      <point x="24" y="132"/>
      <point x="128" y="-14"/>
    </contour>
    <contour>
      <point x="399" y="-113" type="curve" smooth="yes"/>
      <point x="399" y="-24"/>
      <point x="323" y="36"/>
      <point x="277" y="52" type="curve"/>
      <point x="277" y="65"/>
      <point x="279" y="83"/>
      <point x="285" y="103" type="curve"/>
      <point x="217" y="103"/>
      <point x="220" y="102"/>
      <point x="214" y="95" type="curve" smooth="yes"/>
      <point x="201" y="80"/>
      <point x="194" y="64"/>
      <point x="194" y="48" type="curve" smooth="yes"/>
      <point x="194" y="40"/>
      <point x="196" y="36"/>
      <point x="205" y="32" type="curve" smooth="yes"/>
      <point x="233" y="20"/>
      <point x="245" y="-3"/>
      <point x="245" y="-42" type="curve" smooth="yes"/>
      <point x="245" y="-72"/>
      <point x="224" y="-88"/>
      <point x="192" y="-88" type="curve" smooth="yes"/>
      <point x="166" y="-88"/>
      <point x="148" y="-83"/>
      <point x="130" y="-73" type="curve"/>
      <point x="126" y="-73" type="line"/>
      <point x="120" y="-90"/>
      <point x="118" y="-103"/>
      <point x="118" y="-123" type="curve" smooth="yes"/>
      <point x="118" y="-192"/>
      <point x="159" y="-255"/>
      <point x="240" y="-255" type="curve" smooth="yes"/>
      <point x="357" y="-255"/>
      <point x="399" y="-184"/>
    </contour>
  </outline>
</glyph>
<glyph name="edieresis" format="1">
  <advance width="600"/>
  <unicode hex="00EB"/>
  <outline>
    <contour>
      <point x="325" y="386" type="curve" smooth="yes"/>
      <point x="376" y="386"/>
      <point x="413" y="374"/>
      <point x="451" y="343" type="curve"/>
      <point x="464" y="365"/>
      <point x="475" y="387"/>
      <point x="475" y="413" type="curve"/>
      <point x="475" y="480"/>
      <point x="420" y="564"/>
      <point x="340" y="564" type="curve"/>
      <point x="157" y="564"/>
      <point x="30" y="436"/>
      <point x="30" y="261" type="curve" smooth="yes"/>
      <point x="30" y="251" type="line" smooth="yes"/>
      <point x="30" y="90"/>
      <point x="137" y="-14"/>
      <point x="328" y="-14" type="curve" smooth="yes"/>
      <point x="351" y="-14"/>
      <point x="368" y="7"/>
      <point x="370" y="54" type="curve"/>
      <point x="261" y="98"/>
      <point x="242" y="174"/>
      <point x="242" y="244" type="curve" smooth="yes"/>
      <point x="242" y="287" type="line" smooth="yes"/>
      <point x="242" y="350"/>
      <point x="271" y="386"/>
    </contour>
    <contour>
      <point x="526" y="24" type="curve" smooth="yes"/>
      <point x="550" y="48"/>
      <point x="561" y="84"/>
      <point x="561" y="132" type="curve" smooth="yes"/>
      <point x="561" y="157"/>
      <point x="558" y="179"/>
      <point x="552" y="205" type="curve"/>
      <point x="548" y="205" type="line"/>
      <point x="475" y="170"/>
      <point x="420" y="160"/>
      <point x="330" y="160" type="curve" smooth="yes"/>
      <point x="249" y="160"/>
      <point x="186" y="187"/>
      <point x="111" y="248" type="curve"/>
      <point x="44" y="121"/>
      <point x="149" y="-14"/>
      <point x="328" y="-14" type="curve" smooth="yes"/>
      <point x="433" y="-14"/>
      <point x="498" y="-4"/>
    </contour>
    <contour>
      <point x="344" y="217" type="line" smooth="yes"/>
      <point x="526" y="217"/>
      <point x="570" y="278"/>
      <point x="570" y="366" type="curve" smooth="yes"/>
      <point x="570" y="369" type="line" smooth="yes"/>
      <point x="570" y="464"/>
      <point x="477" y="564"/>
      <point x="339" y="564" type="curve" smooth="yes"/>
      <point x="316" y="564"/>
      <point x="299" y="513"/>
      <point x="299" y="440" type="curve"/>
      <point x="351" y="440"/>
      <point x="374" y="410"/>
      <point x="374" y="347" type="curve" smooth="yes"/>
      <point x="374" y="344" type="line" smooth="yes"/>
      <point x="374" y="322"/>
      <point x="356" y="310"/>
      <point x="320" y="310" type="curve" smooth="yes"/>
      <point x="287" y="310"/>
      <point x="257" y="310"/>
      <point x="202" y="334" type="curve"/>
      <point x="192" y="304"/>
      <point x="190" y="279"/>
      <point x="209" y="260" type="curve" smooth="yes"/>
      <point x="233" y="236"/>
      <point x="278" y="217"/>
      <point x="341" y="217" type="curve" smooth="yes"/>
    </contour>
    <contour>
      <point x="268" y="629" type="curve"/>
      <point x="268" y="733" type="line" smooth="yes"/>
      <point x="268" y="777"/>
      <point x="219" y="782"/>
      <point x="176" y="782" type="curve" smooth="yes"/>
      <point x="152" y="782"/>
      <point x="120" y="780"/>
      <point x="92" y="775" type="curve"/>
      <point x="92" y="672" type="line" smooth="yes"/>
      <point x="92" y="628"/>
      <point x="141" y="621"/>
      <point x="183" y="621" type="curve" smooth="yes"/>
      <point x="208" y="621"/>
      <point x="241" y="622"/>
    </contour>
    <contour>
      <point x="508" y="629" type="curve"/>
      <point x="508" y="733" type="line" smooth="yes"/>
      <point x="508" y="777"/>
      <point x="459" y="782"/>
      <point x="416" y="782" type="curve" smooth="yes"/>
      <point x="392" y="782"/>
      <point x="360" y="780"/>
      <point x="332" y="775" type="curve"/>
      <point x="332" y="672" type="line" smooth="yes"/>
      <point x="332" y="628"/>
      <point x="381" y="621"/>
      <point x="423" y="621" type="curve" smooth="yes"/>
      <point x="448" y="621"/>
      <point x="481" y="622"/>
    </contour>
  </outline>
</glyph>
<glyph name="igrave" format="1">
  <advance width="350"/>
  <unicode hex="00EC"/>
  <outline>
    <contour>
      <point x="31" y="556" type="curve"/>
      <point x="22" y="528"/>
      <point x="20" y="503"/>
      <point x="20" y="469" type="curve" smooth="yes"/>
      <point x="20" y="389"/>
      <point x="42" y="328"/>
      <point x="63" y="328" type="curve" smooth="yes"/>
      <point x="86" y="328"/>
      <point x="96" y="336"/>
      <point x="138" y="336" type="curve"/>
      <point x="138" y="420"/>
      <point x="134" y="560"/>
      <point x="80" y="560" type="curve" smooth="yes"/>
      <point x="64" y="560"/>
      <point x="49" y="559"/>
    </contour>
    <contour>
      <point x="316" y="-5" type="curve"/>
      <point x="307" y="40"/>
      <point x="304" y="90"/>
      <point x="304" y="140" type="curve" smooth="yes"/>
      <point x="304" y="485" type="line" smooth="yes"/>
      <point x="304" y="539"/>
      <point x="245" y="560"/>
      <point x="92" y="560" type="curve" smooth="yes"/>
      <point x="80" y="560" type="line"/>
      <point x="80" y="51" type="line" smooth="yes"/>
      <point x="80" y="9"/>
      <point x="116" y="-10"/>
      <point x="220" y="-10" type="curve" smooth="yes"/>
      <point x="248" y="-10"/>
      <point x="280" y="-9"/>
    </contour>
    <contour>
      <point x="276" y="639" type="curve"/>
      <point x="215" y="704"/>
      <point x="185" y="742"/>
      <point x="164" y="826" type="curve"/>
      <point x="118" y="826"/>
      <point x="57" y="824"/>
      <point x="10" y="806" type="curve" smooth="yes"/>
      <point x="-11" y="798"/>
      <point x="-15" y="779"/>
      <point x="-9" y="762" type="curve"/>
      <point x="15" y="695"/>
      <point x="44" y="667"/>
      <point x="93" y="639" type="curve" smooth="yes"/>
      <point x="108" y="630"/>
      <point x="134" y="623"/>
      <point x="166" y="623" type="curve" smooth="yes"/>
      <point x="195" y="623"/>
      <point x="244" y="626"/>
    </contour>
  </outline>
</glyph>
<glyph name="iacute" format="1">
  <advance width="350"/>
  <unicode hex="00ED"/>
  <outline>
    <contour>
      <point x="31" y="556" type="curve"/>
      <point x="22" y="528"/>
      <point x="20" y="503"/>
      <point x="20" y="469" type="curve" smooth="yes"/>
      <point x="20" y="389"/>
      <point x="42" y="328"/>
      <point x="63" y="328" type="curve" smooth="yes"/>
      <point x="86" y="328"/>
      <point x="96" y="336"/>
      <point x="138" y="336" type="curve"/>
      <point x="138" y="420"/>
      <point x="134" y="560"/>
      <point x="80" y="560" type="curve" smooth="yes"/>
      <point x="64" y="560"/>
      <point x="49" y="559"/>
    </contour>
    <contour>
      <point x="316" y="-5" type="curve"/>
      <point x="307" y="40"/>
      <point x="304" y="90"/>
      <point x="304" y="140" type="curve" smooth="yes"/>
      <point x="304" y="485" type="line" smooth="yes"/>
      <point x="304" y="539"/>
      <point x="245" y="560"/>
      <point x="92" y="560" type="curve" smooth="yes"/>
      <point x="80" y="560" type="line"/>
      <point x="80" y="51" type="line" smooth="yes"/>
      <point x="80" y="9"/>
      <point x="116" y="-10"/>
      <point x="220" y="-10" type="curve" smooth="yes"/>
      <point x="248" y="-10"/>
      <point x="280" y="-9"/>
    </contour>
    <contour>
      <point x="198" y="623" type="curve" smooth="yes"/>
      <point x="230" y="623"/>
      <point x="257" y="630"/>
      <point x="273" y="639" type="curve" smooth="yes"/>
      <point x="325" y="667"/>
      <point x="351" y="701"/>
      <point x="373" y="763" type="curve"/>
      <point x="379" y="779"/>
      <point x="375" y="798"/>
      <point x="354" y="806" type="curve" smooth="yes"/>
      <point x="307" y="824"/>
      <point x="246" y="826"/>
      <point x="200" y="826" type="curve"/>
      <point x="175" y="750"/>
      <point x="150" y="703"/>
      <point x="88" y="639" type="curve"/>
      <point x="120" y="626"/>
      <point x="169" y="623"/>
    </contour>
  </outline>
</glyph>
<glyph name="icircumflex" format="1">
  <advance width="350"/>
  <unicode hex="00EE"/>
  <outline>
    <contour>
      <point x="31" y="556" type="curve"/>
      <point x="22" y="528"/>
      <point x="20" y="503"/>
      <point x="20" y="469" type="curve" smooth="yes"/>
      <point x="20" y="389"/>
      <point x="42" y="328"/>
      <point x="63" y="328" type="curve" smooth="yes"/>
      <point x="86" y="328"/>
      <point x="96" y="336"/>
      <point x="138" y="336" type="curve"/>
      <point x="138" y="420"/>
      <point x="134" y="560"/>
      <point x="80" y="560" type="curve" smooth="yes"/>
      <point x="64" y="560"/>
      <point x="49" y="559"/>
    </contour>
    <contour>
      <point x="316" y="-5" type="curve"/>
      <point x="307" y="40"/>
      <point x="304" y="90"/>
      <point x="304" y="140" type="curve" smooth="yes"/>
      <point x="304" y="485" type="line" smooth="yes"/>
      <point x="304" y="539"/>
      <point x="245" y="560"/>
      <point x="92" y="560" type="curve" smooth="yes"/>
      <point x="80" y="560" type="line"/>
      <point x="80" y="51" type="line" smooth="yes"/>
      <point x="80" y="9"/>
      <point x="116" y="-10"/>
      <point x="220" y="-10" type="curve" smooth="yes"/>
      <point x="248" y="-10"/>
      <point x="280" y="-9"/>
    </contour>
    <contour>
      <point x="103" y="622" type="line"/>
      <point x="131" y="675"/>
      <point x="185" y="722"/>
      <point x="250" y="743" type="curve"/>
      <point x="250" y="801"/>
      <point x="212" y="832"/>
      <point x="167" y="832" type="curve"/>
      <point x="143" y="832" type="line"/>
      <point x="98" y="811"/>
      <point x="33" y="756"/>
      <point x="4" y="712" type="curve" smooth="yes"/>
      <point x="-12" y="687"/>
      <point x="-19" y="669"/>
      <point x="-19" y="661" type="curve" smooth="yes"/>
      <point x="-19" y="638"/>
      <point x="47" y="622"/>
      <point x="97" y="622" type="curve"/>
    </contour>
    <contour>
      <point x="397" y="638" type="curve"/>
      <point x="366" y="707"/>
      <point x="324" y="762"/>
      <point x="275" y="799" type="curve" smooth="yes"/>
      <point x="232" y="831"/>
      <point x="202" y="832"/>
      <point x="172" y="832" type="curve" smooth="yes"/>
      <point x="164" y="832" type="line"/>
      <point x="145" y="832"/>
      <point x="118" y="803"/>
      <point x="106" y="741" type="curve"/>
      <point x="181" y="717"/>
      <point x="210" y="695"/>
      <point x="242" y="651" type="curve" smooth="yes"/>
      <point x="253" y="632"/>
      <point x="270" y="622"/>
      <point x="303" y="622" type="curve" smooth="yes"/>
      <point x="337" y="622"/>
      <point x="372" y="627"/>
    </contour>
  </outline>
</glyph>
